<svg width="399" height="372" fill="none" xmlns="http://www.w3.org/2000/svg"><g filter="url(#filter0_d)"><path fill-rule="evenodd" clip-rule="evenodd" d="M4 8a6 6 0 0 1 6-6h378.234a6 6 0 0 1 6 6v352a6 6 0 0 1-6 6H10a6 6 0 0 1-6-6V8z" fill="#fff"/></g><path opacity=".8" fill-rule="evenodd" clip-rule="evenodd" d="M259 260a3 3 0 0 1 3-3h104a3 3 0 0 1 3 3v33a3 3 0 0 1-3 3H262a3 3 0 0 1-3-3v-33z" fill="#DAEAEF"/><path d="M287.26 281h1.4v-7.308h.028l4.256 7.308h1.414v-9.8h-1.414v7.308h-.028l-4.214-7.308h-1.442v9.8zm14.511-2.366c-.294.49-.784 1.358-2.086 1.358-1.358 0-2.03-1.036-2.058-2.296h5.376v-.406c0-2.45-1.414-3.92-3.36-3.92s-3.402 1.512-3.402 3.92 1.456 3.92 3.472 3.92c1.582 0 2.562-.868 3.08-1.806l-1.022-.77zm-4.13-2.002c.028-.868.63-2.044 2.002-2.044 1.4 0 1.96 1.022 2.002 2.044h-4.004zm10.91-3.052l-1.862 5.376h-.028l-1.12-5.376h-1.344l1.638 7.42h1.316l2.002-5.824h.028l2.002 5.824h1.316l1.638-7.42h-1.344l-1.092 5.376h-.028l-1.89-5.376h-1.232zm11.088 5.096c0 1.512.546 2.324 2.198 2.324h.658v-1.316h-.56c-.798 0-.952-.35-.952-1.148v-3.766h1.834v-1.19h-1.848v-1.82h-1.302v1.82h-1.12v1.19h1.092v3.906zm7.498 1.302c-1.176 0-2.058-.91-2.058-2.688s.882-2.674 2.058-2.674c1.148 0 2.016.938 2.016 2.674 0 1.75-.868 2.688-2.016 2.688zm0 1.232c1.89 0 3.36-1.386 3.36-3.92s-1.568-3.92-3.36-3.92c-1.82 0-3.402 1.386-3.402 3.92s1.498 3.92 3.402 3.92zm5.114-.21h1.358v-2.506l1.05-1.134h.028l2.45 3.64h1.568l-2.996-4.452 2.688-2.968h-1.764l-2.996 3.29h-.028v-6.09h-1.358V281zm12.477-2.366c-.294.49-.784 1.358-2.086 1.358-1.358 0-2.03-1.036-2.058-2.296h5.376v-.406c0-2.45-1.414-3.92-3.36-3.92s-3.402 1.512-3.402 3.92 1.456 3.92 3.472 3.92c1.582 0 2.562-.868 3.08-1.806l-1.022-.77zm-4.13-2.002c.028-.868.63-2.044 2.002-2.044 1.4 0 1.96 1.022 2.002 2.044h-4.004zm7.116 4.368h1.358v-4.662c0-1.064.7-1.708 1.764-1.708 1.106 0 1.568.672 1.568 1.904V281h1.372v-4.858c0-1.736-1.064-2.772-2.674-2.772-.84 0-1.652.42-2.03.924h-.028v-.714h-1.33V281z" fill="#6D777B"/><path fill-rule="evenodd" clip-rule="evenodd" d="M278.373 277.355h-3.279v3.279h-1.076v-3.279h-3.279v-1.076h3.279V273h1.076v3.279h3.279v1.076z" fill="#6D777B"/><path fill-rule="evenodd" clip-rule="evenodd" d="M102.378 115.297a2 2 0 0 1 2-2h188.658a2 2 0 0 1 2 2v.919a2 2 0 0 1-2 2H104.378a2 2 0 0 1-2-2v-.919z" fill="#EDF3F6"/><path fill-rule="evenodd" clip-rule="evenodd" d="M103.198 115.297a2 2 0 0 1 2-2h117.438a2 2 0 0 1 2 2v.919a2 2 0 0 1-2 2H105.198a2 2 0 0 1-2-2v-.919z" fill="#01C7E4"/><g filter="url(#filter1_d)" clip-rule="evenodd"><path fill-rule="evenodd" d="M227.811 125.595c5.433 0 9.838-4.405 9.838-9.838 0-5.434-4.405-9.838-9.838-9.838-5.433 0-9.838 4.404-9.838 9.838 0 5.433 4.405 9.838 9.838 9.838z" fill="#fff"/><path d="M227.811 125.595c5.433 0 9.838-4.405 9.838-9.838 0-5.434-4.405-9.838-9.838-9.838-5.433 0-9.838 4.404-9.838 9.838 0 5.433 4.405 9.838 9.838 9.838z" stroke="#DCECF5" stroke-width=".5"/></g><g filter="url(#filter2_d)"><path fill-rule="evenodd" clip-rule="evenodd" d="M28.595 101.541a3 3 0 0 1 3-3h51.387a3 3 0 0 1 3 3v26.792a3 3 0 0 1-3 3H31.595a3 3 0 0 1-3-3v-26.792z" fill="#fff"/><path d="M29.095 101.541a2.5 2.5 0 0 1 2.5-2.5h51.387a2.5 2.5 0 0 1 2.5 2.5v26.792a2.5 2.5 0 0 1-2.5 2.5H31.595a2.5 2.5 0 0 1-2.5-2.5v-26.792z" stroke="#B2C8CF" stroke-opacity=".3"/></g><path fill-rule="evenodd" clip-rule="evenodd" d="M68 113.297h6.854l-3.427 3.427L68 113.297z" fill="#B2C8CF"/><path d="M40.152 119.018h5.052v-.804h-4.212v-3.144h2.664v-.792h-2.664v-2.856h3.948v-.804h-4.788v8.4zm9.752-7.596h2.316v-.804h-5.46v.804h2.304v7.596h.84v-7.596zm9.243 7.596h.84v-8.4h-.84v3.636h-4.104v-3.636h-.84v8.4h.84v-3.972h4.104v3.972z" fill="#000"/><path opacity=".7" d="M31.464 87h1.298v-6.501h2.288V79.3h-5.885v1.199h2.299V87zm7.465-1.034c-1.067 0-1.969-.803-1.969-2.882 0-1.892.924-2.739 1.97-2.739 1.033 0 1.957.869 1.957 2.75 0 2.09-.902 2.871-1.958 2.871zm0 1.199c1.683 0 3.3-1.122 3.3-4.07 0-2.651-1.628-3.96-3.3-3.96-1.683 0-3.322 1.298-3.322 3.949 0 2.948 1.628 4.081 3.322 4.081zM43.553 87h1.299v-2.497l.693-.88h.021L48.063 87h1.563l-3.157-4.312 2.849-3.388h-1.573l-2.871 3.432h-.023V79.3h-1.297V87zm6.953 0h4.796v-1.199h-3.498v-2.167h3.19v-1.155h-3.19v-1.98h3.498V79.3h-4.796V87zm6.392 0h1.298v-5.445h.022L61.308 87h1.32v-7.7h-1.297v5.445h-.022L58.25 79.3h-1.353V87z" fill="#91B1BB"/><g filter="url(#filter3_d)"><path fill-rule="evenodd" clip-rule="evenodd" d="M310.613 101.541a3 3 0 0 1 3-3H365a3 3 0 0 1 3 3v26.792a3 3 0 0 1-3 3h-51.387a3 3 0 0 1-3-3v-26.792z" fill="#fff"/><path d="M311.113 101.541a2.5 2.5 0 0 1 2.5-2.5H365a2.5 2.5 0 0 1 2.5 2.5v26.792a2.5 2.5 0 0 1-2.5 2.5h-51.387a2.5 2.5 0 0 1-2.5-2.5v-26.792z" stroke="#B2C8CF" stroke-opacity=".3"/></g><path d="M327.689 119.018h.84v-2.268h1.272v-.72h-1.272v-5.412h-.504l-4.416 5.688v.444h4.08v2.268zm0-2.988h-2.988l2.988-3.96v3.96zm6.224 3.132c1.464 0 2.688-1.212 2.688-2.784 0-1.284-1.104-2.568-2.484-2.568-.852 0-1.548.276-1.956.768.264-1.428 1.668-2.976 3.264-3.444v-.66c-2.424.612-4.296 3.048-4.296 5.436 0 1.836.948 3.252 2.784 3.252zm-.036-.756c-1.08 0-1.92-.828-1.92-1.908 0-1.128.804-1.944 1.92-1.944 1.188 0 1.92.816 1.92 1.944 0 1.08-.768 1.908-1.92 1.908z" fill="#000"/><path d="M347.515 114.712c-.826 0-1.232-.756-1.232-1.904s.462-1.736 1.232-1.736 1.232.574 1.232 1.736c0 1.148-.42 1.904-1.232 1.904zm0 1.008c1.358 0 2.324-.994 2.324-2.926 0-1.848-1.19-2.744-2.324-2.744s-2.31.896-2.31 2.744c0 1.932.952 2.926 2.31 2.926zm6.664 3.458c-.826 0-1.232-.756-1.232-1.904s.462-1.736 1.232-1.736 1.232.574 1.232 1.736c0 1.148-.42 1.904-1.232 1.904zm0 1.008c1.358 0 2.324-.994 2.324-2.926 0-1.848-1.19-2.744-2.324-2.744s-2.31.896-2.31 2.744c0 1.932.952 2.926 2.31 2.926zm-7.322.35l.826.504 6.832-11.396-.812-.518-6.846 11.41z" fill="#B2C8CF"/><path opacity=".7" d="M308.935 87h1.298v-2.86h1.782c1.617 0 2.618-.913 2.618-2.409 0-1.529-1.089-2.431-2.629-2.431h-3.069V87zm1.298-4.059v-2.442h1.738c.671 0 1.331.319 1.331 1.232 0 .781-.594 1.21-1.32 1.21h-1.749zM315.681 87h4.796v-1.199h-3.498v-2.167h3.19v-1.155h-3.19v-1.98h3.498V79.3h-4.796V87zm6.392 0h1.298v-2.959h1.342L326.275 87h1.441l-1.661-3.069c1.023-.264 1.716-1.034 1.716-2.233 0-1.529-1.067-2.398-2.629-2.398h-3.069V87zm1.298-4.081v-2.442h1.672c.847 0 1.419.352 1.419 1.221 0 .869-.583 1.221-1.419 1.221h-1.672zm10.281 1.067c-.132 1.1-.583 1.98-1.683 1.98-1.067 0-1.98-.825-1.98-2.86 0-2.013.957-2.772 1.98-2.772 1.078 0 1.496.858 1.639 1.749l1.342-.209c-.187-1.65-1.397-2.739-2.992-2.739-1.683 0-3.311 1.276-3.311 3.949 0 2.86 1.507 4.081 3.322 4.081 1.749 0 2.871-1.21 3.047-2.904l-1.364-.275zm2.74 3.014h4.796v-1.199h-3.498v-2.167h3.19v-1.155h-3.19v-1.98h3.498V79.3h-4.796V87zm6.392 0h1.298v-5.445h.022L347.195 87h1.32v-7.7h-1.298v5.445h-.022l-3.058-5.445h-1.353V87zm9.134 0h1.298v-6.501h2.288V79.3h-5.885v1.199h2.299V87zm8.524 0h1.287l-2.772-7.7h-1.056l-2.772 7.7h1.287l.451-1.32h3.113l.462 1.32zm-2.024-5.819h.022l1.155 3.388h-2.343l1.166-3.388zm7.013 5.984c1.716 0 2.959-1.166 2.959-3.179v-.924h-2.849v1.122h1.595c.011 1.133-.649 1.782-1.705 1.782-1.067 0-1.969-.858-1.969-2.926 0-1.815.924-2.695 1.969-2.695 1.012 0 1.463.748 1.628 1.595l1.309-.209c-.231-1.595-1.408-2.596-2.937-2.596-1.694 0-3.311 1.32-3.311 3.905 0 2.937 1.518 4.125 3.311 4.125zm4.391-.165h4.796v-1.199h-3.498v-2.167h3.19v-1.155h-3.19v-1.98h3.498V79.3h-4.796V87z" fill="#91B1BB"/><path fill-rule="evenodd" clip-rule="evenodd" d="M102.378 170.324a2 2 0 0 1 2-2h188.658a2 2 0 0 1 2 2v.919a2 2 0 0 1-2 2H104.378a2 2 0 0 1-2-2v-.919z" fill="#EDF3F6"/><path fill-rule="evenodd" clip-rule="evenodd" d="M103.198 170.324a2 2 0 0 1 2-2h65.789a2 2 0 0 1 2 2v.919a2 2 0 0 1-2 2h-65.789a2 2 0 0 1-2-2v-.919z" fill="#01C7E4"/><g filter="url(#filter4_d)" clip-rule="evenodd"><path fill-rule="evenodd" d="M175.342 180.622c5.434 0 9.838-4.405 9.838-9.838a9.837 9.837 0 0 0-9.838-9.838c-5.433 0-9.837 4.404-9.837 9.838 0 5.433 4.404 9.838 9.837 9.838z" fill="#fff"/><path d="M175.342 180.622c5.434 0 9.838-4.405 9.838-9.838a9.837 9.837 0 0 0-9.838-9.838c-5.433 0-9.837 4.404-9.837 9.838 0 5.433 4.404 9.838 9.837 9.838z" stroke="#DCECF5" stroke-width=".5"/></g><g filter="url(#filter5_d)"><path fill-rule="evenodd" clip-rule="evenodd" d="M28.595 156.568a3 3 0 0 1 3-3h51.387a3 3 0 0 1 3 3v26.792a3 3 0 0 1-3 3H31.595a3 3 0 0 1-3-3v-26.792z" fill="#fff"/><path d="M29.095 156.568a2.5 2.5 0 0 1 2.5-2.5h51.387a2.5 2.5 0 0 1 2.5 2.5v26.792a2.5 2.5 0 0 1-2.5 2.5H31.595a2.5 2.5 0 0 1-2.5-2.5v-26.792z" stroke="#B2C8CF" stroke-opacity=".3"/></g><path fill-rule="evenodd" clip-rule="evenodd" d="M68 168.324h6.854l-3.427 3.427L68 168.324z" fill="#B2C8CF"/><path d="M45.372 174h.852l-2.94-8.4h-.648L39.72 174h.876l.732-2.172h3.276l.768 2.172zm-1.02-2.916H41.58l1.152-3.36c.072-.204.18-.6.228-.756.036.156.168.552.24.756l1.152 3.36zM53.911 174v-8.4h-.84v6.948c-.12-.216-.228-.396-.348-.588l-3.9-6.36h-.852v8.4h.84v-6.852c.108.192.228.384.336.564L53.059 174h.852zm5.125-7.596h2.316v-.804h-5.46v.804h2.304V174h.84v-7.596z" fill="#000"/><g filter="url(#filter6_d)"><path fill-rule="evenodd" clip-rule="evenodd" d="M310.613 156.568a3 3 0 0 1 3-3H365a3 3 0 0 1 3 3v26.792a3 3 0 0 1-3 3h-51.387a3 3 0 0 1-3-3v-26.792z" fill="#fff"/><path d="M311.113 156.568a2.5 2.5 0 0 1 2.5-2.5H365a2.5 2.5 0 0 1 2.5 2.5v26.792a2.5 2.5 0 0 1-2.5 2.5h-51.387a2.5 2.5 0 0 1-2.5-2.5v-26.792z" stroke="#B2C8CF" stroke-opacity=".3"/></g><path d="M326.633 174.189c1.536 0 2.856-1.044 2.856-2.448 0-1.104-.54-1.908-1.416-2.256.66-.36 1.068-1.092 1.068-1.836 0-1.296-1.068-2.148-2.46-2.148-1.416 0-2.256.888-2.604 1.776l.78.3c.252-.576.792-1.296 1.86-1.296.804 0 1.548.552 1.548 1.488 0 .924-.66 1.524-1.656 1.524h-.444v.768h.564c1.212 0 1.872.672 1.872 1.704 0 1.116-.9 1.644-1.968 1.644-.984 0-1.596-.48-2.004-1.512l-.78.324c.408 1.104 1.152 1.968 2.784 1.968zm7.532 0c2.316 0 2.88-2.568 2.88-4.344 0-2.052-.684-4.344-2.88-4.344-2.34 0-2.88 2.592-2.88 4.344 0 2.1.684 4.344 2.88 4.344zm0-.756c-1.608 0-2.004-1.824-2.004-3.588 0-1.524.324-3.588 2.004-3.588 1.584 0 1.98 1.848 1.98 3.588 0 1.548-.3 3.588-1.98 3.588z" fill="#000"/><path d="M346.515 169.739c-.826 0-1.232-.756-1.232-1.904s.462-1.736 1.232-1.736 1.232.574 1.232 1.736c0 1.148-.42 1.904-1.232 1.904zm0 1.008c1.358 0 2.324-.994 2.324-2.926 0-1.848-1.19-2.744-2.324-2.744s-2.31.896-2.31 2.744c0 1.932.952 2.926 2.31 2.926zm6.664 3.458c-.826 0-1.232-.756-1.232-1.904s.462-1.736 1.232-1.736 1.232.574 1.232 1.736c0 1.148-.42 1.904-1.232 1.904zm0 1.008c1.358 0 2.324-.994 2.324-2.926 0-1.848-1.19-2.744-2.324-2.744s-2.31.896-2.31 2.744c0 1.932.952 2.926 2.31 2.926zm-7.322.35l.826.504 6.832-11.396-.812-.518-6.846 11.41z" fill="#B2C8CF"/><path fill-rule="evenodd" clip-rule="evenodd" d="M102.378 225.351a2 2 0 0 1 2-2h188.658a2 2 0 0 1 2 2v.919a2 2 0 0 1-2 2H104.378a2 2 0 0 1-2-2v-.919z" fill="#EDF3F6"/><path fill-rule="evenodd" clip-rule="evenodd" d="M103.198 225.351a2 2 0 0 1 2-2h59.231a2 2 0 0 1 2 2v.919a2 2 0 0 1-2 2h-59.231a2 2 0 0 1-2-2v-.919z" fill="#01C7E4"/><g filter="url(#filter7_d)" clip-rule="evenodd"><path fill-rule="evenodd" d="M167.144 235.649c5.433 0 9.838-4.405 9.838-9.838 0-5.433-4.405-9.838-9.838-9.838-5.433 0-9.838 4.405-9.838 9.838 0 5.433 4.405 9.838 9.838 9.838z" fill="#fff"/><path d="M167.144 235.649c5.433 0 9.838-4.405 9.838-9.838 0-5.433-4.405-9.838-9.838-9.838-5.433 0-9.838 4.405-9.838 9.838 0 5.433 4.405 9.838 9.838 9.838z" stroke="#DCECF5" stroke-width=".5"/></g><g filter="url(#filter8_d)"><path fill-rule="evenodd" clip-rule="evenodd" d="M28.595 211.595a3 3 0 0 1 3-3h51.387a3 3 0 0 1 3 3v26.792a3 3 0 0 1-3 3H31.595a3 3 0 0 1-3-3v-26.792z" fill="#fff"/><path d="M29.095 211.595a2.5 2.5 0 0 1 2.5-2.5h51.387a2.5 2.5 0 0 1 2.5 2.5v26.792a2.5 2.5 0 0 1-2.5 2.5H31.595a2.5 2.5 0 0 1-2.5-2.5v-26.792z" stroke="#B2C8CF" stroke-opacity=".3"/></g><path fill-rule="evenodd" clip-rule="evenodd" d="M68 223.351h6.854l-3.427 3.427L68 223.351z" fill="#B2C8CF"/><path d="M42.468 229.216c1.548 0 2.652-.84 2.652-2.328 0-1.572-1.284-2.292-2.424-2.736-.996-.384-1.932-.792-1.932-1.68 0-.72.588-1.188 1.572-1.188.84 0 1.392.396 1.596.84l.78-.264c-.228-.768-1.104-1.332-2.34-1.332-1.56 0-2.472.888-2.472 1.956 0 1.392 1.284 2.028 2.46 2.472.984.372 1.896.924 1.896 1.956 0 1.008-.684 1.548-1.776 1.548-.96 0-1.68-.504-2.016-1.236l-.792.288c.336.912 1.38 1.704 2.796 1.704zm7.413-7.74h2.316v-.804h-5.46v.804h2.304v7.596h.84v-7.596zm10.238 7.596v-8.4h-.84v6.948c-.12-.216-.228-.396-.348-.588l-3.9-6.36h-.852v8.4h.84v-6.852c.108.192.228.384.336.564l3.912 6.288h.852z" fill="#000"/><g filter="url(#filter9_d)"><path fill-rule="evenodd" clip-rule="evenodd" d="M310.613 211.595a3 3 0 0 1 3-3H365a3 3 0 0 1 3 3v26.792a3 3 0 0 1-3 3h-51.387a3 3 0 0 1-3-3v-26.792z" fill="#fff"/><path d="M311.113 211.595a2.5 2.5 0 0 1 2.5-2.5H365a2.5 2.5 0 0 1 2.5 2.5v26.792a2.5 2.5 0 0 1-2.5 2.5h-51.387a2.5 2.5 0 0 1-2.5-2.5v-26.792z" stroke="#B2C8CF" stroke-opacity=".3"/></g><path d="M323.912 229h5.508v-.804h-4.62c.192-1.056 1.092-1.656 2.052-2.28 1.212-.78 2.496-1.56 2.496-3.096 0-1.428-.972-2.364-2.628-2.364-1.428 0-2.436.792-2.688 1.776l.744.336c.204-.804.732-1.356 1.872-1.356 1.164 0 1.824.696 1.824 1.608 0 1.08-.972 1.716-2.016 2.424-1.212.816-2.544 1.656-2.544 3.756zm10.795 0h.84v-2.268h1.272v-.72h-1.272V220.6h-.504l-4.416 5.688v.444h4.08V229zm0-2.988h-2.988l2.988-3.96v3.96z" fill="#000"/><path d="M346.515 224.766c-.826 0-1.232-.756-1.232-1.904s.462-1.736 1.232-1.736 1.232.574 1.232 1.736c0 1.148-.42 1.904-1.232 1.904zm0 1.008c1.358 0 2.324-.994 2.324-2.926 0-1.848-1.19-2.744-2.324-2.744s-2.31.896-2.31 2.744c0 1.932.952 2.926 2.31 2.926zm6.664 3.458c-.826 0-1.232-.756-1.232-1.904s.462-1.736 1.232-1.736 1.232.574 1.232 1.736c0 1.148-.42 1.904-1.232 1.904zm0 1.008c1.358 0 2.324-.994 2.324-2.926 0-1.848-1.19-2.744-2.324-2.744s-2.31.896-2.31 2.744c0 1.932.952 2.926 2.31 2.926zm-7.322.35l.826.504 6.832-11.396-.812-.518-6.846 11.41z" fill="#B2C8CF"/><path d="M30.795 51.135h9.086v-1.32h-7.656v-5.984h7.04v-1.276h-7.04v-5.5h7.656v-1.32h-9.086v15.4zm20.391-3.564c0 1.342-1.342 2.574-3.168 2.574-2.574 0-3.85-1.87-3.85-4.84 0-2.97 1.298-4.84 3.85-4.84 2.046 0 3.168 1.65 3.168 2.992v4.114zm.176 3.564h1.254v-16.06h-1.43v5.522h-.044c-.792-.946-1.936-1.452-3.344-1.452-2.926 0-5.06 2.42-5.06 6.16s1.98 6.16 5.06 6.16c1.606 0 2.86-.704 3.52-1.452h.044v1.122zm5.385 0h1.43v-11.66h-1.43v11.66zm-.176-13.574h1.782v-1.826H56.57v1.826zm6.154 10.428c0 1.98.858 3.146 2.794 3.146h.88v-1.408h-.836c-1.166 0-1.408-.594-1.408-1.936v-6.996h2.86v-1.32h-2.86v-2.86h-1.386v2.86h-1.672v1.32h1.628v7.194zm11.98-.858c.197 2.42 1.65 4.334 4.817 4.334 3.168 0 4.334-1.716 4.334-3.344 0-1.958-.99-2.838-4.136-3.74-2.662-.77-3.256-1.056-3.256-2.156 0-.88.77-1.826 2.574-1.826 1.738 0 2.662.88 3.08 2.42l1.32-.352c-.418-1.848-1.76-3.322-4.4-3.322-2.574 0-3.938 1.518-3.938 3.08 0 1.694.99 2.552 3.916 3.344 2.86.77 3.454 1.298 3.454 2.574 0 1.144-.858 2.046-2.948 2.046s-3.146-1.1-3.388-3.278l-1.43.22zm19.021 4.004h1.32v-8.008c0-2.86-1.694-3.982-4.202-3.982-2.464 0-3.982 1.474-4.268 3.476l1.364.308c.286-1.452 1.122-2.464 2.97-2.464 1.87 0 2.596.902 2.596 1.914 0 1.298-1.584 1.672-3.454 2.156-2.86.726-3.894 1.76-3.894 3.652 0 1.782 1.21 3.278 3.828 3.278 2.002 0 3.278-.902 3.696-1.672h.044v1.342zm-3.3-5.434c2.442-.682 2.992-1.1 3.146-1.474h.044v3.212c0 1.43-1.188 2.706-3.52 2.706-1.98 0-2.508-.924-2.508-2.046 0-1.122.572-1.76 2.838-2.398zm8.361 5.434h1.43v-16.06h-1.43v16.06zm12.191 0h1.32v-8.008c0-2.86-1.694-3.982-4.202-3.982-2.464 0-3.982 1.474-4.268 3.476l1.364.308c.286-1.452 1.122-2.464 2.97-2.464 1.87 0 2.596.902 2.596 1.914 0 1.298-1.584 1.672-3.454 2.156-2.86.726-3.894 1.76-3.894 3.652 0 1.782 1.21 3.278 3.828 3.278 2.002 0 3.278-.902 3.696-1.672h.044v1.342zm-3.3-5.434c2.442-.682 2.992-1.1 3.146-1.474h.044v3.212c0 1.43-1.188 2.706-3.52 2.706-1.98 0-2.508-.924-2.508-2.046 0-1.122.572-1.76 2.838-2.398zm8.361 5.434h1.43v-7.59c0-1.914.968-2.772 2.2-2.772.682 0 .924.176.924.176l.286-1.452s-.33-.22-.99-.22c-.836 0-1.892.418-2.42 1.452h-.044v-1.254h-1.386v11.66zm8.002 4.95h1.408l6.6-16.61h-1.518l-3.388 8.954h-.044l-3.388-8.954h-1.518l4.224 10.626-2.376 5.984zm22.837-4.95h1.32v-8.008c0-2.86-1.694-3.982-4.202-3.982-2.464 0-3.982 1.474-4.268 3.476l1.364.308c.286-1.452 1.122-2.464 2.97-2.464 1.87 0 2.596.902 2.596 1.914 0 1.298-1.584 1.672-3.454 2.156-2.86.726-3.894 1.76-3.894 3.652 0 1.782 1.21 3.278 3.828 3.278 2.002 0 3.278-.902 3.696-1.672h.044v1.342zm-3.3-5.434c2.442-.682 2.992-1.1 3.146-1.474h.044v3.212c0 1.43-1.188 2.706-3.52 2.706-1.98 0-2.508-.924-2.508-2.046 0-1.122.572-1.76 2.838-2.398zm8.362 5.434h1.43v-16.06h-1.43v16.06zm5.392 0h1.43v-16.06h-1.43v16.06zm9.859-.99c-2.068 0-3.806-1.628-3.806-4.84 0-3.212 1.694-4.84 3.806-4.84 2.068 0 3.696 1.694 3.696 4.84s-1.694 4.84-3.696 4.84zm0 1.32c2.882 0 5.126-2.178 5.126-6.16s-2.398-6.16-5.126-6.16c-2.794 0-5.236 2.178-5.236 6.16s2.31 6.16 5.236 6.16zm16.105-4.708c-.22 1.584-1.144 3.388-3.322 3.388-2.332 0-3.806-1.738-3.806-4.84s1.584-4.84 3.828-4.84c2.068 0 3.036 1.584 3.3 3.212l1.408-.22c-.264-2.53-2.244-4.312-4.73-4.312-2.882 0-5.236 2.178-5.236 6.16s2.178 6.16 5.236 6.16c2.662 0 4.488-1.98 4.752-4.444l-1.43-.264zm11.299 4.378h1.32v-8.008c0-2.86-1.694-3.982-4.202-3.982-2.464 0-3.982 1.474-4.268 3.476l1.364.308c.286-1.452 1.122-2.464 2.97-2.464 1.87 0 2.596.902 2.596 1.914 0 1.298-1.584 1.672-3.454 2.156-2.86.726-3.894 1.76-3.894 3.652 0 1.782 1.21 3.278 3.828 3.278 2.002 0 3.278-.902 3.696-1.672h.044v1.342zm-3.3-5.434c2.442-.682 2.992-1.1 3.146-1.474h.044v3.212c0 1.43-1.188 2.706-3.52 2.706-1.98 0-2.508-.924-2.508-2.046 0-1.122.572-1.76 2.838-2.398zm8.78 2.288c0 1.98.858 3.146 2.794 3.146h.88v-1.408h-.836c-1.166 0-1.408-.594-1.408-1.936v-6.996h2.86v-1.32h-2.86v-2.86h-1.386v2.86h-1.672v1.32h1.628v7.194zm7.535 3.146h1.43v-11.66h-1.43v11.66zm-.176-13.574h1.782v-1.826h-1.782v1.826zm10.202 12.584c-2.068 0-3.806-1.628-3.806-4.84 0-3.212 1.694-4.84 3.806-4.84 2.068 0 3.696 1.694 3.696 4.84s-1.694 4.84-3.696 4.84zm0 1.32c2.882 0 5.126-2.178 5.126-6.16s-2.398-6.16-5.126-6.16c-2.794 0-5.236 2.178-5.236 6.16s2.31 6.16 5.236 6.16zm8.318-.33h1.43V43.59c0-2.002 1.43-3.124 3.344-3.124s2.97 1.21 2.97 3.542v7.128h1.43V43.48c0-2.706-1.826-4.334-4.312-4.334-1.364 0-2.772.616-3.388 1.452h-.044v-1.122h-1.43v11.66z" fill="#000"/><path fill-rule="evenodd" clip-rule="evenodd" d="M376 20.014L372.014 24 376 27.986 374.986 29 371 25.014 367.014 29 366 27.986 369.986 24 366 20.014 367.014 19 371 22.986 374.986 19 376 20.014z" fill="#A2B7BE"/><path fill-rule="evenodd" clip-rule="evenodd" d="M29 311a3 3 0 0 1 3-3h334a3 3 0 0 1 3 3v36a3 3 0 0 1-3 3H32a3 3 0 0 1-3-3v-36z" fill="url(#paint0_linear)"/><path d="M115.514 335.18c-.93 0-1.735-.225-2.415-.675a3.536 3.536 0 0 1-1.41-1.875l1.47-.54c.22.49.54.88.96 1.17.42.28.905.42 1.455.42.58 0 1.04-.14 1.38-.42.35-.28.525-.68.525-1.2 0-.22-.05-.42-.15-.6a1.648 1.648 0 0 0-.315-.465c-.12-.12-.305-.24-.555-.36-.25-.13-.46-.225-.63-.285-.16-.07-.4-.16-.72-.27-.4-.14-.7-.25-.9-.33-.2-.08-.465-.21-.795-.39a3.41 3.41 0 0 1-.735-.555 2.972 2.972 0 0 1-.435-.735c-.13-.3-.195-.635-.195-1.005 0-.77.3-1.42.9-1.95.6-.53 1.415-.795 2.445-.795.86 0 1.565.19 2.115.57.56.38.935.885 1.125 1.515l-1.44.48a1.625 1.625 0 0 0-.705-.765c-.32-.2-.725-.3-1.215-.3-.5 0-.895.11-1.185.33-.28.22-.42.53-.42.93 0 .27.11.51.33.72.22.21.45.365.69.465.24.1.605.235 1.095.405.3.11.52.195.66.255.15.05.365.14.645.27s.495.25.645.36c.15.1.325.24.525.42s.35.365.45.555c.11.18.2.405.27.675.08.26.12.54.12.84 0 .98-.335 1.75-1.005 2.31-.67.55-1.53.825-2.58.825zm10.268-.18v-.735c-.48.61-1.14.915-1.98.915-1.84 0-2.76-1.09-2.76-3.27v-4.575h1.56v4.575c0 .61.14 1.065.42 1.365.28.29.65.435 1.11.435 1.1 0 1.65-.59 1.65-1.77v-4.605h1.56V335h-1.56zm7.191.18c-.73 0-1.335-.265-1.815-.795V335h-1.56v-10.11l1.56-.72v3.75c.46-.51 1.065-.765 1.815-.765.95 0 1.715.36 2.295 1.08.59.71.885 1.685.885 2.925 0 1.28-.285 2.27-.855 2.97-.56.7-1.335 1.05-2.325 1.05zm-.195-1.47c.58 0 1.025-.225 1.335-.675.32-.46.48-1.085.48-1.875 0-.82-.155-1.445-.465-1.875-.31-.44-.76-.66-1.35-.66-.36 0-.685.09-.975.27-.29.17-.505.37-.645.6v3.345c.36.58.9.87 1.62.87zm14.243 1.29v-4.59c0-1.19-.47-1.785-1.41-1.785-.44 0-.805.165-1.095.495-.29.32-.435.775-.435 1.365V335h-1.56v-4.59c0-1.19-.47-1.785-1.41-1.785-.44 0-.805.165-1.095.495-.29.32-.435.775-.435 1.365V335h-1.56v-7.665h1.56v.705c.41-.59 1.055-.885 1.935-.885.95 0 1.63.365 2.04 1.095.47-.73 1.225-1.095 2.265-1.095.83 0 1.495.24 1.995.72.51.48.765 1.205.765 2.175V335h-1.56zm5.184-9.135c-.18.18-.4.27-.66.27a.948.948 0 0 1-.675-.27.948.948 0 0 1-.27-.675c0-.26.09-.48.27-.66a.923.923 0 0 1 .675-.285c.26 0 .48.095.66.285.19.18.285.4.285.66s-.095.485-.285.675zm-1.44 9.135v-7.665h1.56V335h-1.56zm6.043.18c-1.14 0-1.71-.635-1.71-1.905v-4.59h-1.185v-1.35h1.185v-2.415l1.56-.75v3.165h1.815v1.35h-1.815v4.185c0 .58.25.87.75.87.37 0 .75-.12 1.14-.36l-.195 1.455c-.46.23-.975.345-1.545.345zm9.437 0c-.6 0-1.165-.11-1.695-.33-.53-.23-.93-.535-1.2-.915l1.11-.945c.55.52 1.135.78 1.755.78.9 0 1.35-.275 1.35-.825 0-.19-.085-.365-.255-.525-.17-.16-.34-.275-.51-.345-.17-.08-.445-.195-.825-.345-.84-.28-1.46-.61-1.86-.99-.39-.38-.585-.87-.585-1.47 0-.66.25-1.175.75-1.545.51-.38 1.15-.57 1.92-.57 1.15 0 2.045.385 2.685 1.155l-1.125.9c-.41-.43-.93-.645-1.56-.645-.33 0-.595.065-.795.195a.57.57 0 0 0-.285.51c0 .23.115.42.345.57.24.14.62.31 1.14.51.87.29 1.505.63 1.905 1.02.41.39.615.915.615 1.575 0 .72-.26 1.275-.78 1.665-.51.38-1.21.57-2.1.57zm8.155 0c-.78 0-1.395-.28-1.845-.84v2.955l-1.56.72v-10.68h1.56v.615c.48-.53 1.095-.795 1.845-.795.97 0 1.735.36 2.295 1.08.57.71.855 1.69.855 2.94 0 1.24-.29 2.22-.87 2.94-.57.71-1.33 1.065-2.28 1.065zm-.225-1.47c.59 0 1.04-.215 1.35-.645.31-.44.465-1.07.465-1.89 0-.76-.16-1.375-.48-1.845-.32-.47-.765-.705-1.335-.705-.72 0-1.26.29-1.62.87v3.33c.44.59.98.885 1.62.885zm5.317 1.29v-10.095l1.56-.735V335h-1.56zm5.336-9.135c-.18.18-.4.27-.66.27a.948.948 0 0 1-.675-.27.948.948 0 0 1-.27-.675c0-.26.09-.48.27-.66a.923.923 0 0 1 .675-.285c.26 0 .48.095.66.285.19.18.285.4.285.66s-.095.485-.285.675zm-1.44 9.135v-7.665h1.56V335h-1.56zm6.042.18c-1.14 0-1.71-.635-1.71-1.905v-4.59h-1.185v-1.35h1.185v-2.415l1.56-.75v3.165h1.815v1.35h-1.815v4.185c0 .58.25.87.75.87.37 0 .75-.12 1.14-.36l-.195 1.455c-.46.23-.975.345-1.545.345zm10.038 0c-1.03 0-1.845-.355-2.445-1.065-.6-.71-.9-1.69-.9-2.94s.3-2.23.9-2.94c.6-.72 1.415-1.08 2.445-1.08 1.49 0 2.455.66 2.895 1.98l-1.485.51c-.25-.66-.7-.99-1.35-.99-.58 0-1.03.225-1.35.675-.31.44-.465 1.055-.465 1.845 0 .78.155 1.395.465 1.845.31.44.74.66 1.29.66.74 0 1.22-.375 1.44-1.125l1.485.465c-.41 1.44-1.385 2.16-2.925 2.16zm10.478-1.065c-.63.71-1.485 1.065-2.565 1.065-1.08 0-1.935-.355-2.565-1.065-.62-.71-.93-1.69-.93-2.94s.31-2.23.93-2.94c.63-.72 1.485-1.08 2.565-1.08 1.08 0 1.935.36 2.565 1.08.63.71.945 1.69.945 2.94s-.315 2.23-.945 2.94zm-2.565-.405c.6 0 1.075-.225 1.425-.675.35-.45.525-1.07.525-1.86s-.175-1.41-.525-1.86c-.35-.46-.825-.69-1.425-.69-.59 0-1.06.23-1.41.69-.35.45-.525 1.07-.525 1.86 0 .78.175 1.4.525 1.86.35.45.82.675 1.41.675zm10.131 1.29v-4.575c0-.61-.14-1.06-.42-1.35-.28-.3-.65-.45-1.11-.45-1.1 0-1.65.59-1.65 1.77V335h-1.56v-7.665h1.56v.735c.48-.61 1.14-.915 1.98-.915 1.84 0 2.76 1.09 2.76 3.27V335h-1.56zm10.221-9.135c-.18.18-.4.27-.66.27a.948.948 0 0 1-.675-.27.948.948 0 0 1-.27-.675c0-.26.09-.48.27-.66a.923.923 0 0 1 .675-.285c.26 0 .48.095.66.285.19.18.285.4.285.66s-.095.485-.285.675zm-4.38 2.82V335h-1.56v-6.315h-1.14v-1.35h1.14v-1.23c0-.65.165-1.11.495-1.38.33-.27.75-.405 1.26-.405.54 0 1.05.12 1.53.36v1.29c-.43-.18-.795-.27-1.095-.27-.42 0-.63.23-.63.69v.945h1.725v1.35h-1.725zm2.94 6.315v-7.665h1.56V335h-1.56zm6.388 3l-.78-1.2c1.06-.06 1.795-.24 2.205-.54.42-.29.63-.69.63-1.2v-.675c-.43.53-1.045.795-1.845.795-.92 0-1.675-.345-2.265-1.035-.59-.7-.885-1.695-.885-2.985 0-1.24.29-2.215.87-2.925.59-.72 1.36-1.08 2.31-1.08.75 0 1.355.24 1.815.72v-.54h1.56v7.17c0 1.18-.295 2.035-.885 2.565-.59.53-1.5.84-2.73.93zm.495-4.29c.68 0 1.2-.3 1.56-.9v-3.315c-.16-.26-.385-.47-.675-.63-.28-.16-.575-.24-.885-.24-.61 0-1.075.22-1.395.66-.32.43-.48 1.055-.48 1.875 0 .78.165 1.4.495 1.86.34.46.8.69 1.38.69zm10.028 1.29v-.735c-.48.61-1.14.915-1.98.915-1.84 0-2.76-1.09-2.76-3.27v-4.575h1.56v4.575c0 .61.14 1.065.42 1.365.28.29.65.435 1.11.435 1.1 0 1.65-.59 1.65-1.77v-4.605h1.56V335h-1.56zm3.816 0v-7.665h1.56v.93c.34-.74.91-1.11 1.71-1.11.5 0 .93.155 1.29.465l-.225 1.44a2.125 2.125 0 0 0-1.215-.375c-.42 0-.785.16-1.095.48-.31.31-.465.82-.465 1.53V335h-1.56zm10.049 0v-.66c-.54.56-1.24.84-2.1.84-.81 0-1.47-.22-1.98-.66-.5-.45-.75-1.085-.75-1.905 0-.83.285-1.46.855-1.89.57-.43 1.265-.645 2.085-.645.75 0 1.38.15 1.89.45v-.42c0-.57-.13-.975-.39-1.215-.26-.24-.675-.36-1.245-.36-.84 0-1.57.23-2.19.69l-.465-1.275c.77-.53 1.725-.795 2.865-.795.38 0 .72.035 1.02.105.3.06.605.185.915.375.31.18.55.475.72.885.18.41.27.915.27 1.515V335h-1.5zm-1.815-1.2c.72 0 1.325-.275 1.815-.825v-1.17c-.47-.25-1.015-.375-1.635-.375-.5 0-.91.1-1.23.3-.31.19-.465.485-.465.885 0 .37.13.66.39.87.26.21.635.315 1.125.315zm7.638 1.38c-1.14 0-1.71-.635-1.71-1.905v-4.59h-1.185v-1.35h1.185v-2.415l1.56-.75v3.165h1.815v1.35h-1.815v4.185c0 .58.25.87.75.87.37 0 .75-.12 1.14-.36l-.195 1.455c-.46.23-.975.345-1.545.345zm4.919-9.315c-.18.18-.4.27-.66.27a.948.948 0 0 1-.675-.27.948.948 0 0 1-.27-.675c0-.26.09-.48.27-.66a.923.923 0 0 1 .675-.285c.26 0 .48.095.66.285.19.18.285.4.285.66s-.095.485-.285.675zm-1.44 9.135v-7.665h1.56V335h-1.56zm9.508-.885c-.63.71-1.485 1.065-2.565 1.065-1.08 0-1.935-.355-2.565-1.065-.62-.71-.93-1.69-.93-2.94s.31-2.23.93-2.94c.63-.72 1.485-1.08 2.565-1.08 1.08 0 1.935.36 2.565 1.08.63.71.945 1.69.945 2.94s-.315 2.23-.945 2.94zm-2.565-.405c.6 0 1.075-.225 1.425-.675.35-.45.525-1.07.525-1.86s-.175-1.41-.525-1.86c-.35-.46-.825-.69-1.425-.69-.59 0-1.06.23-1.41.69-.35.45-.525 1.07-.525 1.86 0 .78.175 1.4.525 1.86.35.45.82.675 1.41.675zm10.131 1.29v-4.575c0-.61-.14-1.06-.42-1.35-.28-.3-.65-.45-1.11-.45-1.1 0-1.65.59-1.65 1.77V335h-1.56v-7.665h1.56v.735c.48-.61 1.14-.915 1.98-.915 1.84 0 2.76 1.09 2.76 3.27V335h-1.56z" fill="#fff"/><defs><filter id="filter0_d" x="0" y="0" width="398.234" height="372" filterUnits="userSpaceOnUse" color-interpolation-filters="sRGB"><feFlood flood-opacity="0" result="BackgroundImageFix"/><feColorMatrix in="SourceAlpha" values="0 0 0 0 0 0 0 0 0 0 0 0 0 0 0 0 0 0 127 0"/><feOffset dy="2"/><feGaussianBlur stdDeviation="2"/><feColorMatrix values="0 0 0 0 0 0 0 0 0 0 0 0 0 0 0 0 0 0 0.1 0"/><feBlend in2="BackgroundImageFix" result="effect1_dropShadow"/><feBlend in="SourceGraphic" in2="effect1_dropShadow" result="shape"/></filter><filter id="filter1_d" x="209.723" y="101.669" width="36.176" height="36.176" filterUnits="userSpaceOnUse" color-interpolation-filters="sRGB"><feFlood flood-opacity="0" result="BackgroundImageFix"/><feColorMatrix in="SourceAlpha" values="0 0 0 0 0 0 0 0 0 0 0 0 0 0 0 0 0 0 127 0"/><feOffset dy="4"/><feGaussianBlur stdDeviation="4"/><feColorMatrix values="0 0 0 0 0 0 0 0 0 0 0 0 0 0 0 0 0 0 0.133379 0"/><feBlend in2="BackgroundImageFix" result="effect1_dropShadow"/><feBlend in="SourceGraphic" in2="effect1_dropShadow" result="shape"/></filter><filter id="filter2_d" x="24.595" y="98.54" width="65.387" height="40.793" filterUnits="userSpaceOnUse" color-interpolation-filters="sRGB"><feFlood flood-opacity="0" result="BackgroundImageFix"/><feColorMatrix in="SourceAlpha" values="0 0 0 0 0 0 0 0 0 0 0 0 0 0 0 0 0 0 127 0"/><feOffset dy="4"/><feGaussianBlur stdDeviation="2"/><feColorMatrix values="0 0 0 0 0 0 0 0 0 0 0 0 0 0 0 0 0 0 0.03 0"/><feBlend in2="BackgroundImageFix" result="effect1_dropShadow"/><feBlend in="SourceGraphic" in2="effect1_dropShadow" result="shape"/></filter><filter id="filter3_d" x="306.613" y="98.54" width="65.387" height="40.793" filterUnits="userSpaceOnUse" color-interpolation-filters="sRGB"><feFlood flood-opacity="0" result="BackgroundImageFix"/><feColorMatrix in="SourceAlpha" values="0 0 0 0 0 0 0 0 0 0 0 0 0 0 0 0 0 0 127 0"/><feOffset dy="4"/><feGaussianBlur stdDeviation="2"/><feColorMatrix values="0 0 0 0 0 0 0 0 0 0 0 0 0 0 0 0 0 0 0.03 0"/><feBlend in2="BackgroundImageFix" result="effect1_dropShadow"/><feBlend in="SourceGraphic" in2="effect1_dropShadow" result="shape"/></filter><filter id="filter4_d" x="157.255" y="156.696" width="36.176" height="36.176" filterUnits="userSpaceOnUse" color-interpolation-filters="sRGB"><feFlood flood-opacity="0" result="BackgroundImageFix"/><feColorMatrix in="SourceAlpha" values="0 0 0 0 0 0 0 0 0 0 0 0 0 0 0 0 0 0 127 0"/><feOffset dy="4"/><feGaussianBlur stdDeviation="4"/><feColorMatrix values="0 0 0 0 0 0 0 0 0 0 0 0 0 0 0 0 0 0 0.133379 0"/><feBlend in2="BackgroundImageFix" result="effect1_dropShadow"/><feBlend in="SourceGraphic" in2="effect1_dropShadow" result="shape"/></filter><filter id="filter5_d" x="24.595" y="153.568" width="65.387" height="40.793" filterUnits="userSpaceOnUse" color-interpolation-filters="sRGB"><feFlood flood-opacity="0" result="BackgroundImageFix"/><feColorMatrix in="SourceAlpha" values="0 0 0 0 0 0 0 0 0 0 0 0 0 0 0 0 0 0 127 0"/><feOffset dy="4"/><feGaussianBlur stdDeviation="2"/><feColorMatrix values="0 0 0 0 0 0 0 0 0 0 0 0 0 0 0 0 0 0 0.03 0"/><feBlend in2="BackgroundImageFix" result="effect1_dropShadow"/><feBlend in="SourceGraphic" in2="effect1_dropShadow" result="shape"/></filter><filter id="filter6_d" x="306.613" y="153.568" width="65.387" height="40.793" filterUnits="userSpaceOnUse" color-interpolation-filters="sRGB"><feFlood flood-opacity="0" result="BackgroundImageFix"/><feColorMatrix in="SourceAlpha" values="0 0 0 0 0 0 0 0 0 0 0 0 0 0 0 0 0 0 127 0"/><feOffset dy="4"/><feGaussianBlur stdDeviation="2"/><feColorMatrix values="0 0 0 0 0 0 0 0 0 0 0 0 0 0 0 0 0 0 0.03 0"/><feBlend in2="BackgroundImageFix" result="effect1_dropShadow"/><feBlend in="SourceGraphic" in2="effect1_dropShadow" result="shape"/></filter><filter id="filter7_d" x="149.056" y="211.723" width="36.176" height="36.176" filterUnits="userSpaceOnUse" color-interpolation-filters="sRGB"><feFlood flood-opacity="0" result="BackgroundImageFix"/><feColorMatrix in="SourceAlpha" values="0 0 0 0 0 0 0 0 0 0 0 0 0 0 0 0 0 0 127 0"/><feOffset dy="4"/><feGaussianBlur stdDeviation="4"/><feColorMatrix values="0 0 0 0 0 0 0 0 0 0 0 0 0 0 0 0 0 0 0.133379 0"/><feBlend in2="BackgroundImageFix" result="effect1_dropShadow"/><feBlend in="SourceGraphic" in2="effect1_dropShadow" result="shape"/></filter><filter id="filter8_d" x="24.595" y="208.595" width="65.387" height="40.793" filterUnits="userSpaceOnUse" color-interpolation-filters="sRGB"><feFlood flood-opacity="0" result="BackgroundImageFix"/><feColorMatrix in="SourceAlpha" values="0 0 0 0 0 0 0 0 0 0 0 0 0 0 0 0 0 0 127 0"/><feOffset dy="4"/><feGaussianBlur stdDeviation="2"/><feColorMatrix values="0 0 0 0 0 0 0 0 0 0 0 0 0 0 0 0 0 0 0.03 0"/><feBlend in2="BackgroundImageFix" result="effect1_dropShadow"/><feBlend in="SourceGraphic" in2="effect1_dropShadow" result="shape"/></filter><filter id="filter9_d" x="306.613" y="208.595" width="65.387" height="40.793" filterUnits="userSpaceOnUse" color-interpolation-filters="sRGB"><feFlood flood-opacity="0" result="BackgroundImageFix"/><feColorMatrix in="SourceAlpha" values="0 0 0 0 0 0 0 0 0 0 0 0 0 0 0 0 0 0 127 0"/><feOffset dy="4"/><feGaussianBlur stdDeviation="2"/><feColorMatrix values="0 0 0 0 0 0 0 0 0 0 0 0 0 0 0 0 0 0 0.03 0"/><feBlend in2="BackgroundImageFix" result="effect1_dropShadow"/><feBlend in="SourceGraphic" in2="effect1_dropShadow" result="shape"/></filter><linearGradient id="paint0_linear" x1="-137.526" y1="329.303" x2="-129.032" y2="415.977" gradientUnits="userSpaceOnUse"><stop stop-color="#00C7E4"/><stop offset="1" stop-color="#00EFE2"/><stop offset="1" stop-color="#00EFE2"/></linearGradient></defs></svg>