<svg width="490" height="321" fill="none" xmlns="http://www.w3.org/2000/svg"><g opacity=".8" filter="url(#filter0_f)"><g filter="url(#filter1_d)"><path fill-rule="evenodd" clip-rule="evenodd" d="M308 56a6 6 0 0 1 6-6h159.214a6 6 0 0 1 6 6v221a6 6 0 0 1-6 6H314a6 6 0 0 1-6-6V56z" fill="#fff"/></g><path d="M335.347 237.614a2.5 2.5 0 0 1 2.5-2.5h115.242a2.5 2.5 0 0 1 2.5 2.5v20.942a2.5 2.5 0 0 1-2.5 2.5H337.847a2.5 2.5 0 0 1-2.5-2.5v-20.942z" stroke="#E6E6E6"/><path d="M366.612 251.802h-1.144l-2.638-7.702h1.23l1.751 5.371c.032.104.07.233.113.387.047.15.09.315.129.494.039-.179.081-.344.123-.494l.119-.387 1.729-5.371h1.219l-2.631 7.702zm3.91 0v-5.624h1.144v5.624h-1.144zm.569-6.499a.701.701 0 0 1-.494-.199.701.701 0 0 1-.145-.762.679.679 0 0 1 .639-.425.666.666 0 0 1 .489.204.646.646 0 0 1 .15.221.701.701 0 0 1 0 .542.674.674 0 0 1-.37.365.666.666 0 0 1-.269.054zm4.512 6.633a2.71 2.71 0 0 1-1.058-.198 2.268 2.268 0 0 1-.806-.581 2.678 2.678 0 0 1-.516-.929 4.027 4.027 0 0 1-.177-1.24c0-.462.061-.874.183-1.236.121-.365.293-.673.515-.924a2.25 2.25 0 0 1 .806-.58 2.7 2.7 0 0 1 1.053-.198c.333 0 .644.053.934.161.294.104.55.265.768.483.222.215.396.487.521.816.129.33.194.718.194 1.166 0 .122-.004.251-.011.387a2.44 2.44 0 0 1-.032.354h-3.787c.004.233.045.442.124.629a1.467 1.467 0 0 0 .773.773c.168.068.344.102.527.102.232 0 .447-.048.644-.145.201-.097.374-.238.521-.424l.747.768a2.28 2.28 0 0 1-.785.591c-.318.15-.698.225-1.138.225zm0-4.877c-.179 0-.351.027-.516.081-.165.05-.311.132-.44.247a1.285 1.285 0 0 0-.312.44 1.872 1.872 0 0 0-.145.666h2.686a1.891 1.891 0 0 0-.124-.666 1.203 1.203 0 0 0-.295-.44 1.094 1.094 0 0 0-.408-.247 1.286 1.286 0 0 0-.446-.081zm9.018 4.743h-1.015l-.935-3.266a5.286 5.286 0 0 0-.059-.198 7.197 7.197 0 0 0-.054-.194 3.314 3.314 0 0 0-.043-.177 1.47 1.47 0 0 1-.021-.134l-.027.139a2.201 2.201 0 0 1-.032.178 7.106 7.106 0 0 1-.102.397l-.924 3.255h-1.015l-1.493-5.624h1.122l.79 3.502c.028.122.05.23.064.323l.049.247c.01-.075.025-.161.042-.258.022-.097.047-.201.076-.312l.934-3.502h1.058l.935 3.502c.029.111.052.215.07.312.021.097.037.183.048.258a7.864 7.864 0 0 1 .113-.57l.789-3.502h1.123l-1.493 5.624zm7.305.134c-.355 0-.677-.066-.967-.198a2.106 2.106 0 0 1-.736-.581 2.73 2.73 0 0 1-.473-.929 4.411 4.411 0 0 1-.161-1.24c0-.462.057-.874.172-1.236.115-.365.274-.673.478-.924.208-.254.455-.447.741-.58.287-.132.602-.198.946-.198.307 0 .569.05.784.15.218.1.399.226.542.376v-2.186l1.144-.532v7.944h-1.144v-.397c-.15.168-.331.299-.542.392-.208.093-.469.139-.784.139zm.161-1.079c.257 0 .485-.056.682-.167.197-.111.358-.268.483-.472v-2.477a1.193 1.193 0 0 0-.43-.408 1.265 1.265 0 0 0-.333-.145 1.31 1.31 0 0 0-.402-.059c-.43 0-.763.159-.999.478-.237.315-.355.775-.355 1.381 0 .272.031.522.091.752.065.225.154.422.269.59.118.165.26.294.424.387.169.093.358.14.57.14zm6.246 1.079c-.39 0-.743-.066-1.058-.198a2.268 2.268 0 0 1-.806-.581 2.676 2.676 0 0 1-.515-.929 4.027 4.027 0 0 1-.177-1.24c0-.462.06-.874.182-1.236.122-.365.294-.673.516-.924.225-.254.494-.447.805-.58a2.707 2.707 0 0 1 1.053-.198c.333 0 .645.053.935.161.293.104.549.265.768.483.222.215.396.487.521.816.129.33.193.718.193 1.166 0 .122-.003.251-.011.387a2.308 2.308 0 0 1-.032.354h-3.786c.003.233.044.442.123.629.083.182.19.34.322.472.133.129.283.229.452.301.168.068.343.102.526.102.233 0 .448-.048.645-.145.2-.097.374-.238.52-.424l.747.768c-.204.243-.465.44-.784.591-.319.15-.698.225-1.139.225zm0-4.877c-.179 0-.351.027-.515.081a1.16 1.16 0 0 0-.441.247 1.283 1.283 0 0 0-.311.44 1.85 1.85 0 0 0-.145.666h2.685a1.893 1.893 0 0 0-.123-.666 1.217 1.217 0 0 0-.296-.44 1.094 1.094 0 0 0-.408-.247 1.282 1.282 0 0 0-.446-.081zm5.366 4.877c-.222 0-.414-.034-.575-.102a1.004 1.004 0 0 1-.392-.279 1.161 1.161 0 0 1-.22-.44 2.246 2.246 0 0 1-.07-.581v-3.362h-.87v-.994h.87v-1.767l1.144-.553v2.32h1.332v.994h-1.332v3.067c0 .093.007.179.022.258a.571.571 0 0 0 .086.204c.043.057.1.102.171.134a.74.74 0 0 0 .274.043c.273 0 .55-.088.833-.263l-.14 1.063a2.454 2.454 0 0 1-1.133.258zm6.848-.134h-1.096v-.483c-.071.075-.157.15-.257.225a2.238 2.238 0 0 1-.344.199 2.22 2.22 0 0 1-.94.193c-.287 0-.552-.039-.795-.118a1.78 1.78 0 0 1-.634-.354 1.742 1.742 0 0 1-.424-.591c-.1-.237-.151-.51-.151-.822 0-.322.061-.6.183-.832.122-.237.283-.43.483-.581.201-.154.43-.266.688-.338.261-.072.53-.107.806-.107a3.1 3.1 0 0 1 .741.086c.24.053.455.136.644.247v-.312c0-.211-.025-.39-.075-.537a.811.811 0 0 0-.591-.553 1.963 1.963 0 0 0-.537-.065c-.351 0-.655.047-.913.14a2.742 2.742 0 0 0-.693.371l-.338-.94a3.446 3.446 0 0 1 1.445-.532c.204-.032.422-.048.655-.048.158 0 .321.009.489.026.168.018.331.054.489.108.161.05.311.123.451.22.143.097.267.224.37.381.108.154.192.344.253.57.061.225.091.494.091.805v3.642zm-2.428-.881c.29 0 .546-.059.768-.177.226-.118.414-.26.564-.424v-.86a2.429 2.429 0 0 0-.553-.199 2.811 2.811 0 0 0-.65-.075c-.172 0-.333.016-.483.049a1.239 1.239 0 0 0-.398.155.761.761 0 0 0-.263.269.752.752 0 0 0-.096.392c0 .269.093.482.279.639.19.154.467.231.832.231zm3.986.881v-5.624h1.144v5.624h-1.144zm.569-6.499a.701.701 0 0 1-.494-.199.701.701 0 0 1-.145-.762.679.679 0 0 1 .639-.425.666.666 0 0 1 .489.204.646.646 0 0 1 .15.221.701.701 0 0 1 0 .542.674.674 0 0 1-.37.365.666.666 0 0 1-.269.054zm2.288 6.499v-7.401l1.144-.543v7.944h-1.144zm4.592.134a3.24 3.24 0 0 1-1.246-.247 2.526 2.526 0 0 1-.499-.284 1.786 1.786 0 0 1-.376-.382l.811-.693c.057.054.127.115.209.183a1.973 1.973 0 0 0 .645.328c.132.039.277.059.435.059.143 0 .276-.011.397-.033.122-.021.226-.055.312-.102a.511.511 0 0 0 .204-.182.532.532 0 0 0 .075-.29.461.461 0 0 0-.139-.339 1.275 1.275 0 0 0-.355-.257 3.838 3.838 0 0 0-.499-.221 18.374 18.374 0 0 1-.564-.225 6.786 6.786 0 0 1-.516-.247 2.051 2.051 0 0 1-.451-.323 1.543 1.543 0 0 1-.317-.445 1.54 1.54 0 0 1-.118-.634c0-.251.05-.473.15-.666.104-.194.244-.355.419-.484.179-.132.387-.232.623-.3.24-.068.496-.102.768-.102.24 0 .46.023.661.069.204.047.387.11.548.188a2.351 2.351 0 0 1 .762.591l-.827.655a1.678 1.678 0 0 0-.182-.155 1.172 1.172 0 0 0-.242-.156 1.492 1.492 0 0 0-.317-.113 1.541 1.541 0 0 0-.403-.048c-.243 0-.437.045-.58.134a.432.432 0 0 0-.209.387c0 .107.037.202.112.284.076.079.178.153.307.221.128.068.275.134.44.198.168.061.344.128.526.199.194.075.384.159.57.253.186.093.351.207.494.343.147.136.263.301.349.494.09.194.134.427.134.699 0 .268-.05.506-.15.714-.1.204-.244.376-.43.516a1.895 1.895 0 0 1-.666.306 3.257 3.257 0 0 1-.865.107z" fill="#707070"/><path opacity=".75" d="M359.161 135v-9.1h3.653c1.032 0 1.79.269 2.275.806.486.537.728 1.196.728 1.976 0 .728-.251 1.374-.754 1.937-.502.563-1.252.845-2.249.845h-2.301V135h-1.352zm3.731-4.836c.52 0 .902-.143 1.144-.429.252-.295.377-.646.377-1.053 0-.39-.121-.732-.364-1.027-.234-.303-.619-.455-1.157-.455h-2.379v2.964h2.379zm6.586 4.992c-.928 0-1.664-.308-2.21-.923-.538-.624-.806-1.478-.806-2.561s.273-1.933.819-2.548c.546-.615 1.278-.923 2.197-.923.832 0 1.516.264 2.054.793.537.529.806 1.3.806 2.314 0 .373-.018.663-.052.871h-4.472c.008.529.177.958.507 1.287.338.329.728.494 1.17.494.572 0 1.031-.225 1.378-.676l.884.91c-.538.641-1.296.962-2.275.962zm-1.664-4.069h3.172c-.009-.572-.161-.997-.455-1.274a1.486 1.486 0 0 0-1.053-.416c-.46 0-.845.139-1.157.416-.304.269-.473.693-.507 1.274zm6.082 3.913v-6.643h1.352v.806c.295-.641.789-.962 1.482-.962.433 0 .806.134 1.118.403l-.195 1.248a1.841 1.841 0 0 0-1.053-.325c-.364 0-.68.139-.949.416-.269.269-.403.711-.403 1.326V135h-1.352zm12.967 0v-3.978c0-1.031-.407-1.547-1.222-1.547a1.21 1.21 0 0 0-.949.429c-.251.277-.377.672-.377 1.183V135h-1.352v-3.978c0-1.031-.407-1.547-1.222-1.547a1.21 1.21 0 0 0-.949.429c-.251.277-.377.672-.377 1.183V135h-1.352v-6.643h1.352v.611c.355-.511.914-.767 1.677-.767.823 0 1.413.316 1.768.949.407-.633 1.062-.949 1.963-.949.719 0 1.296.208 1.729.624.442.416.663 1.044.663 1.885V135h-1.352zm4.493-7.917a.779.779 0 0 1-.572.234.823.823 0 0 1-.585-.234.823.823 0 0 1-.234-.585c0-.225.078-.416.234-.572a.8.8 0 0 1 .585-.247c.225 0 .416.082.572.247a.757.757 0 0 1 .247.572.8.8 0 0 1-.247.585zM390.108 135v-6.643h1.352V135h-1.352zm5.367.156a3.79 3.79 0 0 1-1.469-.286c-.459-.199-.806-.464-1.04-.793l.962-.819c.477.451.984.676 1.521.676.78 0 1.17-.238 1.17-.715 0-.165-.073-.316-.221-.455a1.464 1.464 0 0 0-.442-.299 13.495 13.495 0 0 0-.715-.299c-.728-.243-1.265-.529-1.612-.858-.338-.329-.507-.754-.507-1.274 0-.572.217-1.018.65-1.339.442-.329.997-.494 1.664-.494.997 0 1.773.334 2.327 1.001l-.975.78c-.355-.373-.806-.559-1.352-.559-.286 0-.515.056-.689.169a.495.495 0 0 0-.247.442c0 .199.1.364.299.494.208.121.538.269.988.442.754.251 1.305.546 1.651.884.356.338.533.793.533 1.365 0 .624-.225 1.105-.676 1.443-.442.329-1.048.494-1.82.494zm6.17 0a3.79 3.79 0 0 1-1.469-.286c-.459-.199-.806-.464-1.04-.793l.962-.819c.477.451.984.676 1.521.676.78 0 1.17-.238 1.17-.715 0-.165-.073-.316-.221-.455a1.464 1.464 0 0 0-.442-.299 13.495 13.495 0 0 0-.715-.299c-.728-.243-1.265-.529-1.612-.858-.338-.329-.507-.754-.507-1.274 0-.572.217-1.018.65-1.339.442-.329.997-.494 1.664-.494.997 0 1.773.334 2.327 1.001l-.975.78c-.355-.373-.806-.559-1.352-.559-.286 0-.515.056-.689.169a.495.495 0 0 0-.247.442c0 .199.1.364.299.494.208.121.538.269.988.442.754.251 1.305.546 1.651.884.356.338.533.793.533 1.365 0 .624-.225 1.105-.676 1.443-.442.329-1.048.494-1.82.494zm5.377-8.073a.779.779 0 0 1-.572.234.823.823 0 0 1-.585-.234.823.823 0 0 1-.234-.585c0-.225.078-.416.234-.572a.8.8 0 0 1 .585-.247c.225 0 .416.082.572.247a.757.757 0 0 1 .247.572.8.8 0 0 1-.247.585zM405.774 135v-6.643h1.352V135h-1.352zm8.24-.767c-.546.615-1.287.923-2.223.923-.936 0-1.677-.308-2.223-.923-.537-.615-.806-1.465-.806-2.548s.269-1.933.806-2.548c.546-.624 1.287-.936 2.223-.936.936 0 1.677.312 2.223.936.546.615.819 1.465.819 2.548s-.273 1.933-.819 2.548zm-2.223-.351c.52 0 .932-.195 1.235-.585.304-.39.455-.927.455-1.612s-.151-1.222-.455-1.612c-.303-.399-.715-.598-1.235-.598-.511 0-.918.199-1.222.598-.303.39-.455.927-.455 1.612 0 .676.152 1.213.455 1.612.304.39.711.585 1.222.585zm8.78 1.118v-3.965c0-.529-.121-.919-.364-1.17-.242-.26-.563-.39-.962-.39-.953 0-1.43.511-1.43 1.534V135h-1.352v-6.643h1.352v.637c.416-.529.988-.793 1.716-.793 1.595 0 2.392.945 2.392 2.834V135h-1.352zm5.297.156c-.52 0-1.01-.095-1.469-.286-.459-.199-.806-.464-1.04-.793l.962-.819c.477.451.984.676 1.521.676.78 0 1.17-.238 1.17-.715 0-.165-.074-.316-.221-.455a1.476 1.476 0 0 0-.442-.299 13.873 13.873 0 0 0-.715-.299c-.728-.243-1.265-.529-1.612-.858-.338-.329-.507-.754-.507-1.274 0-.572.217-1.018.65-1.339.442-.329.997-.494 1.664-.494.997 0 1.772.334 2.327 1.001l-.975.78c-.355-.373-.806-.559-1.352-.559-.286 0-.516.056-.689.169a.493.493 0 0 0-.247.442c0 .199.1.364.299.494.208.121.537.269.988.442.754.251 1.304.546 1.651.884.355.338.533.793.533 1.365 0 .624-.225 1.105-.676 1.443-.442.329-1.049.494-1.82.494z" fill="#000"/><rect x="373.508" y="68.61" width="41.687" height="41.687" rx="9" fill="url(#paint0_linear)"/><g filter="url(#filter2_d)"><path fill-rule="evenodd" clip-rule="evenodd" d="M404.391 97.491h-.805v-1.35a.39.39 0 0 0-.382-.396h-1.296l-.109-11.774h1.581c.621 0 1.122-.37 1.247-.92.112-.494-.128-.976-.611-1.226l-9.401-4.874a1.403 1.403 0 0 0-1.272 0l-9.4 4.874c-.484.25-.724.732-.611 1.226.125.55.626.92 1.247.92h1.546l.113 11.774h-1.484a.388.388 0 0 0-.381.397v1.35h-.806a.39.39 0 0 0-.382.396v3.08c0 .219.171.396.382.396h20.824a.389.389 0 0 0 .382-.396v-3.08a.39.39 0 0 0-.382-.397zm-3.247-1.746h-2.511l-.108-11.774h2.51l.109 11.774zm-10.981-11.774l.113 11.774h1.625l.057-11.774h-1.795zm2.559 0h2.511l-.058 11.774h-2.511l.058-11.774zm5.039 0h-1.765l-.057 11.774h1.931l-.109-11.774zm-13.686-1.102c-.041-.177.113-.286.209-.335l9.4-4.874a.642.642 0 0 1 .295-.07c.103 0 .206.023.295.07l9.401 4.873c.095.05.249.159.209.336-.034.149-.206.309-.504.309h-18.801c-.298 0-.47-.16-.504-.309zm5.324 1.102h-2.511l.114 11.774h2.511l-.114-11.774zm-4.263 12.567h17.686v.953h-17.686v-.953zm-1.187 1.746v2.288h20.061v-2.288h-20.061z" fill="#fff"/></g><path opacity=".75" d="M342.183 165.114v-7.7h-.671l-2.42 5.566c-.066.143-.121.286-.187.429-.066-.143-.121-.286-.187-.429l-2.387-5.566h-.66v7.7h.77v-5.665c.055.143.121.286.176.429l2.222 5.368 2.365-5.368c.066-.154.143-.308.209-.462v5.698h.77zm5.376 0h.715v-3.806c0-1.595-1.067-1.947-1.87-1.947-.77 0-1.518.33-1.969.616l.22.66c.418-.286 1.111-.605 1.672-.605.627 0 1.232.242 1.232 1.375v.473a3.097 3.097 0 0 0-1.518-.396c-1.067 0-2.046.561-2.046 1.859 0 1.265.781 1.903 1.914 1.903.605 0 1.199-.275 1.65-.682v.55zm-1.573-.539c-.814 0-1.276-.495-1.276-1.232 0-.814.649-1.188 1.408-1.188.484 0 1.078.22 1.441.462v1.089c-.341.418-.891.869-1.573.869zm7.509.539h.77v-3.113c0-1.859-.638-2.64-2.013-2.64-.594 0-1.1.242-1.452.748v-.616h-.77v5.621h.77v-3.454c0-1.221.594-1.606 1.386-1.606.748 0 1.309.44 1.309 1.628v3.432zm5.924 0h.715v-3.806c0-1.595-1.067-1.947-1.87-1.947-.77 0-1.518.33-1.969.616l.22.66c.418-.286 1.111-.605 1.672-.605.627 0 1.232.242 1.232 1.375v.473a3.097 3.097 0 0 0-1.518-.396c-1.067 0-2.046.561-2.046 1.859 0 1.265.781 1.903 1.914 1.903.605 0 1.199-.275 1.65-.682v.55zm-1.573-.539c-.814 0-1.276-.495-1.276-1.232 0-.814.649-1.188 1.408-1.188.484 0 1.078.22 1.441.462v1.089c-.341.418-.891.869-1.573.869zm5.627 2.882c1.375-.055 2.64-.583 2.64-2.431v-5.533h-.77v.528c-.187-.22-.638-.66-1.496-.66-1.375 0-2.343 1.089-2.343 2.937 0 1.958 1.089 2.948 2.299 2.948.77 0 1.221-.297 1.54-.77v.858c0 .77-.396 1.419-2.222 1.518l.352.605zm.506-2.904c-.957 0-1.672-.814-1.672-2.255 0-1.441.561-2.244 1.672-2.244.407 0 1.045.297 1.364.858v2.706c-.308.583-.902.935-1.364.935zm6.176.693c.649 0 1.276-.275 1.716-.638l-.418-.517c-.429.319-.858.44-1.265.44-.957 0-1.529-.77-1.661-1.914h3.828a5.53 5.53 0 0 0 .022-.539c0-1.892-1.023-2.717-2.222-2.717-1.441 0-2.442 1.067-2.442 2.937 0 1.584.924 2.948 2.442 2.948zm-1.65-3.322c.066-1.276.748-1.87 1.65-1.87.594 0 1.43.352 1.441 1.87h-3.091zm10.26 3.322c1.353 0 2.321-1.067 2.321-2.948 0-1.771-.88-2.937-2.321-2.937-.759 0-1.177.308-1.54.638v-.506h-.77v7.854l.77-.385v-2.42c.319.374.748.704 1.54.704zm-.088-.693c-.605 0-1.067-.374-1.452-.869v-2.761c.308-.55.847-.869 1.452-.869 1.001 0 1.606.88 1.606 2.244 0 1.452-.583 2.255-1.606 2.255zm6.066.693c.649 0 1.276-.275 1.716-.638l-.418-.517c-.429.319-.858.44-1.265.44-.957 0-1.529-.77-1.661-1.914h3.828a5.53 5.53 0 0 0 .022-.539c0-1.892-1.023-2.717-2.222-2.717-1.441 0-2.442 1.067-2.442 2.937 0 1.584.924 2.948 2.442 2.948zm-1.65-3.322c.066-1.276.748-1.87 1.65-1.87.594 0 1.43.352 1.441 1.87h-3.091zm5.415 3.19h.77v-3.179c0-1.386.803-1.804 1.364-1.804.363 0 .583.121.726.209l.121-.748a1.41 1.41 0 0 0-.792-.231c-.693 0-1.166.385-1.419.924v-.792h-.77v5.621zm10.767 0h.77v-3.74c0-1.232-.836-2.013-1.925-2.013-.726 0-1.298.385-1.606.858a1.79 1.79 0 0 0-1.518-.858c-.616 0-1.155.242-1.529.682v-.55h-.77v5.621h.77v-3.531c0-.869.429-1.529 1.298-1.529 1.056 0 1.221.913 1.221 1.617v3.443h.77v-3.443c0-.869.451-1.617 1.298-1.617 1.056 0 1.221.913 1.221 1.617v3.443zm3.089-6.776c.297 0 .506-.22.506-.506 0-.297-.209-.528-.506-.528a.51.51 0 0 0-.506.528c0 .286.22.506.506.506zm-.385 6.776h.77v-5.621h-.77v5.621zm4.344.132c1.166 0 1.892-.605 1.892-1.54 0-1.133-.957-1.518-1.793-1.848-.66-.264-1.287-.506-1.287-1.078 0-.451.418-.737 1.067-.737.616 0 1.056.319 1.342.605l.506-.429a2.308 2.308 0 0 0-1.826-.858c-1.056 0-1.815.572-1.815 1.43 0 .946.792 1.342 1.683 1.705.682.275 1.397.572 1.397 1.254 0 .528-.484.814-1.1.814-.583 0-1.122-.363-1.463-.77l-.539.473c.473.561 1.177.979 1.936.979zm5.092 0c1.166 0 1.892-.605 1.892-1.54 0-1.133-.957-1.518-1.793-1.848-.66-.264-1.287-.506-1.287-1.078 0-.451.418-.737 1.067-.737.616 0 1.056.319 1.342.605l.506-.429a2.308 2.308 0 0 0-1.826-.858c-1.056 0-1.815.572-1.815 1.43 0 .946.792 1.342 1.683 1.705.682.275 1.397.572 1.397 1.254 0 .528-.484.814-1.1.814-.583 0-1.122-.363-1.463-.77l-.539.473c.473.561 1.177.979 1.936.979zm3.904-6.908c.297 0 .506-.22.506-.506 0-.297-.209-.528-.506-.528a.51.51 0 0 0-.506.528c0 .286.22.506.506.506zm-.385 6.776h.77v-5.621h-.77v5.621zm4.785.132c1.441 0 2.409-1.1 2.409-2.948 0-1.87-.968-2.937-2.409-2.937-1.441 0-2.409 1.1-2.409 2.948 0 1.87.968 2.937 2.409 2.937zm0-.693c-1.045 0-1.606-.847-1.606-2.244 0-1.463.561-2.255 1.606-2.255s1.606.847 1.606 2.244c0 1.408-.583 2.255-1.606 2.255zm7.467.561h.77v-3.113c0-1.859-.638-2.64-2.013-2.64-.594 0-1.1.242-1.452.748v-.616h-.77v5.621h.77v-3.454c0-1.221.594-1.606 1.386-1.606.748 0 1.309.44 1.309 1.628v3.432zm4.274.132c1.166 0 1.892-.605 1.892-1.54 0-1.133-.957-1.518-1.793-1.848-.66-.264-1.287-.506-1.287-1.078 0-.451.418-.737 1.067-.737.616 0 1.056.319 1.342.605l.506-.429a2.308 2.308 0 0 0-1.826-.858c-1.056 0-1.815.572-1.815 1.43 0 .946.792 1.342 1.683 1.705.682.275 1.397.572 1.397 1.254 0 .528-.484.814-1.1.814-.583 0-1.122-.363-1.463-.77l-.539.473c.473.561 1.177.979 1.936.979zm7.055-5.06h1.353v-.693h-1.353v-.836c0-.308.011-.66.55-.66.319 0 .572.099.803.22v-.671a1.901 1.901 0 0 0-.957-.264c-.583 0-1.166.33-1.166 1.254v.957h-.902v.693h.902v4.928h.77v-4.928zm4.364 5.06c1.441 0 2.409-1.1 2.409-2.948 0-1.87-.968-2.937-2.409-2.937-1.441 0-2.409 1.1-2.409 2.948 0 1.87.968 2.937 2.409 2.937zm0-.693c-1.045 0-1.606-.847-1.606-2.244 0-1.463.561-2.255 1.606-2.255s1.606.847 1.606 2.244c0 1.408-.583 2.255-1.606 2.255zm4.002.561h.77v-3.179c0-1.386.803-1.804 1.364-1.804.363 0 .583.121.726.209l.121-.748a1.41 1.41 0 0 0-.792-.231c-.693 0-1.166.385-1.419.924v-.792h-.77v5.621zm-114.672 22.132c.429 0 .737-.099 1.023-.253l.088-.803c-.209.143-.473.33-.847.33-.539 0-.605-.407-.605-.891v-3.443h1.43v-.693h-1.43v-2.321l-.77.385v1.936h-.957v.693h.957v3.773c0 .737.308 1.287 1.111 1.287zm4.569 0c1.441 0 2.409-1.1 2.409-2.948 0-1.87-.968-2.937-2.409-2.937-1.441 0-2.409 1.1-2.409 2.948 0 1.87.968 2.937 2.409 2.937zm0-.693c-1.045 0-1.606-.847-1.606-2.244 0-1.463.561-2.255 1.606-2.255s1.606.847 1.606 2.244c0 1.408-.583 2.255-1.606 2.255zm8.359.561l-2.112-4.125 1.408-1.496h-.891l-1.991 2.145v-4.466l-.77.374v7.568h.77v-2.563l.935-1.001 1.804 3.564h.847zm2.986.132c.649 0 1.276-.275 1.716-.638l-.418-.517c-.429.319-.858.44-1.265.44-.957 0-1.529-.77-1.661-1.914h3.828c.022-.242.022-.418.022-.539 0-1.892-1.023-2.717-2.222-2.717-1.441 0-2.442 1.067-2.442 2.937 0 1.584.924 2.948 2.442 2.948zm-1.65-3.322c.066-1.276.748-1.87 1.65-1.87.594 0 1.43.352 1.441 1.87h-3.091zm8.88 3.19h.77v-3.113c0-1.859-.638-2.64-2.013-2.64-.594 0-1.1.242-1.452.748v-.616h-.77v5.621h.77v-3.454c0-1.221.594-1.606 1.386-1.606.748 0 1.309.44 1.309 1.628v3.432zm5.225 0h.77v-3.454c0-1.221.594-1.606 1.386-1.606.748 0 1.309.44 1.309 1.628v3.432h.77v-3.113c0-1.859-.638-2.64-2.013-2.64-.594 0-1.111.253-1.452.759v-2.948l-.77.363v7.579zm8.18.132c1.441 0 2.409-1.1 2.409-2.948 0-1.87-.968-2.937-2.409-2.937-1.441 0-2.409 1.1-2.409 2.948 0 1.87.968 2.937 2.409 2.937zm0-.693c-1.045 0-1.606-.847-1.606-2.244 0-1.463.561-2.255 1.606-2.255s1.606.847 1.606 2.244c0 1.408-.583 2.255-1.606 2.255zm4.057.561h.77v-7.942l-.77.374v7.568zm4.738.132c.704 0 1.155-.275 1.496-.616v.484h.77v-7.942l-.77.385v2.332a2.272 2.272 0 0 0-1.496-.528c-1.43 0-2.321 1.089-2.321 2.937 0 1.793.88 2.948 2.321 2.948zm.088-.693c-.99 0-1.606-1.001-1.606-2.255 0-1.441.572-2.244 1.606-2.244.715 0 1.177.44 1.408.814v2.805c-.308.561-.847.88-1.408.88zm6.21.693c.649 0 1.276-.275 1.716-.638l-.418-.517c-.429.319-.858.44-1.265.44-.957 0-1.529-.77-1.661-1.914h3.828a5.53 5.53 0 0 0 .022-.539c0-1.892-1.023-2.717-2.222-2.717-1.441 0-2.442 1.067-2.442 2.937 0 1.584.924 2.948 2.442 2.948zm-1.65-3.322c.066-1.276.748-1.87 1.65-1.87.594 0 1.43.352 1.441 1.87h-3.091zm5.415 3.19h.77v-3.179c0-1.386.803-1.804 1.364-1.804.363 0 .583.121.726.209l.121-.748a1.41 1.41 0 0 0-.792-.231c-.693 0-1.166.385-1.419.924v-.792h-.77v5.621zm5.774.132c1.166 0 1.892-.605 1.892-1.54 0-1.133-.957-1.518-1.793-1.848-.66-.264-1.287-.506-1.287-1.078 0-.451.418-.737 1.067-.737.616 0 1.056.319 1.342.605l.506-.429a2.308 2.308 0 0 0-1.826-.858c-1.056 0-1.815.572-1.815 1.43 0 .946.792 1.342 1.683 1.705.682.275 1.397.572 1.397 1.254 0 .528-.484.814-1.1.814-.583 0-1.122-.363-1.463-.77l-.539.473c.473.561 1.177.979 1.936.979zm9.277-.132h.715v-3.806c0-1.595-1.067-1.947-1.87-1.947-.77 0-1.518.33-1.969.616l.22.66c.418-.286 1.111-.605 1.672-.605.627 0 1.232.242 1.232 1.375v.473a3.097 3.097 0 0 0-1.518-.396c-1.067 0-2.046.561-2.046 1.859 0 1.265.781 1.903 1.914 1.903.605 0 1.199-.275 1.65-.682v.55zm-1.573-.539c-.814 0-1.276-.495-1.276-1.232 0-.814.649-1.188 1.408-1.188.484 0 1.078.22 1.441.462v1.089c-.341.418-.891.869-1.573.869zm7.508.539h.77v-3.113c0-1.859-.638-2.64-2.013-2.64-.594 0-1.1.242-1.452.748v-.616h-.77v5.621h.77v-3.454c0-1.221.594-1.606 1.386-1.606.748 0 1.309.44 1.309 1.628v3.432zm4.626.132c.704 0 1.155-.275 1.496-.616v.484h.77v-7.942l-.77.385v2.332a2.272 2.272 0 0 0-1.496-.528c-1.43 0-2.321 1.089-2.321 2.937 0 1.793.88 2.948 2.321 2.948zm.088-.693c-.99 0-1.606-1.001-1.606-2.255 0-1.441.572-2.244 1.606-2.244.715 0 1.177.44 1.408.814v2.805c-.308.561-.847.88-1.408.88zm9.922.561h.715v-3.806c0-1.595-1.067-1.947-1.87-1.947-.77 0-1.518.33-1.969.616l.22.66c.418-.286 1.111-.605 1.672-.605.627 0 1.232.242 1.232 1.375v.473a3.097 3.097 0 0 0-1.518-.396c-1.067 0-2.046.561-2.046 1.859 0 1.265.781 1.903 1.914 1.903.605 0 1.199-.275 1.65-.682v.55zm-1.573-.539c-.814 0-1.276-.495-1.276-1.232 0-.814.649-1.188 1.408-1.188.484 0 1.078.22 1.441.462v1.089c-.341.418-.891.869-1.573.869zm6.353.671c1.353 0 2.321-1.067 2.321-2.948 0-1.771-.88-2.937-2.321-2.937-.759 0-1.177.308-1.54.638v-.506h-.77v7.854l.77-.385v-2.42c.319.374.748.704 1.54.704zm-.088-.693c-.605 0-1.067-.374-1.452-.869v-2.761c.308-.55.847-.869 1.452-.869 1.001 0 1.606.88 1.606 2.244 0 1.452-.583 2.255-1.606 2.255zm6.319.693c1.353 0 2.321-1.067 2.321-2.948 0-1.771-.88-2.937-2.321-2.937-.759 0-1.177.308-1.54.638v-.506h-.77v7.854l.77-.385v-2.42c.319.374.748.704 1.54.704zm-.088-.693c-.605 0-1.067-.374-1.452-.869v-2.761c.308-.55.847-.869 1.452-.869 1.001 0 1.606.88 1.606 2.244 0 1.452-.583 2.255-1.606 2.255zm5.592.693c1.166 0 1.892-.605 1.892-1.54 0-1.133-.957-1.518-1.793-1.848-.66-.264-1.287-.506-1.287-1.078 0-.451.418-.737 1.067-.737.616 0 1.056.319 1.342.605l.506-.429a2.308 2.308 0 0 0-1.826-.858c-1.056 0-1.815.572-1.815 1.43 0 .946.792 1.342 1.683 1.705.682.275 1.397.572 1.397 1.254 0 .528-.484.814-1.1.814-.583 0-1.122-.363-1.463-.77l-.539.473c.473.561 1.177.979 1.936.979zm7.451 0c.429 0 .737-.099 1.023-.253l.088-.803c-.209.143-.473.33-.847.33-.539 0-.605-.407-.605-.891v-3.443h1.43v-.693h-1.43v-2.321l-.77.385v1.936h-.957v.693h.957v3.773c0 .737.308 1.287 1.111 1.287zm4.569 0c1.441 0 2.409-1.1 2.409-2.948 0-1.87-.968-2.937-2.409-2.937-1.441 0-2.409 1.1-2.409 2.948 0 1.87.968 2.937 2.409 2.937zm0-.693c-1.045 0-1.606-.847-1.606-2.244 0-1.463.561-2.255 1.606-2.255s1.606.847 1.606 2.244c0 1.408-.583 2.255-1.606 2.255zm-94.004 22.693c.649 0 1.276-.275 1.716-.638l-.418-.517c-.429.319-.858.44-1.265.44-.957 0-1.529-.77-1.661-1.914h3.828a5.53 5.53 0 0 0 .022-.539c0-1.892-1.023-2.717-2.222-2.717-1.441 0-2.442 1.067-2.442 2.937 0 1.584.924 2.948 2.442 2.948zm-1.65-3.322c.066-1.276.748-1.87 1.65-1.87.594 0 1.43.352 1.441 1.87h-3.091zm4.532 3.19h.836l1.133-1.738c.121-.187.231-.363.352-.561l.352.561 1.133 1.738h.836l-1.903-2.915 1.771-2.706h-.836l-.99 1.518c-.132.198-.242.374-.363.572a16.473 16.473 0 0 0-.363-.572l-.99-1.518h-.836l1.771 2.706-1.903 2.915zm7.796.132c.649 0 1.276-.275 1.716-.638l-.418-.517c-.429.319-.858.44-1.265.44-.957 0-1.529-.77-1.661-1.914h3.828a5.53 5.53 0 0 0 .022-.539c0-1.892-1.023-2.717-2.222-2.717-1.441 0-2.442 1.067-2.442 2.937 0 1.584.924 2.948 2.442 2.948zm-1.65-3.322c.066-1.276.748-1.87 1.65-1.87.594 0 1.43.352 1.441 1.87h-3.091zm7.252 3.322c.957 0 1.705-.495 1.969-1.287l-.693-.264c-.187.528-.638.858-1.243.858-.99 0-1.452-.825-1.452-2.244 0-1.386.429-2.255 1.474-2.255.616 0 .957.33 1.133.759l.704-.275c-.308-.759-.968-1.177-1.804-1.177-1.441 0-2.31 1.1-2.31 2.948 0 1.87.869 2.937 2.222 2.937zm6.762-.132h.77v-5.621h-.77v3.454c0 1.221-.605 1.606-1.397 1.606-.748 0-1.298-.451-1.298-1.628v-3.432h-.77v3.135c0 1.848.616 2.618 2.068 2.618.583 0 1.001-.154 1.397-.671v.539zm4.153.132c.429 0 .737-.099 1.023-.253l.088-.803c-.209.143-.473.33-.847.33-.539 0-.605-.407-.605-.891v-3.443h1.43v-.693h-1.43v-2.321l-.77.385v1.936h-.957v.693h.957v3.773c0 .737.308 1.287 1.111 1.287zm4.602 0c.649 0 1.276-.275 1.716-.638l-.418-.517c-.429.319-.858.44-1.265.44-.957 0-1.529-.77-1.661-1.914h3.828a5.53 5.53 0 0 0 .022-.539c0-1.892-1.023-2.717-2.222-2.717-1.441 0-2.442 1.067-2.442 2.937 0 1.584.924 2.948 2.442 2.948zm-1.65-3.322c.066-1.276.748-1.87 1.65-1.87.594 0 1.43.352 1.441 1.87h-3.091zm11.184 3.19h.715v-3.806c0-1.595-1.067-1.947-1.87-1.947-.77 0-1.518.33-1.969.616l.22.66c.418-.286 1.111-.605 1.672-.605.627 0 1.232.242 1.232 1.375v.473a3.097 3.097 0 0 0-1.518-.396c-1.067 0-2.046.561-2.046 1.859 0 1.265.781 1.903 1.914 1.903.605 0 1.199-.275 1.65-.682v.55zm-1.573-.539c-.814 0-1.276-.495-1.276-1.232 0-.814.649-1.188 1.408-1.188.484 0 1.078.22 1.441.462v1.089c-.341.418-.891.869-1.573.869zm5.881.671c.957 0 1.705-.495 1.969-1.287l-.693-.264c-.187.528-.638.858-1.243.858-.99 0-1.452-.825-1.452-2.244 0-1.386.429-2.255 1.474-2.255.616 0 .957.33 1.133.759l.704-.275c-.308-.759-.968-1.177-1.804-1.177-1.441 0-2.31 1.1-2.31 2.948 0 1.87.869 2.937 2.222 2.937zm4.759 0c.429 0 .737-.099 1.023-.253l.088-.803c-.209.143-.473.33-.847.33-.539 0-.605-.407-.605-.891v-3.443h1.43v-.693h-1.43v-2.321l-.77.385v1.936h-.957v.693h.957v3.773c0 .737.308 1.287 1.111 1.287zm3.049-6.908c.297 0 .506-.22.506-.506 0-.297-.209-.528-.506-.528a.51.51 0 0 0-.506.528c0 .286.22.506.506.506zm-.385 6.776h.77v-5.621h-.77v5.621zm4.784.132c1.441 0 2.409-1.1 2.409-2.948 0-1.87-.968-2.937-2.409-2.937-1.441 0-2.409 1.1-2.409 2.948 0 1.87.968 2.937 2.409 2.937zm0-.693c-1.045 0-1.606-.847-1.606-2.244 0-1.463.561-2.255 1.606-2.255s1.606.847 1.606 2.244c0 1.408-.583 2.255-1.606 2.255zm7.467.561h.77v-3.113c0-1.859-.638-2.64-2.013-2.64-.594 0-1.1.242-1.452.748v-.616h-.77v5.621h.77v-3.454c0-1.221.594-1.606 1.386-1.606.748 0 1.309.44 1.309 1.628v3.432zm4.275.132c1.166 0 1.892-.605 1.892-1.54 0-1.133-.957-1.518-1.793-1.848-.66-.264-1.287-.506-1.287-1.078 0-.451.418-.737 1.067-.737.616 0 1.056.319 1.342.605l.506-.429a2.308 2.308 0 0 0-1.826-.858c-1.056 0-1.815.572-1.815 1.43 0 .946.792 1.342 1.683 1.705.682.275 1.397.572 1.397 1.254 0 .528-.484.814-1.1.814-.583 0-1.122-.363-1.463-.77l-.539.473c.473.561 1.177.979 1.936.979z" fill="#000"/></g><g opacity=".85" filter="url(#filter3_f)"><g filter="url(#filter4_d)"><path fill-rule="evenodd" clip-rule="evenodd" d="M4.879 43a6 6 0 0 1 6-6H180.38a6 6 0 0 1 6 6v235a6 6 0 0 1-6 6H10.879a6 6 0 0 1-6-6V43z" fill="#fff"/></g><rect x="73.882" y="57.518" width="44.192" height="44.192" rx="9" fill="url(#paint1_linear)"/><rect x="86.219" y="69.855" width="20.307" height="20.307" rx="3.5" stroke="#fff"/><g filter="url(#filter5_d)" stroke="#fff" stroke-linecap="round"><path d="M97.556 75.691h4.835m-4.835 7.891h4.835m-4.835 1.578h4.835m-12.727-.788H94.5m-2.468-2.392v4.736m-1.575-12.985l3.419 3.42m-.054-3.436l-3.349 3.348"/></g><path fill-rule="evenodd" clip-rule="evenodd" d="M33.993 235.706a3 3 0 0 1 3-3H159.52a3 3 0 0 1 3 3v22.562a3 3 0 0 1-3 3H36.993a3 3 0 0 1-3-3v-22.562z" fill="url(#paint2_linear)"/><path d="M79.842 251.728c-.47 0-.914-.062-1.333-.184a2.773 2.773 0 0 1-1.086-.603c-.309-.284-.554-.654-.736-1.111-.178-.461-.267-1.031-.267-1.708v-5.655h1.352v5.655c0 .457.053.834.16 1.13.105.296.249.531.43.705.187.173.407.296.66.368.255.068.528.102.82.102.292 0 .563-.034.812-.102.254-.072.474-.195.66-.368.19-.174.339-.409.445-.705.106-.296.158-.673.158-1.13v-5.655h1.352v5.655c0 .669-.086 1.234-.26 1.695a2.857 2.857 0 0 1-.723 1.111 2.727 2.727 0 0 1-1.086.616 4.839 4.839 0 0 1-1.358.184zm8.461 0a2.32 2.32 0 0 1-.533-.057 1.917 1.917 0 0 1-.432-.159 2.13 2.13 0 0 1-.355-.229 2.146 2.146 0 0 1-.273-.285v2.558l-1.352.628v-9.261h1.352v.533c.173-.194.387-.357.641-.488.254-.132.571-.197.952-.197.42 0 .798.08 1.136.241.339.157.627.385.864.686.237.296.419.66.546 1.091.126.432.19.921.19 1.467s-.068 1.034-.203 1.466a3.252 3.252 0 0 1-.559 1.092 2.37 2.37 0 0 1-.863.679 2.595 2.595 0 0 1-1.11.235zm-.19-1.276c.512 0 .901-.188 1.168-.565.27-.377.406-.92.406-1.631 0-.322-.036-.618-.108-.889a2.096 2.096 0 0 0-.305-.698 1.493 1.493 0 0 0-.495-.457 1.331 1.331 0 0 0-.666-.165c-.318 0-.595.065-.832.196a1.515 1.515 0 0 0-.571.553v2.888a2.001 2.001 0 0 0 .571.539c.119.068.246.123.381.165.14.043.29.064.45.064zm6.1 2.679c.487-.03.889-.087 1.206-.172.317-.084.569-.192.755-.324.186-.126.316-.277.387-.45.072-.174.108-.362.108-.565v-.584c-.368.461-.901.692-1.6.692-.38 0-.736-.072-1.066-.216a2.463 2.463 0 0 1-.87-.66 3.278 3.278 0 0 1-.583-1.086c-.14-.436-.21-.943-.21-1.523 0-.546.068-1.033.203-1.46.136-.432.324-.796.565-1.092.246-.3.538-.529.876-.685a2.625 2.625 0 0 1 1.118-.235c.194 0 .372.019.533.057a1.954 1.954 0 0 1 .774.343c.102.072.188.146.26.222v-.47h1.352v6.138c0 .508-.05.94-.152 1.295a2.142 2.142 0 0 1-1.066 1.327c-.195.11-.4.199-.616.266a3.688 3.688 0 0 1-.647.146c-.22.034-.436.06-.648.077l-.68-1.041zm1.104-2.679a1.563 1.563 0 0 0 1.352-.781v-2.875a1.308 1.308 0 0 0-.254-.299 1.666 1.666 0 0 0-.323-.241 1.388 1.388 0 0 0-.375-.152 1.43 1.43 0 0 0-.4-.057c-.529 0-.933.188-1.212.565-.275.372-.413.916-.413 1.631 0 .338.038.645.115.92.076.271.184.502.323.692.14.191.31.339.508.445.203.101.43.152.68.152zm4.666 1.117v-6.646h1.352v.806c.156-.338.36-.582.609-.73.25-.152.54-.228.87-.228.44 0 .812.133 1.117.4l-.197 1.25a1.99 1.99 0 0 0-.438-.222 1.602 1.602 0 0 0-.609-.102c-.152 0-.309.028-.47.083a1.06 1.06 0 0 0-.431.279c-.132.131-.24.309-.324.533-.085.22-.127.502-.127.845v3.732h-1.352zm10.346 0h-1.294v-.571a2.432 2.432 0 0 1-.305.266 2.642 2.642 0 0 1-.406.235 2.704 2.704 0 0 1-1.111.229c-.339 0-.652-.047-.94-.14a2.106 2.106 0 0 1-.749-.419 2.055 2.055 0 0 1-.501-.698 2.46 2.46 0 0 1-.178-.971c0-.381.072-.709.216-.984.144-.279.334-.508.571-.686a2.36 2.36 0 0 1 .813-.4 3.687 3.687 0 0 1 1.828-.025c.283.064.537.161.762.292v-.368c0-.25-.03-.461-.089-.635a.92.92 0 0 0-.261-.419.975.975 0 0 0-.438-.235 2.353 2.353 0 0 0-.634-.076c-.415 0-.775.055-1.079.165-.301.11-.574.256-.819.438l-.4-1.111c.135-.093.29-.18.463-.26.174-.085.364-.159.572-.222.207-.064.431-.112.672-.146.242-.038.5-.057.775-.057.186 0 .379.01.577.031.199.022.392.064.578.127.19.06.368.146.533.261.17.114.316.264.438.45.127.182.227.407.299.673.072.267.107.584.107.952v4.304zm-2.869-1.041c.343 0 .646-.07.908-.209.267-.14.489-.307.667-.502v-1.015a2.796 2.796 0 0 0-.654-.235 3.279 3.279 0 0 0-.768-.089 2.74 2.74 0 0 0-.572.057 1.441 1.441 0 0 0-.469.184.88.88 0 0 0-.426.781c0 .317.11.569.33.755.225.182.553.273.984.273zm7.129 1.2c-.419 0-.8-.079-1.143-.235a2.48 2.48 0 0 1-.869-.686 3.211 3.211 0 0 1-.559-1.098 5.19 5.19 0 0 1-.19-1.466c0-.546.067-1.033.203-1.46.135-.432.323-.796.565-1.092.245-.3.537-.529.876-.685a2.62 2.62 0 0 1 1.117-.235c.364 0 .673.059.927.177.258.119.471.267.641.445v-2.584l1.352-.628v9.388h-1.352v-.47a1.857 1.857 0 0 1-.641.464c-.246.11-.555.165-.927.165zm.19-1.276c.305 0 .574-.066.806-.197.233-.131.424-.317.572-.558v-2.927a1.402 1.402 0 0 0-.508-.482 1.539 1.539 0 0 0-.394-.172 1.555 1.555 0 0 0-.476-.069c-.508 0-.901.188-1.18.565-.28.372-.419.916-.419 1.631 0 .322.036.618.108.889.076.266.181.499.317.698.14.194.307.347.501.457.199.11.424.165.673.165zm-35.794 19.276c-.462 0-.878-.079-1.25-.235a2.661 2.661 0 0 1-.953-.686 3.163 3.163 0 0 1-.61-1.098 4.77 4.77 0 0 1-.209-1.466c0-.546.072-1.033.216-1.46.144-.432.347-.796.61-1.092.266-.3.584-.529.952-.685a3.172 3.172 0 0 1 1.244-.235c.393 0 .761.063 1.104.19.347.123.65.313.908.571.262.254.468.576.616.965.152.39.228.849.228 1.378 0 .144-.004.296-.012.457-.005.161-.017.3-.039.419h-4.475c.005.275.053.522.146.742.098.216.225.402.381.559.157.152.335.271.533.355.2.081.407.121.623.121a1.708 1.708 0 0 0 1.377-.673l.882.908a2.68 2.68 0 0 1-.927.698c-.376.178-.825.267-1.345.267zm0-5.764a1.97 1.97 0 0 0-.61.095c-.194.06-.368.157-.52.292-.148.132-.27.305-.368.521a2.21 2.21 0 0 0-.172.787h3.174a2.233 2.233 0 0 0-.146-.787 1.433 1.433 0 0 0-.349-.521 1.311 1.311 0 0 0-.482-.292 1.534 1.534 0 0 0-.527-.095z" fill="#fff"/><path opacity=".75" d="M74.147 126v-9.1h5.642v1.274H75.5v2.496h2.77v1.274H75.5V126h-1.352zm8.328-7.917a.778.778 0 0 1-.572.234.822.822 0 0 1-.585-.234.823.823 0 0 1-.234-.585c0-.225.078-.416.234-.572a.798.798 0 0 1 .585-.247c.225 0 .416.082.572.247a.759.759 0 0 1 .247.572.8.8 0 0 1-.247.585zM81.227 126v-6.643h1.352V126h-1.352zm7.42 0v-3.965c0-.529-.12-.919-.363-1.17-.243-.26-.563-.39-.962-.39-.953 0-1.43.511-1.43 1.534V126H84.54v-6.643h1.352v.637c.416-.529.988-.793 1.716-.793 1.595 0 2.392.945 2.392 2.834V126h-1.352zm7.04 0v-.572c-.468.485-1.075.728-1.82.728-.703 0-1.275-.191-1.717-.572-.433-.39-.65-.94-.65-1.651 0-.719.248-1.265.742-1.638.493-.373 1.096-.559 1.806-.559.65 0 1.197.13 1.638.39v-.364c0-.494-.112-.845-.338-1.053-.225-.208-.585-.312-1.079-.312-.728 0-1.36.199-1.898.598l-.402-1.105c.667-.459 1.495-.689 2.483-.689.329 0 .624.03.883.091.26.052.525.16.794.325.268.156.476.412.623.767.157.355.235.793.235 1.313V126h-1.3zm-1.573-1.04c.623 0 1.148-.238 1.572-.715v-1.014c-.407-.217-.88-.325-1.417-.325-.433 0-.788.087-1.066.26-.268.165-.403.42-.403.767 0 .321.113.572.338.754.226.182.55.273.975.273zm8.803 1.04v-3.965c0-.529-.121-.919-.364-1.17-.242-.26-.563-.39-.962-.39-.953 0-1.43.511-1.43 1.534V126h-1.352v-6.643h1.352v.637c.416-.529.988-.793 1.716-.793 1.595 0 2.392.945 2.392 2.834V126h-1.352zm5.817.156c-.893 0-1.599-.308-2.119-.923-.52-.615-.78-1.465-.78-2.548s.26-1.933.78-2.548c.52-.624 1.226-.936 2.119-.936 1.291 0 2.128.572 2.509 1.716l-1.287.442c-.217-.572-.607-.858-1.17-.858-.503 0-.893.195-1.17.585-.269.381-.403.914-.403 1.599 0 .676.134 1.209.403 1.599.269.381.641.572 1.118.572.641 0 1.057-.325 1.248-.975l1.287.403c-.355 1.248-1.2 1.872-2.535 1.872zm6.846 0c-.928 0-1.664-.308-2.21-.923-.538-.624-.806-1.478-.806-2.561s.273-1.933.819-2.548c.546-.615 1.278-.923 2.197-.923.832 0 1.516.264 2.054.793.537.529.806 1.3.806 2.314 0 .373-.018.663-.052.871h-4.472c.008.529.177.958.507 1.287.338.329.728.494 1.17.494.572 0 1.031-.225 1.378-.676l.884.91c-.538.641-1.296.962-2.275.962zm-1.664-4.069h3.172c-.009-.572-.161-.997-.455-1.274a1.486 1.486 0 0 0-1.053-.416c-.46 0-.845.139-1.157.416-.304.269-.473.693-.507 1.274zm-81.35 49.95h2.123v-.737h-5.005v.737h2.112V179h.77v-6.963zM36.342 179h.77v-3.179c0-1.386.803-1.804 1.364-1.804.363 0 .583.121.726.209l.12-.748a1.41 1.41 0 0 0-.791-.231c-.693 0-1.166.385-1.42.924v-.792h-.77V179zm7.208 0h.715v-3.806c0-1.595-1.067-1.947-1.87-1.947-.77 0-1.518.33-1.969.616l.22.66c.418-.286 1.111-.605 1.672-.605.627 0 1.232.242 1.232 1.375v.473a3.097 3.097 0 0 0-1.518-.396c-1.067 0-2.046.561-2.046 1.859 0 1.265.781 1.903 1.914 1.903.605 0 1.2-.275 1.65-.682v.55zm-1.573-.539c-.814 0-1.276-.495-1.276-1.232 0-.814.65-1.188 1.408-1.188.484 0 1.078.22 1.441.462v1.089c-.34.418-.89.869-1.573.869zm7.508.539h.77v-3.113c0-1.859-.638-2.64-2.013-2.64-.594 0-1.1.242-1.452.748v-.616h-.77V179h.77v-3.454c0-1.221.594-1.606 1.386-1.606.748 0 1.31.44 1.31 1.628V179zm4.275.132c1.166 0 1.892-.605 1.892-1.54 0-1.133-.958-1.518-1.794-1.848-.66-.264-1.286-.506-1.286-1.078 0-.451.417-.737 1.066-.737.617 0 1.056.319 1.343.605l.505-.429a2.308 2.308 0 0 0-1.825-.858c-1.056 0-1.816.572-1.816 1.43 0 .946.793 1.342 1.684 1.705.681.275 1.396.572 1.396 1.254 0 .528-.483.814-1.1.814-.583 0-1.122-.363-1.463-.77l-.538.473c.473.561 1.177.979 1.936.979zm4.52-5.06h1.352v-.693H58.28v-.836c0-.308.011-.66.55-.66.32 0 .572.099.803.22v-.671a1.901 1.901 0 0 0-.957-.264c-.583 0-1.166.33-1.166 1.254v.957h-.902v.693h.902V179h.77v-4.928zm4.396 5.06c.649 0 1.276-.275 1.716-.638l-.418-.517c-.43.319-.858.44-1.265.44-.957 0-1.53-.77-1.661-1.914h3.828c.022-.242.022-.418.022-.539 0-1.892-1.023-2.717-2.222-2.717-1.441 0-2.442 1.067-2.442 2.937 0 1.584.924 2.948 2.442 2.948zm-1.65-3.322c.066-1.276.748-1.87 1.65-1.87.594 0 1.43.352 1.44 1.87h-3.09zM66.44 179h.77v-3.179c0-1.386.803-1.804 1.364-1.804.363 0 .583.121.726.209l.121-.748a1.41 1.41 0 0 0-.792-.231c-.693 0-1.166.385-1.419.924v-.792h-.77V179zm8.749.132c1.44 0 2.409-1.1 2.409-2.948 0-1.87-.968-2.937-2.41-2.937-1.44 0-2.408 1.1-2.408 2.948 0 1.87.968 2.937 2.409 2.937zm0-.693c-1.045 0-1.606-.847-1.606-2.244 0-1.463.56-2.255 1.606-2.255 1.045 0 1.606.847 1.606 2.244 0 1.408-.583 2.255-1.606 2.255zm4.002.561h.77v-3.179c0-1.386.803-1.804 1.364-1.804.363 0 .583.121.726.209l.121-.748a1.41 1.41 0 0 0-.792-.231c-.693 0-1.166.385-1.419.924v-.792h-.77V179zm8.66.132c.705 0 1.156-.275 1.497-.616V179h.77v-7.942l-.77.385v2.332a2.272 2.272 0 0 0-1.496-.528c-1.43 0-2.321 1.089-2.321 2.937 0 1.793.88 2.948 2.32 2.948zm.089-.693c-.99 0-1.606-1.001-1.606-2.255 0-1.441.572-2.244 1.606-2.244.715 0 1.177.44 1.408.814v2.805c-.308.561-.847.88-1.408.88zm6.21.693c.648 0 1.276-.275 1.716-.638l-.419-.517c-.428.319-.857.44-1.264.44-.957 0-1.53-.77-1.662-1.914h3.828c.023-.242.023-.418.023-.539 0-1.892-1.023-2.717-2.223-2.717-1.44 0-2.442 1.067-2.442 2.937 0 1.584.924 2.948 2.442 2.948zm-1.65-3.322c.066-1.276.748-1.87 1.65-1.87.594 0 1.43.352 1.44 1.87H92.5zm7.725 3.322c1.353 0 2.321-1.067 2.321-2.948 0-1.771-.88-2.937-2.321-2.937-.76 0-1.177.308-1.54.638v-.506h-.77v7.854l.77-.385v-2.42c.319.374.748.704 1.54.704zm-.088-.693c-.605 0-1.067-.374-1.452-.869v-2.761c.308-.55.847-.869 1.452-.869 1.001 0 1.606.88 1.606 2.244 0 1.452-.583 2.255-1.606 2.255zm6.032.693c1.441 0 2.409-1.1 2.409-2.948 0-1.87-.968-2.937-2.409-2.937-1.441 0-2.409 1.1-2.409 2.948 0 1.87.968 2.937 2.409 2.937zm0-.693c-1.045 0-1.606-.847-1.606-2.244 0-1.463.561-2.255 1.606-2.255s1.606.847 1.606 2.244c0 1.408-.583 2.255-1.606 2.255zm5.587.693c1.166 0 1.892-.605 1.892-1.54 0-1.133-.957-1.518-1.793-1.848-.66-.264-1.287-.506-1.287-1.078 0-.451.418-.737 1.067-.737.616 0 1.056.319 1.342.605l.506-.429a2.308 2.308 0 0 0-1.826-.858c-1.056 0-1.815.572-1.815 1.43 0 .946.792 1.342 1.683 1.705.682.275 1.397.572 1.397 1.254 0 .528-.484.814-1.1.814-.583 0-1.122-.363-1.463-.77l-.539.473c.473.561 1.177.979 1.936.979zm3.903-6.908c.297 0 .506-.22.506-.506 0-.297-.209-.528-.506-.528a.51.51 0 0 0-.506.528c0 .286.22.506.506.506zm-.385 6.776h.77v-5.621h-.77V179zm4.169.132c.429 0 .737-.099 1.023-.253l.088-.803c-.209.143-.473.33-.847.33-.539 0-.605-.407-.605-.891v-3.443h1.43v-.693h-1.43v-2.321l-.77.385v1.936h-.957v.693h.957v3.773c0 .737.308 1.287 1.111 1.287zm6.596 0c.429 0 .737-.099 1.023-.253l.088-.803c-.209.143-.473.33-.847.33-.539 0-.605-.407-.605-.891v-3.443h1.43v-.693h-1.43v-2.321l-.77.385v1.936h-.957v.693h.957v3.773c0 .737.308 1.287 1.111 1.287zm4.569 0c1.441 0 2.409-1.1 2.409-2.948 0-1.87-.968-2.937-2.409-2.937-1.441 0-2.409 1.1-2.409 2.948 0 1.87.968 2.937 2.409 2.937zm0-.693c-1.045 0-1.606-.847-1.606-2.244 0-1.463.561-2.255 1.606-2.255s1.606.847 1.606 2.244c0 1.408-.583 2.255-1.606 2.255zm8.358.561l-2.112-4.125 1.408-1.496h-.891l-1.991 2.145v-4.466l-.77.374V179h.77v-2.563l.935-1.001L138.12 179h.847zm2.986.132c.649 0 1.276-.275 1.716-.638l-.418-.517c-.429.319-.858.44-1.265.44-.957 0-1.529-.77-1.661-1.914h3.828c.022-.242.022-.418.022-.539 0-1.892-1.023-2.717-2.222-2.717-1.441 0-2.442 1.067-2.442 2.937 0 1.584.924 2.948 2.442 2.948zm-1.65-3.322c.066-1.276.748-1.87 1.65-1.87.594 0 1.43.352 1.441 1.87h-3.091zm8.881 3.19h.77v-3.113c0-1.859-.638-2.64-2.013-2.64-.594 0-1.1.242-1.452.748v-.616h-.77V179h.77v-3.454c0-1.221.594-1.606 1.386-1.606.748 0 1.309.44 1.309 1.628V179zm4.274.132c1.166 0 1.892-.605 1.892-1.54 0-1.133-.957-1.518-1.793-1.848-.66-.264-1.287-.506-1.287-1.078 0-.451.418-.737 1.067-.737.616 0 1.056.319 1.342.605l.506-.429a2.308 2.308 0 0 0-1.826-.858c-1.056 0-1.815.572-1.815 1.43 0 .946.792 1.342 1.683 1.705.682.275 1.397.572 1.397 1.254 0 .528-.484.814-1.1.814-.583 0-1.122-.363-1.463-.77l-.539.473c.473.561 1.177.979 1.936.979zm-98.983 19c.43 0 .737-.099 1.023-.253l.088-.803c-.209.143-.473.33-.847.33-.539 0-.605-.407-.605-.891v-3.443h1.43v-.693h-1.43v-2.321l-.77.385v1.936h-.957v.693h.957v3.773c0 .737.308 1.287 1.111 1.287zm4.57 0c1.44 0 2.408-1.1 2.408-2.948 0-1.87-.968-2.937-2.409-2.937-1.44 0-2.409 1.1-2.409 2.948 0 1.87.968 2.937 2.41 2.937zm0-.693c-1.046 0-1.607-.847-1.607-2.244 0-1.463.561-2.255 1.606-2.255s1.606.847 1.606 2.244c0 1.408-.583 2.255-1.606 2.255zm9.77.561h.716v-3.806c0-1.595-1.067-1.947-1.87-1.947-.77 0-1.518.33-1.97.616l.22.66c.419-.286 1.112-.605 1.673-.605.627 0 1.232.242 1.232 1.375v.473a3.097 3.097 0 0 0-1.518-.396c-1.067 0-2.046.561-2.046 1.859 0 1.265.78 1.903 1.914 1.903.605 0 1.199-.275 1.65-.682v.55zm-1.572-.539c-.814 0-1.276-.495-1.276-1.232 0-.814.649-1.188 1.408-1.188.484 0 1.078.22 1.44.462v1.089c-.34.418-.89.869-1.572.869zm7.508.539h.77v-3.113c0-1.859-.638-2.64-2.013-2.64-.594 0-1.1.242-1.452.748v-.616h-.77V198h.77v-3.454c0-1.221.594-1.606 1.386-1.606.748 0 1.309.44 1.309 1.628V198zm4.626.132c.704 0 1.155-.275 1.496-.616V198h.77v-7.942l-.77.385v2.332a2.272 2.272 0 0 0-1.496-.528c-1.43 0-2.32 1.089-2.32 2.937 0 1.793.88 2.948 2.32 2.948zm.088-.693c-.99 0-1.606-1.001-1.606-2.255 0-1.441.572-2.244 1.606-2.244.715 0 1.177.44 1.408.814v2.805c-.308.561-.847.88-1.408.88zm7.7-4.367h1.353v-.693h-1.353v-.836c0-.308.011-.66.55-.66.32 0 .572.099.803.22v-.671a1.901 1.901 0 0 0-.957-.264c-.583 0-1.166.33-1.166 1.254v.957h-.902v.693h.902V198h.77v-4.928zm2.62 4.928h.77v-3.179c0-1.386.803-1.804 1.364-1.804.363 0 .583.121.726.209l.12-.748a1.41 1.41 0 0 0-.791-.231c-.693 0-1.166.385-1.42.924v-.792h-.77V198zm6.213.132c1.441 0 2.41-1.1 2.41-2.948 0-1.87-.969-2.937-2.41-2.937-1.44 0-2.409 1.1-2.409 2.948 0 1.87.968 2.937 2.41 2.937zm0-.693c-1.045 0-1.606-.847-1.606-2.244 0-1.463.561-2.255 1.606-2.255s1.606.847 1.606 2.244c0 1.408-.583 2.255-1.606 2.255zm10.581.561h.77v-3.74c0-1.232-.836-2.013-1.925-2.013-.726 0-1.298.385-1.606.858a1.79 1.79 0 0 0-1.518-.858c-.616 0-1.155.242-1.529.682v-.55H100V198h.77v-3.531c0-.869.429-1.529 1.298-1.529 1.056 0 1.221.913 1.221 1.617V198h.77v-3.443c0-.869.451-1.617 1.298-1.617 1.056 0 1.221.913 1.221 1.617V198zm5.898 2.134h.759l2.871-7.755h-.825l-1.441 3.993-.198.572c-.066-.198-.121-.385-.187-.572l-1.419-3.993h-.781l2.057 5.445-.836 2.31zm7.09-2.002c1.441 0 2.409-1.1 2.409-2.948 0-1.87-.968-2.937-2.409-2.937-1.441 0-2.409 1.1-2.409 2.948 0 1.87.968 2.937 2.409 2.937zm0-.693c-1.045 0-1.606-.847-1.606-2.244 0-1.463.561-2.255 1.606-2.255s1.606.847 1.606 2.244c0 1.408-.583 2.255-1.606 2.255zm7.412.561h.77v-5.621h-.77v3.454c0 1.221-.605 1.606-1.397 1.606-.748 0-1.298-.451-1.298-1.628v-3.432h-.77v3.135c0 1.848.616 2.618 2.068 2.618.583 0 1.001-.154 1.397-.671V198zm2.745 0h.77v-3.179c0-1.386.803-1.804 1.364-1.804.363 0 .583.121.726.209l.121-.748a1.41 1.41 0 0 0-.792-.231c-.693 0-1.166.385-1.419.924v-.792h-.77V198zm-64.642 19.132c1.441 0 2.41-1.1 2.41-2.948 0-1.87-.969-2.937-2.41-2.937-1.44 0-2.409 1.1-2.409 2.948 0 1.87.968 2.937 2.41 2.937zm0-.693c-1.045 0-1.606-.847-1.606-2.244 0-1.463.561-2.255 1.606-2.255s1.606.847 1.606 2.244c0 1.408-.583 2.255-1.606 2.255zm4.003.561h.77v-3.179c0-1.386.803-1.804 1.364-1.804.363 0 .583.121.726.209l.12-.748a1.41 1.41 0 0 0-.791-.231c-.693 0-1.166.385-1.42.924v-.792h-.77V217zm5.773 2.343c1.375-.055 2.64-.583 2.64-2.431v-5.533h-.77v.528c-.187-.22-.638-.66-1.496-.66-1.375 0-2.343 1.089-2.343 2.937 0 1.958 1.09 2.948 2.3 2.948.77 0 1.22-.297 1.54-.77v.858c0 .77-.397 1.419-2.223 1.518l.352.605zm.506-2.904c-.957 0-1.672-.814-1.672-2.255 0-1.441.561-2.244 1.672-2.244.407 0 1.045.297 1.364.858v2.706c-.308.583-.902.935-1.364.935zm7.353.561h.715v-3.806c0-1.595-1.067-1.947-1.87-1.947-.77 0-1.518.33-1.969.616l.22.66c.418-.286 1.111-.605 1.672-.605.627 0 1.232.242 1.232 1.375v.473a3.097 3.097 0 0 0-1.518-.396c-1.067 0-2.046.561-2.046 1.859 0 1.265.781 1.903 1.914 1.903.605 0 1.2-.275 1.65-.682v.55zm-1.573-.539c-.814 0-1.276-.495-1.276-1.232 0-.814.65-1.188 1.408-1.188.484 0 1.078.22 1.441.462v1.089c-.34.418-.89.869-1.573.869zm7.508.539h.77v-3.113c0-1.859-.638-2.64-2.013-2.64-.594 0-1.1.242-1.452.748v-.616h-.77V217h.77v-3.454c0-1.221.594-1.606 1.386-1.606.748 0 1.31.44 1.31 1.628V217zm3.087-6.776c.297 0 .506-.22.506-.506 0-.297-.21-.528-.506-.528a.51.51 0 0 0-.506.528c0 .286.22.506.506.506zM91.353 217h.77v-5.621h-.77V217zm4.344.132c1.166 0 1.892-.605 1.892-1.54 0-1.133-.957-1.518-1.793-1.848-.66-.264-1.287-.506-1.287-1.078 0-.451.418-.737 1.067-.737.616 0 1.056.319 1.342.605l.506-.429a2.308 2.308 0 0 0-1.826-.858c-1.056 0-1.815.572-1.815 1.43 0 .946.792 1.342 1.683 1.705.682.275 1.397.572 1.397 1.254 0 .528-.484.814-1.1.814-.583 0-1.122-.363-1.463-.77l-.539.473c.473.561 1.177.979 1.936.979zm6.742-.132h.715v-3.806c0-1.595-1.067-1.947-1.87-1.947-.77 0-1.518.33-1.97.616l.22.66c.419-.286 1.112-.605 1.673-.605.627 0 1.232.242 1.232 1.375v.473a3.097 3.097 0 0 0-1.518-.396c-1.067 0-2.046.561-2.046 1.859 0 1.265.78 1.903 1.914 1.903.605 0 1.199-.275 1.65-.682v.55zm-1.573-.539c-.814 0-1.276-.495-1.276-1.232 0-.814.649-1.188 1.408-1.188.484 0 1.078.22 1.441.462v1.089c-.341.418-.891.869-1.573.869zm5.451.671c.429 0 .737-.099 1.023-.253l.088-.803c-.209.143-.473.33-.847.33-.539 0-.605-.407-.605-.891v-3.443h1.43v-.693h-1.43v-2.321l-.77.385v1.936h-.957v.693h.957v3.773c0 .737.308 1.287 1.111 1.287zm3.048-6.908c.297 0 .506-.22.506-.506 0-.297-.209-.528-.506-.528a.51.51 0 0 0-.506.528c0 .286.22.506.506.506zM108.98 217h.77v-5.621h-.77V217zm4.785.132c1.441 0 2.409-1.1 2.409-2.948 0-1.87-.968-2.937-2.409-2.937-1.441 0-2.409 1.1-2.409 2.948 0 1.87.968 2.937 2.409 2.937zm0-.693c-1.045 0-1.606-.847-1.606-2.244 0-1.463.561-2.255 1.606-2.255s1.606.847 1.606 2.244c0 1.408-.583 2.255-1.606 2.255zm7.467.561h.77v-3.113c0-1.859-.638-2.64-2.013-2.64-.594 0-1.1.242-1.452.748v-.616h-.77V217h.77v-3.454c0-1.221.594-1.606 1.386-1.606.748 0 1.309.44 1.309 1.628V217z" fill="#000"/><path opacity=".232" fill-rule="evenodd" clip-rule="evenodd" d="M40.738 147.479a7.102 7.102 0 0 1 7.102-7.102h103.377a7.102 7.102 0 1 1 0 14.204H47.84a7.102 7.102 0 0 1-7.102-7.102z" fill="#21D48E" fill-opacity=".466"/><path d="M56.483 150.655l-2.724-4.276-.255-.465.026.465v4.276h-.936v-6.301h.945l2.659 4.205.26.483-.027-.474v-4.214h.936v6.301h-.883zm4.233.11a2.22 2.22 0 0 1-.866-.162 1.856 1.856 0 0 1-.66-.475 2.191 2.191 0 0 1-.421-.76 3.295 3.295 0 0 1-.145-1.015c0-.378.05-.715.15-1.011a2.16 2.16 0 0 1 .42-.756 1.84 1.84 0 0 1 .66-.475 2.21 2.21 0 0 1 .861-.162c.273 0 .528.044.765.132.24.085.45.216.629.395.181.176.323.399.426.668.105.27.158.587.158.954 0 .099-.003.205-.009.316a1.958 1.958 0 0 1-.026.29H59.56c.003.191.036.362.1.514a1.3 1.3 0 0 0 .264.387 1.132 1.132 0 0 0 .8.33 1.182 1.182 0 0 0 .954-.466l.61.628a1.86 1.86 0 0 1-.64.484 2.175 2.175 0 0 1-.933.184zm0-3.99a1.35 1.35 0 0 0-.422.066.95.95 0 0 0-.36.202 1.053 1.053 0 0 0-.256.36c-.067.15-.107.331-.118.545h2.197a1.548 1.548 0 0 0-.101-.545.99.99 0 0 0-.242-.36.894.894 0 0 0-.334-.202 1.053 1.053 0 0 0-.364-.066zm7.378 3.88h-.83l-.765-2.672a4.962 4.962 0 0 0-.049-.162 4.78 4.78 0 0 0-.044-.158 3.49 3.49 0 0 0-.035-.145 1.219 1.219 0 0 1-.017-.11 9.85 9.85 0 0 0-.049.259 4.249 4.249 0 0 1-.083.325l-.756 2.663h-.83l-1.222-4.601h.918l.646 2.865c.024.1.041.188.053.264l.04.202c.008-.061.02-.132.035-.211a7.52 7.52 0 0 1 .061-.255l.765-2.865h.865l.765 2.865c.024.091.043.176.057.255.018.079.031.15.04.211a6.86 6.86 0 0 1 .092-.466l.646-2.865h.919l-1.222 4.601zm6.398 0h-.874l-1.683-4.601h.936l1.063 3.019c.027.079.049.148.066.207.02.058.041.124.062.198.017-.074.035-.14.052-.198l.07-.207 1.055-3.019h.936l-1.683 4.601zm4.452.11a2.22 2.22 0 0 1-.866-.162 1.856 1.856 0 0 1-.659-.475 2.191 2.191 0 0 1-.422-.76 3.295 3.295 0 0 1-.145-1.015c0-.378.05-.715.15-1.011.1-.299.24-.551.422-.756.184-.208.404-.366.659-.475a2.21 2.21 0 0 1 .861-.162c.272 0 .527.044.765.132.24.085.45.216.628.395.182.176.324.399.426.668.106.27.158.587.158.954 0 .099-.002.205-.008.316a1.973 1.973 0 0 1-.027.29h-3.098c.003.191.037.362.101.514a1.3 1.3 0 0 0 .264.387 1.132 1.132 0 0 0 .8.33 1.182 1.182 0 0 0 .953-.466l.611.628c-.167.199-.38.361-.641.484s-.572.184-.932.184zm0-3.99a1.35 1.35 0 0 0-.422.066.95.95 0 0 0-.36.202 1.051 1.051 0 0 0-.255.36 1.53 1.53 0 0 0-.119.545h2.198a1.548 1.548 0 0 0-.102-.545.99.99 0 0 0-.241-.36.894.894 0 0 0-.334-.202 1.053 1.053 0 0 0-.365-.066zm3.059 3.88v-4.601h.936v.558c.108-.234.249-.403.422-.505.172-.106.373-.158.602-.158.304 0 .562.092.773.277l-.136.865a1.378 1.378 0 0 0-.303-.153 1.11 1.11 0 0 0-.748-.014.726.726 0 0 0-.298.194c-.091.09-.166.214-.225.369a1.645 1.645 0 0 0-.087.584v2.584h-.936zm5.058.11a2.601 2.601 0 0 1-1.02-.202 2.029 2.029 0 0 1-.409-.233 1.49 1.49 0 0 1-.307-.312l.663-.567a1.67 1.67 0 0 0 .699.418c.109.032.227.048.356.048.117 0 .226-.009.325-.026a.855.855 0 0 0 .255-.084.419.419 0 0 0 .167-.149.437.437 0 0 0 .062-.238c0-.108-.038-.2-.115-.276-.073-.08-.17-.15-.29-.211a3.13 3.13 0 0 0-.408-.181c-.153-.058-.306-.12-.462-.184a5.851 5.851 0 0 1-.422-.202 1.697 1.697 0 0 1-.369-.264 1.255 1.255 0 0 1-.259-.365 1.256 1.256 0 0 1-.097-.518c0-.205.041-.387.123-.545.085-.158.2-.29.343-.396a1.6 1.6 0 0 1 .51-.246 2.32 2.32 0 0 1 .628-.083c.197 0 .377.019.54.057.168.038.317.089.45.154.134.064.252.139.355.224.103.082.192.168.268.259l-.677.536a1.403 1.403 0 0 0-.15-.127.991.991 0 0 0-.197-.128 1.204 1.204 0 0 0-.26-.092 1.27 1.27 0 0 0-.329-.04c-.199 0-.357.037-.474.11a.355.355 0 0 0-.172.317c0 .088.031.165.093.233a.986.986 0 0 0 .25.18c.106.056.226.11.36.162.138.05.282.104.431.163.158.062.314.13.466.207.152.076.287.169.404.281.12.111.216.246.286.404.073.158.11.349.11.571 0 .22-.041.415-.123.585-.082.167-.2.307-.352.422-.15.111-.33.195-.545.25-.21.059-.447.088-.707.088zm2.87-.11v-4.601h.935v4.601h-.936zm.465-5.317a.582.582 0 0 1-.404-.163.575.575 0 0 1 .18-.927.582.582 0 0 1 .444 0c.07.029.13.07.18.123a.549.549 0 0 1 .167.4.575.575 0 0 1-.044.224.574.574 0 0 1-.303.299.55.55 0 0 1-.22.044zm3.7 5.427c-.322 0-.614-.054-.874-.162a1.811 1.811 0 0 1-.66-.471 2.203 2.203 0 0 1-.421-.756 3.29 3.29 0 0 1-.145-1.015c0-.378.048-.716.145-1.015.1-.299.24-.551.422-.756.181-.208.401-.366.659-.474a2.19 2.19 0 0 1 .874-.167c.32 0 .61.055.87.167.261.108.482.266.664.474.182.205.322.457.422.756.1.299.15.637.15 1.015 0 .378-.05.717-.15 1.015-.1.296-.24.548-.422.756a1.801 1.801 0 0 1-.664.471c-.26.108-.55.162-.87.162zm0-.883c.179 0 .34-.035.484-.106.146-.07.27-.17.369-.298.102-.132.18-.292.233-.479.055-.188.083-.4.083-.638 0-.237-.028-.449-.083-.637a1.38 1.38 0 0 0-.233-.483.994.994 0 0 0-.37-.303 1.075 1.075 0 0 0-.483-.106 1.042 1.042 0 0 0-.853.409 1.507 1.507 0 0 0-.232.483c-.053.188-.08.4-.08.637 0 .238.027.45.08.638.056.187.133.347.233.479a1.062 1.062 0 0 0 .852.404zm6.078.773v-2.746c0-.194-.023-.358-.07-.492a.874.874 0 0 0-.194-.334.701.701 0 0 0-.29-.189 1.048 1.048 0 0 0-.365-.062c-.14 0-.27.019-.39.057a.764.764 0 0 0-.313.176.865.865 0 0 0-.21.33c-.05.134-.075.3-.075.496v2.764h-.936v-4.601h.936v.444c.15-.19.32-.33.514-.417.193-.088.417-.132.672-.132.24 0 .462.035.664.105.202.068.376.179.523.334.149.155.265.358.347.607.082.249.123.553.123.914v2.746h-.936zm7.844 0h-.896v-.395a1.727 1.727 0 0 1-.211.184 1.822 1.822 0 0 1-.281.163 1.918 1.918 0 0 1-.77.158c-.234 0-.451-.032-.65-.097a1.437 1.437 0 0 1-.518-.29 1.409 1.409 0 0 1-.348-.483 1.707 1.707 0 0 1-.123-.672c0-.264.05-.491.15-.681.099-.194.231-.352.395-.475.164-.126.352-.218.563-.277a2.606 2.606 0 0 1 1.265-.018c.197.044.372.112.528.203v-.255c0-.173-.021-.32-.062-.44a.635.635 0 0 0-.18-.29.671.671 0 0 0-.303-.162 1.583 1.583 0 0 0-.44-.053c-.287 0-.536.038-.747.114a2.233 2.233 0 0 0-.567.303l-.276-.769a2.769 2.769 0 0 1 .716-.334c.143-.044.299-.077.466-.101a3.695 3.695 0 0 1 .936-.017c.137.014.271.044.4.088.131.041.254.101.369.18.117.079.218.183.303.312.088.126.157.281.206.466.05.184.075.404.075.659v2.979zm-1.986-.72c.237 0 .447-.049.628-.145.185-.097.339-.213.462-.348v-.703a1.966 1.966 0 0 0-.453-.162 2.297 2.297 0 0 0-.532-.062c-.14 0-.272.013-.395.04a1.003 1.003 0 0 0-.325.127.623.623 0 0 0-.216.22.62.62 0 0 0-.079.321.65.65 0 0 0 .229.523c.155.126.382.189.681.189zm5.357.72h-.875l-1.683-4.601h.936l1.064 3.019.066.207c.02.058.041.124.061.198.018-.074.035-.14.053-.198l.07-.207 1.055-3.019h.936l-1.683 4.601zm6.113 0h-.897v-.395a1.655 1.655 0 0 1-.211.184 1.822 1.822 0 0 1-.281.163 1.766 1.766 0 0 1-.347.114c-.129.029-.27.044-.422.044a2.09 2.09 0 0 1-.651-.097 1.437 1.437 0 0 1-.518-.29 1.406 1.406 0 0 1-.347-.483 1.707 1.707 0 0 1-.123-.672c0-.264.05-.491.149-.681.1-.194.232-.352.396-.475.164-.126.351-.218.562-.277a2.62 2.62 0 0 1 1.266-.018c.196.044.372.112.527.203v-.255c0-.173-.02-.32-.061-.44a.671.671 0 0 0-.484-.452 1.575 1.575 0 0 0-.439-.053c-.287 0-.536.038-.747.114a2.233 2.233 0 0 0-.567.303l-.277-.769a2.802 2.802 0 0 1 1.182-.435 3.695 3.695 0 0 1 .936-.017c.138.014.271.044.4.088.132.041.255.101.369.18.117.079.218.183.303.312.088.126.157.281.207.466.05.184.075.404.075.659v2.979zm-1.987-.72c.238 0 .447-.049.629-.145.184-.097.338-.213.461-.348v-.703a2.289 2.289 0 0 0-.984-.224c-.141 0-.273.013-.396.04a1.012 1.012 0 0 0-.325.127.612.612 0 0 0-.294.541c0 .219.076.394.228.523.155.126.382.189.681.189zm3.261.72v-4.601h.936v4.601h-.936zm.466-5.317a.581.581 0 0 1-.404-.163.581.581 0 0 1 0-.804.555.555 0 0 1 .404-.167.554.554 0 0 1 .4.167.543.543 0 0 1 .167.4.581.581 0 0 1-.044.224.549.549 0 0 1-.303.299.554.554 0 0 1-.22.044zm1.872 5.317V144.6l.936-.444v6.499h-.936zm5.862 0h-.896v-.395a1.727 1.727 0 0 1-.211.184 1.822 1.822 0 0 1-.281.163 1.918 1.918 0 0 1-.77.158c-.234 0-.451-.032-.65-.097a1.437 1.437 0 0 1-.518-.29 1.409 1.409 0 0 1-.348-.483 1.707 1.707 0 0 1-.123-.672c0-.264.05-.491.15-.681.099-.194.231-.352.395-.475.164-.126.352-.218.563-.277a2.606 2.606 0 0 1 1.265-.018c.197.044.372.112.528.203v-.255c0-.173-.021-.32-.062-.44a.635.635 0 0 0-.18-.29.671.671 0 0 0-.303-.162 1.583 1.583 0 0 0-.44-.053c-.287 0-.536.038-.747.114a2.233 2.233 0 0 0-.567.303l-.276-.769a2.769 2.769 0 0 1 .716-.334c.143-.044.299-.077.466-.101a3.695 3.695 0 0 1 .936-.017c.137.014.271.044.4.088.131.041.254.101.369.18.117.079.218.183.303.312.088.126.157.281.206.466.05.184.075.404.075.659v2.979zm-1.986-.72c.237 0 .447-.049.628-.145.185-.097.339-.213.462-.348v-.703a1.966 1.966 0 0 0-.453-.162 2.297 2.297 0 0 0-.532-.062c-.14 0-.272.013-.395.04a1.003 1.003 0 0 0-.325.127.623.623 0 0 0-.216.22.62.62 0 0 0-.079.321.65.65 0 0 0 .229.523c.155.126.382.189.681.189zm5.273.83a1.54 1.54 0 0 1-.65-.136 1.193 1.193 0 0 1-.237-.154 1.77 1.77 0 0 1-.198-.189v.369h-.936v-6.064l.936-.435v2.25a1.388 1.388 0 0 1 1.085-.457c.282 0 .539.054.774.162.234.109.435.267.602.475.17.205.302.457.395.756.094.296.141.633.141 1.011 0 .389-.044.735-.132 1.037-.088.298-.215.55-.382.756a1.612 1.612 0 0 1-.602.461 1.93 1.93 0 0 1-.796.158zm-.114-.883a.993.993 0 0 0 .47-.106.965.965 0 0 0 .339-.307 1.43 1.43 0 0 0 .211-.479 2.72 2.72 0 0 0 .07-.637c0-.496-.094-.872-.281-1.13-.185-.261-.454-.391-.809-.391-.12 0-.231.016-.334.048a1.19 1.19 0 0 0-.497.29 1.067 1.067 0 0 0-.14.181v2.008c.102.167.237.296.404.387.17.09.359.136.567.136zm3.199.773V144.6l.936-.444v6.499h-.936zm4.201.11c-.319 0-.607-.054-.865-.162a1.848 1.848 0 0 1-.659-.475 2.177 2.177 0 0 1-.422-.76 3.286 3.286 0 0 1-.145-1.015c0-.378.049-.715.149-1.011.1-.299.24-.551.422-.756.185-.208.404-.366.659-.475a2.21 2.21 0 0 1 .861-.162c.273 0 .528.044.765.132.24.085.45.216.629.395.181.176.323.399.426.668.105.27.158.587.158.954 0 .099-.003.205-.009.316a2.078 2.078 0 0 1-.026.29h-3.098c.003.191.036.362.101.514.067.15.155.279.263.387a1.128 1.128 0 0 0 .8.33 1.186 1.186 0 0 0 .954-.466l.611.628a1.858 1.858 0 0 1-.642.484 2.167 2.167 0 0 1-.932.184zm0-3.99c-.146 0-.287.022-.421.066a.956.956 0 0 0-.361.202 1.068 1.068 0 0 0-.255.36c-.067.15-.107.331-.118.545h2.197a1.562 1.562 0 0 0-.101-.545.992.992 0 0 0-.242-.36.89.89 0 0 0-.334-.202 1.054 1.054 0 0 0-.365-.066z" fill="#21D48E"/></g><g filter="url(#filter6_d)"><path fill-rule="evenodd" clip-rule="evenodd" d="M121 8a6 6 0 0 1 6-6h218a6 6 0 0 1 6 6v301a6 6 0 0 1-6 6H127a6 6 0 0 1-6-6V8z" fill="#fff"/></g><rect x="208" y="28" width="56" height="56" rx="16" fill="url(#paint3_linear)"/><g filter="url(#filter7_d)"><path fill-rule="evenodd" clip-rule="evenodd" d="M250.267 65.277a.076.076 0 0 0-.031.005.058.058 0 0 0-.013.008c-.457.734-1.339 1.406-2.256 2.104-.664.505-1.346 1.024-1.871 1.576-.68.716-.707.927-.82 1.805l-.014.105c-.046.36-.221.676-.474.9a1.416 1.416 0 0 1-1.98-.087 1.456 1.456 0 0 1-.393-1.064c.098-2.257.372-2.619 1.772-4.403l-5.406.013v.001c-.015 0-.029 0-.044-.002-.46-.022-.778-.185-.995-.404-.321-.324-.403-.757-.403-1.045a.2.2 0 0 1 .002-.035 1.54 1.54 0 0 1 .255-.86c.046-.066.099-.13.159-.19-1.368-.23-1.368-1.262-1.368-1.505 0-.452.171-.83.453-1.104a1.68 1.68 0 0 1 .844-.434 1.487 1.487 0 0 1-.461-1.057c0-.39.156-.761.407-1.043.251-.282.6-.476.987-.516l.073-.007a1.445 1.445 0 0 1-.35-.972c.006-.317.109-.615.283-.86.175-.246.423-.44.718-.546l.143-.051-.001-.001a.343.343 0 0 1 .147-.02c1.388-.001 2.427-.032 3.256-.056 2.93-.086 3.304-.096 7.472 1.42a.647.647 0 0 0 .22.041l1.662.01a.673.673 0 0 1 .664.672v6.929a.672.672 0 0 1-.667.673h-1.97z" fill="#FFFFFE"/></g><g filter="url(#filter8_d)"><path fill-rule="evenodd" clip-rule="evenodd" d="M221.637 48.458a.078.078 0 0 0 .031-.006l.013-.008c.457-.734 1.339-1.406 2.256-2.103.664-.505 1.346-1.025 1.87-1.577.681-.716.708-.927.821-1.804l.014-.106c.046-.36.221-.675.474-.9a1.416 1.416 0 0 1 1.98.088 1.456 1.456 0 0 1 .393 1.063c-.098 2.257-.372 2.62-1.772 4.404l5.406-.014v-.001a.36.36 0 0 1 .044.002c.46.023.778.185.995.404.321.324.403.757.403 1.045a.41.41 0 0 1-.002.036c-.005.264-.06.578-.255.86a1.395 1.395 0 0 1-.16.189c1.369.23 1.369 1.262 1.369 1.505 0 .452-.171.83-.453 1.105a1.687 1.687 0 0 1-.845.434 1.482 1.482 0 0 1 .462 1.057c0 .39-.156.76-.407 1.042a1.54 1.54 0 0 1-.987.516l-.073.007a1.445 1.445 0 0 1 .35.972 1.542 1.542 0 0 1-.283.86 1.51 1.51 0 0 1-.719.546l-.142.052h.001a.342.342 0 0 1-.147.02 110.13 110.13 0 0 0-3.257.056c-2.929.086-3.303.097-7.471-1.42a.657.657 0 0 0-.22-.04l-1.662-.01a.663.663 0 0 1-.471-.2.677.677 0 0 1-.193-.472v-6.93a.672.672 0 0 1 .667-.672h1.97z" fill="#FFFFFE"/></g><path fill-rule="evenodd" clip-rule="evenodd" d="M155 253a3 3 0 0 1 3-3h156.871a3 3 0 0 1 3 3v30.194a3 3 0 0 1-3 3H158a3 3 0 0 1-3-3V253z" fill="url(#paint4_linear)"/><path d="M215.22 273.18c-1.19 0-2.145-.325-2.865-.975-.72-.66-1.08-1.72-1.08-3.18V262.5h1.56v6.525c0 .98.21 1.67.63 2.07.42.39 1.005.585 1.755.585s1.335-.195 1.755-.585c.43-.4.645-1.09.645-2.07V262.5h1.56v6.525c0 1.46-.355 2.52-1.065 3.18-.71.65-1.675.975-2.895.975zm9.769 0c-.78 0-1.395-.28-1.845-.84v2.955l-1.56.72v-10.68h1.56v.615c.48-.53 1.095-.795 1.845-.795.97 0 1.735.36 2.295 1.08.57.71.855 1.69.855 2.94 0 1.24-.29 2.22-.87 2.94-.57.71-1.33 1.065-2.28 1.065zm-.225-1.47c.59 0 1.04-.215 1.35-.645.31-.44.465-1.07.465-1.89 0-.76-.16-1.375-.48-1.845-.32-.47-.765-.705-1.335-.705-.72 0-1.26.29-1.62.87v3.33c.44.59.98.885 1.62.885zm7.808 4.29l-.78-1.2c1.06-.06 1.795-.24 2.205-.54.42-.29.63-.69.63-1.2v-.675c-.43.53-1.045.795-1.845.795-.92 0-1.675-.345-2.265-1.035-.59-.7-.885-1.695-.885-2.985 0-1.24.29-2.215.87-2.925.59-.72 1.36-1.08 2.31-1.08.75 0 1.355.24 1.815.72v-.54h1.56v7.17c0 1.18-.295 2.035-.885 2.565-.59.53-1.5.84-2.73.93zm.495-4.29c.68 0 1.2-.3 1.56-.9v-3.315c-.16-.26-.385-.47-.675-.63-.28-.16-.575-.24-.885-.24-.61 0-1.075.22-1.395.66-.32.43-.48 1.055-.48 1.875 0 .78.165 1.4.495 1.86.34.46.8.69 1.38.69zm5.363 1.29v-7.665h1.56v.93c.34-.74.91-1.11 1.71-1.11.5 0 .93.155 1.29.465l-.225 1.44a2.125 2.125 0 0 0-1.215-.375c-.42 0-.785.16-1.095.48-.31.31-.465.82-.465 1.53V273h-1.56zm10.049 0v-.66c-.54.56-1.24.84-2.1.84-.81 0-1.47-.22-1.98-.66-.5-.45-.75-1.085-.75-1.905 0-.83.285-1.46.855-1.89.57-.43 1.265-.645 2.085-.645.75 0 1.38.15 1.89.45v-.42c0-.57-.13-.975-.39-1.215-.26-.24-.675-.36-1.245-.36-.84 0-1.57.23-2.19.69l-.465-1.275c.77-.53 1.725-.795 2.865-.795.38 0 .72.035 1.02.105.3.06.605.185.915.375.31.18.55.475.72.885.18.41.27.915.27 1.515V273h-1.5zm-1.815-1.2c.72 0 1.325-.275 1.815-.825v-1.17c-.47-.25-1.015-.375-1.635-.375-.5 0-.91.1-1.23.3-.31.19-.465.485-.465.885 0 .37.13.66.39.87.26.21.635.315 1.125.315zm8.223 1.38c-.97 0-1.745-.355-2.325-1.065-.57-.72-.855-1.705-.855-2.955 0-1.24.29-2.215.87-2.925.59-.72 1.36-1.08 2.31-1.08.75 0 1.355.24 1.815.72v-2.985l1.56-.72V273h-1.56v-.54c-.43.48-1.035.72-1.815.72zm.225-1.47c.7 0 1.23-.29 1.59-.87v-3.375c-.14-.23-.35-.425-.63-.585-.27-.17-.59-.255-.96-.255-.59 0-1.045.22-1.365.66-.32.44-.48 1.065-.48 1.875 0 .76.165 1.375.495 1.845.33.47.78.705 1.35.705zm8.498 1.47c-1.07 0-1.92-.355-2.55-1.065-.62-.72-.93-1.705-.93-2.955s.315-2.23.945-2.94c.63-.71 1.475-1.065 2.535-1.065.96 0 1.75.305 2.37.915.62.61.93 1.5.93 2.67 0 .43-.02.765-.06 1.005h-5.16c.01.61.205 1.105.585 1.485.39.38.84.57 1.35.57.66 0 1.19-.26 1.59-.78l1.02 1.05c-.62.74-1.495 1.11-2.625 1.11zm-1.92-4.695h3.66c-.01-.66-.185-1.15-.525-1.47-.34-.32-.745-.48-1.215-.48-.53 0-.975.16-1.335.48-.35.31-.545.8-.585 1.47z" fill="#fff"/><path opacity=".75" d="M216.644 114.129l-3.84-11.2h1.792l2.544 7.808c.16.491.277.917.352 1.28.075-.363.192-.789.352-1.28l2.512-7.808h1.776l-3.824 11.2h-1.664zm12.19-.944c-.672.757-1.584 1.136-2.736 1.136-1.152 0-2.064-.379-2.736-1.136-.661-.757-.992-1.803-.992-3.136 0-1.333.331-2.379.992-3.136.672-.768 1.584-1.152 2.736-1.152 1.152 0 2.064.384 2.736 1.152.672.757 1.008 1.803 1.008 3.136 0 1.333-.336 2.379-1.008 3.136zm-2.736-.432c.64 0 1.147-.24 1.52-.72.374-.48.56-1.141.56-1.984s-.186-1.504-.56-1.984c-.373-.491-.88-.736-1.52-.736-.629 0-1.13.245-1.504.736-.373.48-.56 1.141-.56 1.984 0 .832.187 1.493.56 1.984.374.48.875.72 1.504.72zm8.118 1.568c-1.216 0-1.824-.677-1.824-2.032v-4.896h-1.264v-1.44h1.264v-2.576l1.664-.8v3.376h1.936v1.44h-1.936v4.464c0 .619.267.928.8.928.395 0 .8-.128 1.216-.384l-.208 1.552c-.49.245-1.04.368-1.648.368zm5.247-9.936a.958.958 0 0 1-.704.288c-.277 0-.517-.096-.72-.288a1.013 1.013 0 0 1-.288-.72c0-.277.096-.512.288-.704a.984.984 0 0 1 .72-.304c.277 0 .512.101.704.304a.932.932 0 0 1 .304.704.984.984 0 0 1-.304.72zm-1.536 9.744v-8.176h1.664v8.176h-1.664zm9.134 0v-4.88c0-.651-.15-1.131-.448-1.44-.299-.32-.694-.48-1.184-.48-1.174 0-1.76.629-1.76 1.888v4.912h-1.664v-8.176h1.664v.784c.512-.651 1.216-.976 2.112-.976 1.962 0 2.944 1.163 2.944 3.488v4.88h-1.664zm6.727 3.2l-.832-1.28c1.13-.064 1.914-.256 2.352-.576.448-.309.672-.736.672-1.28v-.72c-.459.565-1.115.848-1.968.848-.982 0-1.787-.368-2.416-1.104-.63-.747-.944-1.808-.944-3.184 0-1.323.309-2.363.928-3.12.629-.768 1.45-1.152 2.464-1.152.8 0 1.445.256 1.936.768v-.576h1.664v7.648c0 1.259-.315 2.171-.944 2.736-.63.565-1.6.896-2.912.992zm.528-4.576c.725 0 1.28-.32 1.664-.96v-3.536a1.915 1.915 0 0 0-.72-.672 1.874 1.874 0 0 0-.944-.256c-.651 0-1.147.235-1.488.704-.342.459-.512 1.125-.512 2 0 .832.176 1.493.528 1.984.362.491.853.736 1.472.736zm-75.503 67.765h.765l3.585-10.5h-1.125l-2.505 7.875c-.09.3-.195.615-.285.93-.105-.315-.195-.63-.3-.93l-2.625-7.875h-1.11l3.6 10.5zm8.152.18c1.965 0 3.285-1.5 3.285-4.02 0-2.55-1.32-4.005-3.285-4.005s-3.285 1.5-3.285 4.02c0 2.55 1.32 4.005 3.285 4.005zm0-.945c-1.425 0-2.19-1.155-2.19-3.06 0-1.995.765-3.075 2.19-3.075 1.425 0 2.19 1.155 2.19 3.06 0 1.92-.795 3.075-2.19 3.075zm7.378.945a2.78 2.78 0 0 0 1.395-.345l.12-1.095c-.285.195-.645.45-1.155.45-.735 0-.825-.555-.825-1.215v-4.695h1.95v-.945h-1.95v-3.165l-1.05.525v2.64h-1.305v.945h1.305v5.145c0 1.005.42 1.755 1.515 1.755zm6.276 0c.885 0 1.74-.375 2.34-.87l-.57-.705c-.585.435-1.17.6-1.725.6-1.305 0-2.085-1.05-2.265-2.61h5.22c.03-.33.03-.57.03-.735 0-2.58-1.395-3.705-3.03-3.705-1.965 0-3.33 1.455-3.33 4.005 0 2.16 1.26 4.02 3.33 4.02zm-2.25-4.53c.09-1.74 1.02-2.55 2.25-2.55.81 0 1.95.48 1.965 2.55h-4.215zm13.601 4.53c1.965 0 3.285-1.5 3.285-4.02 0-2.55-1.32-4.005-3.285-4.005s-3.285 1.5-3.285 4.02c0 2.55 1.32 4.005 3.285 4.005zm0-.945c-1.425 0-2.19-1.155-2.19-3.06 0-1.995.765-3.075 2.19-3.075 1.425 0 2.19 1.155 2.19 3.06 0 1.92-.795 3.075-2.19 3.075zm10.183.765h1.05v-4.245c0-2.535-.87-3.6-2.745-3.6-.81 0-1.5.33-1.98 1.02v-.84h-1.05v7.665h1.05v-4.71c0-1.665.81-2.19 1.89-2.19 1.02 0 1.785.6 1.785 2.22v4.68zm7.665-9.24c.405 0 .69-.3.69-.69 0-.405-.285-.72-.69-.72-.39 0-.69.315-.69.72 0 .39.3.69.69.69zm-.525 9.24h1.05v-7.665h-1.05v7.665zm12.735 0h1.05v-5.1c0-1.68-1.14-2.745-2.625-2.745-.99 0-1.77.525-2.19 1.17a2.44 2.44 0 0 0-2.07-1.17c-.84 0-1.575.33-2.085.93v-.75h-1.05v7.665h1.05v-4.815c0-1.185.585-2.085 1.77-2.085 1.44 0 1.665 1.245 1.665 2.205v4.695h1.05v-4.695c0-1.185.615-2.205 1.77-2.205 1.44 0 1.665 1.245 1.665 2.205v4.695zm6.821.18c1.845 0 3.165-1.455 3.165-4.02 0-2.415-1.2-4.005-3.165-4.005-1.035 0-1.605.42-2.1.87v-.69h-1.05v10.71l1.05-.525v-3.3c.435.51 1.02.96 2.1.96zm-.12-.945c-.825 0-1.455-.51-1.98-1.185v-3.765c.42-.75 1.155-1.185 1.98-1.185 1.365 0 2.19 1.2 2.19 3.06 0 1.98-.795 3.075-2.19 3.075zm8.226.945c1.965 0 3.285-1.5 3.285-4.02 0-2.55-1.32-4.005-3.285-4.005s-3.285 1.5-3.285 4.02c0 2.55 1.32 4.005 3.285 4.005zm0-.945c-1.425 0-2.19-1.155-2.19-3.06 0-1.995.765-3.075 2.19-3.075 1.425 0 2.19 1.155 2.19 3.06 0 1.92-.795 3.075-2.19 3.075zm5.458.765h1.05v-4.335c0-1.89 1.095-2.46 1.86-2.46.495 0 .795.165.99.285l.165-1.02c-.21-.15-.6-.315-1.08-.315-.945 0-1.59.525-1.935 1.26v-1.08h-1.05v7.665zm7.853.18a2.78 2.78 0 0 0 1.395-.345l.12-1.095c-.285.195-.645.45-1.155.45-.735 0-.825-.555-.825-1.215v-4.695h1.95v-.945h-1.95v-3.165l-1.05.525v2.64h-1.305v.945h1.305v5.145c0 1.005.42 1.755 1.515 1.755zm7.88-.18h.975v-5.19c0-2.175-1.455-2.655-2.55-2.655-1.05 0-2.07.45-2.685.84l.3.9c.57-.39 1.515-.825 2.28-.825.855 0 1.68.33 1.68 1.875v.645c-.75-.405-1.425-.54-2.07-.54-1.455 0-2.79.765-2.79 2.535 0 1.725 1.065 2.595 2.61 2.595.825 0 1.635-.375 2.25-.93v.75zm-2.145-.735c-1.11 0-1.74-.675-1.74-1.68 0-1.11.885-1.62 1.92-1.62.66 0 1.47.3 1.965.63v1.485c-.465.57-1.215 1.185-2.145 1.185zm10.239.735h1.05v-4.245c0-2.535-.87-3.6-2.745-3.6-.81 0-1.5.33-1.98 1.02v-.84h-1.05v7.665h1.05v-4.71c0-1.665.81-2.19 1.89-2.19 1.02 0 1.785.6 1.785 2.22v4.68zm5.588.18a2.78 2.78 0 0 0 1.395-.345l.12-1.095c-.285.195-.645.45-1.155.45-.735 0-.825-.555-.825-1.215v-4.695h1.95v-.945h-1.95v-3.165l-1.05.525v2.64h-1.305v.945h1.305v5.145c0 1.005.42 1.755 1.515 1.755zm-119.959 21.82h1.05v-5.1c0-1.68-1.14-2.745-2.625-2.745-.99 0-1.77.525-2.19 1.17a2.44 2.44 0 0 0-2.07-1.17c-.84 0-1.575.33-2.085.93v-.75h-1.05v7.665h1.05v-4.815c0-1.185.585-2.085 1.77-2.085 1.44 0 1.665 1.245 1.665 2.205v4.695h1.05v-4.695c0-1.185.615-2.205 1.77-2.205 1.44 0 1.665 1.245 1.665 2.205v4.695zm8.082 0h.975v-5.19c0-2.175-1.455-2.655-2.55-2.655-1.05 0-2.07.45-2.685.84l.3.9c.57-.39 1.515-.825 2.28-.825.855 0 1.68.33 1.68 1.875v.645c-.75-.405-1.425-.54-2.07-.54-1.455 0-2.79.765-2.79 2.535 0 1.725 1.065 2.595 2.61 2.595.825 0 1.635-.375 2.25-.93v.75zm-2.145-.735c-1.11 0-1.74-.675-1.74-1.68 0-1.11.885-1.62 1.92-1.62.66 0 1.47.3 1.965.63v1.485c-.465.57-1.215 1.185-2.145 1.185zm7.433.915a2.78 2.78 0 0 0 1.395-.345l.12-1.095c-.285.195-.645.45-1.155.45-.735 0-.825-.555-.825-1.215v-4.695h1.95v-.945h-1.95v-3.165l-1.05.525v2.64h-1.305v.945h1.305v5.145c0 1.005.42 1.755 1.515 1.755zm5.537 0a2.78 2.78 0 0 0 1.395-.345l.12-1.095c-.285.195-.645.45-1.155.45-.735 0-.825-.555-.825-1.215v-4.695h1.95v-.945h-1.95v-3.165l-1.05.525v2.64h-1.305v.945h1.305v5.145c0 1.005.42 1.755 1.515 1.755zm6.276 0c.885 0 1.74-.375 2.34-.87l-.57-.705c-.585.435-1.17.6-1.725.6-1.305 0-2.085-1.05-2.265-2.61h5.22c.03-.33.03-.57.03-.735 0-2.58-1.395-3.705-3.03-3.705-1.965 0-3.33 1.455-3.33 4.005 0 2.16 1.26 4.02 3.33 4.02zm-2.25-4.53c.09-1.74 1.02-2.55 2.25-2.55.81 0 1.95.48 1.965 2.55h-4.215zm7.384 4.35h1.05v-4.335c0-1.89 1.095-2.46 1.86-2.46.495 0 .795.165.99.285l.165-1.02c-.21-.15-.6-.315-1.08-.315-.945 0-1.59.525-1.935 1.26v-1.08h-1.05v7.665zm7.873.18c1.59 0 2.58-.825 2.58-2.1 0-1.545-1.305-2.07-2.445-2.52-.9-.36-1.755-.69-1.755-1.47 0-.615.57-1.005 1.455-1.005.84 0 1.44.435 1.83.825l.69-.585c-.615-.735-1.455-1.17-2.49-1.17-1.44 0-2.475.78-2.475 1.95 0 1.29 1.08 1.83 2.295 2.325.93.375 1.905.78 1.905 1.71 0 .72-.66 1.11-1.5 1.11-.795 0-1.53-.495-1.995-1.05l-.735.645c.645.765 1.605 1.335 2.64 1.335zm4.528 1.86l.285.075c.78-.48 1.365-1.35 1.365-2.49 0-.885-.555-1.26-1.08-1.26-.495 0-.915.375-.915.99 0 .54.465.93 1.095.93 0 .885-.48 1.515-.75 1.755zm11.506-2.04h.975v-5.19c0-2.175-1.455-2.655-2.55-2.655-1.05 0-2.07.45-2.685.84l.3.9c.57-.39 1.515-.825 2.28-.825.855 0 1.68.33 1.68 1.875v.645c-.75-.405-1.425-.54-2.07-.54-1.455 0-2.79.765-2.79 2.535 0 1.725 1.065 2.595 2.61 2.595.825 0 1.635-.375 2.25-.93v.75zm-2.145-.735c-1.11 0-1.74-.675-1.74-1.68 0-1.11.885-1.62 1.92-1.62.66 0 1.47.3 1.965.63v1.485c-.465.57-1.215 1.185-2.145 1.185zm10.239.735h1.05v-4.245c0-2.535-.87-3.6-2.745-3.6-.81 0-1.5.33-1.98 1.02v-.84h-1.05v7.665h1.05v-4.71c0-1.665.81-2.19 1.89-2.19 1.02 0 1.785.6 1.785 2.22v4.68zm6.308.18c.96 0 1.575-.375 2.04-.84v.66h1.05v-10.83l-1.05.525v3.18a3.098 3.098 0 0 0-2.04-.72c-1.95 0-3.165 1.485-3.165 4.005 0 2.445 1.2 4.02 3.165 4.02zm.12-.945c-1.35 0-2.19-1.365-2.19-3.075 0-1.965.78-3.06 2.19-3.06.975 0 1.605.6 1.92 1.11v3.825c-.42.765-1.155 1.2-1.92 1.2zm11.28.945c1.59 0 2.58-.825 2.58-2.1 0-1.545-1.305-2.07-2.445-2.52-.9-.36-1.755-.69-1.755-1.47 0-.615.57-1.005 1.455-1.005.84 0 1.44.435 1.83.825l.69-.585c-.615-.735-1.455-1.17-2.49-1.17-1.44 0-2.475.78-2.475 1.95 0 1.29 1.08 1.83 2.295 2.325.93.375 1.905.78 1.905 1.71 0 .72-.66 1.11-1.5 1.11-.795 0-1.53-.495-1.995-1.05l-.735.645c.645.765 1.605 1.335 2.64 1.335zm7.588 0c.885 0 1.74-.375 2.34-.87l-.57-.705c-.585.435-1.17.6-1.725.6-1.305 0-2.085-1.05-2.265-2.61h5.22c.03-.33.03-.57.03-.735 0-2.58-1.395-3.705-3.03-3.705-1.965 0-3.33 1.455-3.33 4.005 0 2.16 1.26 4.02 3.33 4.02zm-2.25-4.53c.09-1.74 1.02-2.55 2.25-2.55.81 0 1.95.48 1.965 2.55h-4.215zm10.19 4.53c.885 0 1.74-.375 2.34-.87l-.57-.705c-.585.435-1.17.6-1.725.6-1.305 0-2.085-1.05-2.265-2.61h5.22c.03-.33.03-.57.03-.735 0-2.58-1.395-3.705-3.03-3.705-1.965 0-3.33 1.455-3.33 4.005 0 2.16 1.26 4.02 3.33 4.02zm-2.25-4.53c.09-1.74 1.02-2.55 2.25-2.55.81 0 1.95.48 1.965 2.55h-4.215zm11.981 4.35h.96l1.5-4.65c.075-.24.195-.615.315-1.02.12.405.255.795.33 1.035l1.53 4.635h.945l1.89-7.665h-1.05l-1.215 5.52c-.06.3-.135.6-.195.915-.09-.315-.165-.615-.255-.915l-1.605-5.52h-.72l-1.605 5.52c-.075.285-.15.54-.225.84l-.18-.84-1.26-5.52h-1.05l1.89 7.665zm9.422 0h1.05v-4.71c0-1.665.81-2.19 1.89-2.19 1.02 0 1.785.6 1.785 2.22v4.68h1.05v-4.245c0-2.535-.87-3.6-2.745-3.6-.81 0-1.515.345-1.98 1.035v-4.02l-1.05.495v10.335zm12.803 0h.975v-5.19c0-2.175-1.455-2.655-2.55-2.655-1.05 0-2.07.45-2.685.84l.3.9c.57-.39 1.515-.825 2.28-.825.855 0 1.68.33 1.68 1.875v.645c-.75-.405-1.425-.54-2.07-.54-1.455 0-2.79.765-2.79 2.535 0 1.725 1.065 2.595 2.61 2.595.825 0 1.635-.375 2.25-.93v.75zm-2.145-.735c-1.11 0-1.74-.675-1.74-1.68 0-1.11.885-1.62 1.92-1.62.66 0 1.47.3 1.965.63v1.485c-.465.57-1.215 1.185-2.145 1.185zm7.434.915a2.78 2.78 0 0 0 1.395-.345l.12-1.095c-.285.195-.645.45-1.155.45-.735 0-.825-.555-.825-1.215v-4.695h1.95v-.945h-1.95v-3.165l-1.05.525v2.64h-1.305v.945h1.305v5.145c0 1.005.42 1.755 1.515 1.755zm-137.31 22c1.965 0 3.285-1.5 3.285-4.02 0-2.55-1.32-4.005-3.285-4.005s-3.285 1.5-3.285 4.02c0 2.55 1.32 4.005 3.285 4.005zm0-.945c-1.425 0-2.19-1.155-2.19-3.06 0-1.995.765-3.075 2.19-3.075 1.425 0 2.19 1.155 2.19 3.06 0 1.92-.795 3.075-2.19 3.075zm7.378.945a2.78 2.78 0 0 0 1.395-.345l.12-1.095c-.285.195-.645.45-1.155.45-.735 0-.825-.555-.825-1.215v-4.695h1.95v-.945h-1.95v-3.165l-1.05.525v2.64h-1.305v.945h1.305v5.145c0 1.005.42 1.755 1.515 1.755zm3.617-.18h1.05v-4.71c0-1.665.81-2.19 1.89-2.19 1.02 0 1.785.6 1.785 2.22v4.68h1.05v-4.245c0-2.535-.87-3.6-2.745-3.6-.81 0-1.515.345-1.98 1.035v-4.02l-1.05.495v10.335zm11.199.18c.885 0 1.74-.375 2.34-.87l-.57-.705c-.585.435-1.17.6-1.725.6-1.305 0-2.085-1.05-2.265-2.61h5.22c.03-.33.03-.57.03-.735 0-2.58-1.395-3.705-3.03-3.705-1.965 0-3.33 1.455-3.33 4.005 0 2.16 1.26 4.02 3.33 4.02zm-2.25-4.53c.09-1.74 1.02-2.55 2.25-2.55.81 0 1.95.48 1.965 2.55h-4.215zm7.384 4.35h1.05v-4.335c0-1.89 1.095-2.46 1.86-2.46.495 0 .795.165.99.285l.165-1.02c-.21-.15-.6-.315-1.08-.315-.945 0-1.59.525-1.935 1.26v-1.08h-1.05v7.665zm7.873.18c1.59 0 2.58-.825 2.58-2.1 0-1.545-1.305-2.07-2.445-2.52-.9-.36-1.755-.69-1.755-1.47 0-.615.57-1.005 1.455-1.005.84 0 1.44.435 1.83.825l.69-.585c-.615-.735-1.455-1.17-2.49-1.17-1.44 0-2.475.78-2.475 1.95 0 1.29 1.08 1.83 2.295 2.325.93.375 1.905.78 1.905 1.71 0 .72-.66 1.11-1.5 1.11-.795 0-1.53-.495-1.995-1.05l-.735.645c.645.765 1.605 1.335 2.64 1.335zm8.24-.18h1.05v-4.71c0-1.665.81-2.19 1.89-2.19 1.02 0 1.785.6 1.785 2.22v4.68h1.05v-4.245c0-2.535-.87-3.6-2.745-3.6-.81 0-1.515.345-1.98 1.035v-4.02l-1.05.495v10.335zm12.804 0h.975v-5.19c0-2.175-1.455-2.655-2.55-2.655-1.05 0-2.07.45-2.685.84l.3.9c.57-.39 1.515-.825 2.28-.825.855 0 1.68.33 1.68 1.875v.645c-.75-.405-1.425-.54-2.07-.54-1.455 0-2.79.765-2.79 2.535 0 1.725 1.065 2.595 2.61 2.595.825 0 1.635-.375 2.25-.93v.75zm-2.145-.735c-1.11 0-1.74-.675-1.74-1.68 0-1.11.885-1.62 1.92-1.62.66 0 1.47.3 1.965.63v1.485c-.465.57-1.215 1.185-2.145 1.185zm7.275.735h.735l2.805-7.665h-1.05l-1.815 5.22c-.09.27-.18.51-.27.81-.09-.3-.18-.54-.27-.81l-1.86-5.22h-1.08l2.805 7.665zm8.294.18c.885 0 1.74-.375 2.34-.87l-.57-.705c-.585.435-1.17.6-1.725.6-1.305 0-2.085-1.05-2.265-2.61h5.22c.03-.33.03-.57.03-.735 0-2.58-1.395-3.705-3.03-3.705-1.965 0-3.33 1.455-3.33 4.005 0 2.16 1.26 4.02 3.33 4.02zm-2.25-4.53c.09-1.74 1.02-2.55 2.25-2.55.81 0 1.95.48 1.965 2.55h-4.215zm12.897 4.35h.735l2.805-7.665h-1.05l-1.815 5.22c-.09.27-.18.51-.27.81-.09-.3-.18-.54-.27-.81l-1.86-5.22h-1.08l2.805 7.665zm8.249.18c1.965 0 3.285-1.5 3.285-4.02 0-2.55-1.32-4.005-3.285-4.005s-3.285 1.5-3.285 4.02c0 2.55 1.32 4.005 3.285 4.005zm0-.945c-1.425 0-2.19-1.155-2.19-3.06 0-1.995.765-3.075 2.19-3.075 1.425 0 2.19 1.155 2.19 3.06 0 1.92-.795 3.075-2.19 3.075zm7.377.945a2.78 2.78 0 0 0 1.395-.345l.12-1.095c-.285.195-.645.45-1.155.45-.735 0-.825-.555-.825-1.215v-4.695h1.95v-.945h-1.95v-3.165l-1.05.525v2.64h-1.305v.945h1.305v5.145c0 1.005.42 1.755 1.515 1.755zm6.276 0c.885 0 1.74-.375 2.34-.87l-.57-.705c-.585.435-1.17.6-1.725.6-1.305 0-2.085-1.05-2.265-2.61h5.22c.03-.33.03-.57.03-.735 0-2.58-1.395-3.705-3.03-3.705-1.965 0-3.33 1.455-3.33 4.005 0 2.16 1.26 4.02 3.33 4.02zm-2.25-4.53c.09-1.74 1.02-2.55 2.25-2.55.81 0 1.95.48 1.965 2.55h-4.215zm10.025 4.53c.96 0 1.575-.375 2.04-.84v.66h1.05v-10.83l-1.05.525v3.18a3.098 3.098 0 0 0-2.04-.72c-1.95 0-3.165 1.485-3.165 4.005 0 2.445 1.2 4.02 3.165 4.02zm.12-.945c-1.35 0-2.19-1.365-2.19-3.075 0-1.965.78-3.06 2.19-3.06.975 0 1.605.6 1.92 1.11v3.825c-.42.765-1.155 1.2-1.92 1.2zm11.879.945c1.965 0 3.285-1.5 3.285-4.02 0-2.55-1.32-4.005-3.285-4.005s-3.285 1.5-3.285 4.02c0 2.55 1.32 4.005 3.285 4.005zm0-.945c-1.425 0-2.19-1.155-2.19-3.06 0-1.995.765-3.075 2.19-3.075 1.425 0 2.19 1.155 2.19 3.06 0 1.92-.795 3.075-2.19 3.075zm10.183.765h1.05v-4.245c0-2.535-.87-3.6-2.745-3.6-.81 0-1.5.33-1.98 1.02v-.84h-1.05v7.665h1.05v-4.71c0-1.665.81-2.19 1.89-2.19 1.02 0 1.785.6 1.785 2.22v4.68zm4.014.21c.54 0 .945-.465.945-.945 0-.48-.405-.945-.945-.945-.54 0-.945.465-.945.945 0 .48.405.945.945.945z" fill="#000"/><path opacity=".232" fill-rule="evenodd" clip-rule="evenodd" d="M161 142a9 9 0 0 1 9-9h131a9 9 0 0 1 9 9 9 9 0 0 1-9 9H170a9 9 0 0 1-9-9z" fill="#21D48E" fill-opacity=".466"/><path d="M182.264 146l-3.633-5.701-.34-.621.035.621V146h-1.248v-8.402h1.26l3.545 5.607.346.645-.036-.633v-5.619h1.248V146h-1.177zm5.642.146a2.96 2.96 0 0 1-1.154-.216 2.47 2.47 0 0 1-.879-.633 2.91 2.91 0 0 1-.562-1.014 4.38 4.38 0 0 1-.194-1.353c0-.504.067-.953.199-1.348a2.88 2.88 0 0 1 .563-1.008c.246-.277.539-.488.879-.633a2.943 2.943 0 0 1 1.148-.216c.364 0 .703.058 1.02.175.32.114.599.289.838.528.242.234.431.531.568.89.141.36.211.784.211 1.272 0 .133-.004.273-.012.422a2.564 2.564 0 0 1-.035.386h-4.131c.004.254.049.483.135.686.09.199.207.371.352.516.144.14.308.25.492.328.183.074.375.111.574.111a1.58 1.58 0 0 0 1.271-.621l.815.838c-.223.265-.508.48-.856.644-.347.164-.761.246-1.242.246zm0-5.32c-.195 0-.383.029-.562.088a1.28 1.28 0 0 0-.481.27c-.136.121-.25.281-.34.48a2.061 2.061 0 0 0-.158.727h2.93a2.062 2.062 0 0 0-.135-.727 1.311 1.311 0 0 0-.322-.48 1.203 1.203 0 0 0-.445-.27 1.404 1.404 0 0 0-.487-.088zm9.838 5.174h-1.107l-1.02-3.562a5.71 5.71 0 0 0-.064-.217 6.597 6.597 0 0 0-.059-.211 3.492 3.492 0 0 0-.047-.194 1.822 1.822 0 0 1-.023-.146 5.78 5.78 0 0 0-.029.152c-.008.059-.02.123-.036.194-.015.07-.033.142-.052.216l-.059.217L194.24 146h-1.107l-1.629-6.135h1.225l.861 3.821c.031.132.055.25.07.351l.053.27c.012-.082.027-.176.047-.282.023-.105.051-.218.082-.339l1.019-3.821h1.155l1.019 3.821c.031.121.057.234.076.339.024.106.041.2.053.282a8.28 8.28 0 0 1 .123-.621l.861-3.821h1.225L197.744 146zm8.531 0h-1.166l-2.244-6.135h1.248l1.418 4.026c.035.105.065.197.088.275.027.078.055.166.082.264.024-.098.047-.186.07-.264.028-.078.059-.17.094-.275l1.406-4.026h1.249L206.275 146zm5.936.146c-.426 0-.811-.072-1.154-.216a2.47 2.47 0 0 1-.879-.633 2.927 2.927 0 0 1-.563-1.014 4.38 4.38 0 0 1-.193-1.353c0-.504.066-.953.199-1.348.133-.398.32-.734.563-1.008.246-.277.539-.488.878-.633a2.948 2.948 0 0 1 1.149-.216c.363 0 .703.058 1.019.175.321.114.6.289.838.528.243.234.432.531.569.89.14.36.211.784.211 1.272 0 .133-.004.273-.012.422a2.702 2.702 0 0 1-.035.386h-4.131c.004.254.049.483.135.686.09.199.207.371.351.516.145.14.309.25.492.328.184.074.375.111.575.111a1.58 1.58 0 0 0 1.271-.621l.815.838c-.223.265-.508.48-.856.644-.348.164-.762.246-1.242.246zm0-5.32c-.195 0-.383.029-.563.088a1.284 1.284 0 0 0-.48.27c-.137.121-.25.281-.34.48a2.04 2.04 0 0 0-.158.727h2.93a2.062 2.062 0 0 0-.135-.727 1.324 1.324 0 0 0-.322-.48 1.207 1.207 0 0 0-.446-.27 1.395 1.395 0 0 0-.486-.088zm4.078 5.174v-6.135h1.248v.744c.145-.312.332-.537.563-.673.23-.141.498-.211.802-.211.407 0 .75.123 1.032.369l-.182 1.154a1.882 1.882 0 0 0-.404-.205 1.48 1.48 0 0 0-.996-.018.972.972 0 0 0-.399.258 1.367 1.367 0 0 0-.299.492c-.078.204-.117.463-.117.78V146h-1.248zm6.744.146a3.544 3.544 0 0 1-1.359-.269 2.708 2.708 0 0 1-.545-.311 1.943 1.943 0 0 1-.41-.416l.885-.755a2.166 2.166 0 0 0 .931.556c.145.043.303.065.475.065.156 0 .301-.012.433-.036.133-.023.246-.06.34-.111a.557.557 0 0 0 .223-.199.574.574 0 0 0 .082-.316.506.506 0 0 0-.152-.37 1.391 1.391 0 0 0-.387-.281 4.173 4.173 0 0 0-.545-.24c-.203-.078-.408-.16-.615-.246a7.27 7.27 0 0 1-.563-.27 2.272 2.272 0 0 1-.492-.351 1.686 1.686 0 0 1-.346-.487 1.675 1.675 0 0 1-.129-.691c0-.273.055-.516.164-.727.114-.211.266-.386.457-.527.196-.144.422-.254.68-.328.262-.074.541-.111.838-.111.262 0 .502.025.721.076.222.051.422.119.597.205.18.086.338.185.475.299.137.109.256.224.357.345l-.902.715a2.045 2.045 0 0 0-.199-.17 1.349 1.349 0 0 0-.264-.17 1.72 1.72 0 0 0-.345-.123 1.686 1.686 0 0 0-.44-.052c-.266 0-.477.048-.633.146a.472.472 0 0 0-.228.422c0 .117.041.221.123.311.082.085.193.166.334.24.14.074.301.146.48.217.184.066.375.138.574.216.211.082.418.174.622.276a2.2 2.2 0 0 1 .539.375c.16.148.287.328.38.539.098.211.147.465.147.762 0 .292-.055.552-.164.779-.11.222-.266.41-.469.562-.199.149-.441.26-.726.334a3.536 3.536 0 0 1-.944.117zm3.826-.146v-6.135h1.248V146h-1.248zm.621-7.09a.765.765 0 0 1-.539-.217.77.77 0 0 1-.158-.832.754.754 0 0 1 .399-.404.765.765 0 0 1 .996.404.77.77 0 0 1 0 .592.75.75 0 0 1-.698.457zm4.934 7.236a3.02 3.02 0 0 1-1.166-.216 2.408 2.408 0 0 1-.879-.627 2.936 2.936 0 0 1-.562-1.008 4.391 4.391 0 0 1-.194-1.354c0-.503.065-.955.194-1.353.132-.399.32-.734.562-1.008.242-.277.535-.488.879-.633a2.949 2.949 0 0 1 1.166-.222c.426 0 .813.074 1.16.222.348.145.643.356.885.633.242.274.43.609.562 1.008.133.398.2.85.2 1.353 0 .504-.067.955-.2 1.354-.132.394-.32.73-.562 1.008a2.397 2.397 0 0 1-.885.627 3 3 0 0 1-1.16.216zm0-1.177c.238 0 .453-.047.645-.141.195-.094.359-.226.492-.398a1.83 1.83 0 0 0 .31-.639c.075-.25.112-.533.112-.85 0-.316-.037-.599-.112-.849a1.827 1.827 0 0 0-.31-.645 1.334 1.334 0 0 0-.492-.404 1.447 1.447 0 0 0-.645-.141 1.44 1.44 0 0 0-.644.141 1.396 1.396 0 0 0-.493.404 1.995 1.995 0 0 0-.31.645 3.11 3.11 0 0 0-.106.849c0 .317.035.6.106.85.074.25.178.463.31.639.137.172.301.304.493.398.191.094.406.141.644.141zm8.104 1.031v-3.662c0-.258-.032-.477-.094-.656a1.193 1.193 0 0 0-.258-.446.936.936 0 0 0-.387-.252 1.408 1.408 0 0 0-.486-.082c-.188 0-.361.026-.522.077a1.02 1.02 0 0 0-.416.234c-.117.109-.21.256-.281.439-.066.18-.099.401-.099.662V146h-1.248v-6.135h1.248v.592c.199-.254.427-.439.685-.557.258-.117.557-.175.897-.175.32 0 .615.046.884.14.27.09.502.239.698.446.199.207.353.476.463.808.109.332.164.738.164 1.219V146h-1.248zm10.459 0h-1.196v-.527a2.276 2.276 0 0 1-.281.246 2.45 2.45 0 0 1-.375.217 2.418 2.418 0 0 1-1.025.21c-.313 0-.602-.042-.868-.128a1.934 1.934 0 0 1-.691-.387 1.895 1.895 0 0 1-.463-.645 2.281 2.281 0 0 1-.164-.896c0-.352.066-.654.199-.908.133-.258.309-.469.528-.633.218-.168.468-.291.75-.369a3.445 3.445 0 0 1 1.687-.024c.262.059.496.149.703.27v-.34c0-.231-.027-.426-.082-.586a.858.858 0 0 0-.24-.387.9.9 0 0 0-.404-.217 2.188 2.188 0 0 0-.586-.07 2.92 2.92 0 0 0-.996.153c-.278.101-.53.236-.756.404l-.369-1.026c.125-.086.267-.166.427-.24.161-.078.336-.146.528-.205.191-.058.398-.103.621-.135a4.918 4.918 0 0 1 1.248-.023c.183.019.361.058.533.117.176.055.34.135.492.24.157.106.291.244.405.416.117.168.209.375.275.621.066.247.1.54.1.879V146zm-2.649-.961c.317 0 .596-.064.838-.193.246-.129.451-.284.615-.463v-.938a2.562 2.562 0 0 0-.603-.216 3.049 3.049 0 0 0-.709-.083c-.188 0-.364.018-.528.053a1.338 1.338 0 0 0-.433.17.811.811 0 0 0-.393.721c0 .293.102.525.305.697.207.168.51.252.908.252zm7.143.961h-1.166l-2.244-6.135h1.248l1.418 4.026c.035.105.064.197.087.275.028.078.055.166.082.264.024-.098.047-.186.071-.264l.094-.275 1.406-4.026h1.248L255.471 146zm8.15 0h-1.195v-.527a2.276 2.276 0 0 1-.281.246 2.55 2.55 0 0 1-.375.217 2.418 2.418 0 0 1-1.026.21c-.312 0-.601-.042-.867-.128a1.925 1.925 0 0 1-.691-.387 1.882 1.882 0 0 1-.463-.645 2.263 2.263 0 0 1-.164-.896c0-.352.066-.654.199-.908.133-.258.308-.469.527-.633.219-.168.469-.291.75-.369a3.453 3.453 0 0 1 1.688-.024c.261.059.496.149.703.27v-.34c0-.231-.028-.426-.082-.586a.858.858 0 0 0-.24-.387.91.91 0 0 0-.405-.217 2.183 2.183 0 0 0-.586-.07 2.92 2.92 0 0 0-.996.153 2.978 2.978 0 0 0-.756.404l-.369-1.026a2.91 2.91 0 0 1 .428-.24c.16-.078.336-.146.527-.205.192-.058.399-.103.621-.135a4.905 4.905 0 0 1 1.248-.023 2.4 2.4 0 0 1 .534.117c.175.055.339.135.492.24.156.106.291.244.404.416.117.168.209.375.275.621.067.247.1.54.1.879V146zm-2.648-.961c.316 0 .595-.064.838-.193.246-.129.451-.284.615-.463v-.938a3.042 3.042 0 0 0-1.313-.299c-.187 0-.363.018-.527.053a1.343 1.343 0 0 0-.434.17.83.83 0 0 0-.287.293.82.82 0 0 0-.105.428c0 .293.101.525.304.697.207.168.51.252.909.252zm4.347.961v-6.135h1.248V146h-1.248zm.621-7.09a.765.765 0 0 1-.539-.217.77.77 0 0 1-.158-.832.754.754 0 0 1 .399-.404.765.765 0 0 1 .996.404.77.77 0 0 1 0 .592.75.75 0 0 1-.698.457zm2.497 7.09v-8.074l1.248-.592V146h-1.248zm7.816 0h-1.195v-.527a2.29 2.29 0 0 1-.282.246 2.45 2.45 0 0 1-.375.217 2.395 2.395 0 0 1-.463.152 2.533 2.533 0 0 1-.562.058c-.313 0-.602-.042-.867-.128a1.938 1.938 0 0 1-.692-.387 1.909 1.909 0 0 1-.463-.645 2.281 2.281 0 0 1-.164-.896c0-.352.067-.654.2-.908.132-.258.308-.469.527-.633.219-.168.469-.291.75-.369a3.438 3.438 0 0 1 1.687-.024c.262.059.497.149.704.27v-.34c0-.231-.028-.426-.082-.586a.85.85 0 0 0-.241-.387.9.9 0 0 0-.404-.217 2.183 2.183 0 0 0-.586-.07 2.92 2.92 0 0 0-.996.153 2.978 2.978 0 0 0-.756.404l-.369-1.026a2.91 2.91 0 0 1 .428-.24c.16-.078.336-.146.527-.205a4.21 4.21 0 0 1 .621-.135 4.905 4.905 0 0 1 1.248-.023c.184.019.362.058.533.117.176.055.34.135.493.24.156.106.291.244.404.416.117.168.209.375.275.621.067.247.1.54.1.879V146zm-2.649-.961c.317 0 .596-.064.838-.193.246-.129.452-.284.616-.463v-.938a3.042 3.042 0 0 0-1.313-.299c-.187 0-.363.018-.527.053a1.343 1.343 0 0 0-.434.17.822.822 0 0 0-.287.293.82.82 0 0 0-.105.428c0 .293.101.525.304.697.207.168.51.252.908.252zm7.032 1.107a2.05 2.05 0 0 1-.867-.181 1.644 1.644 0 0 1-.317-.205 2.62 2.62 0 0 1-.264-.252V146h-1.248v-8.086l1.248-.58v3a1.87 1.87 0 0 1 .586-.434c.239-.117.526-.175.862-.175.375 0 .718.072 1.031.216.312.145.58.356.803.633.226.274.402.61.527 1.008.125.395.188.844.188 1.348 0 .519-.059.98-.176 1.382a2.832 2.832 0 0 1-.51 1.008c-.219.27-.486.475-.803.616-.312.14-.666.21-1.06.21zm-.153-1.177c.239 0 .448-.047.627-.141.18-.098.33-.234.451-.41a1.87 1.87 0 0 0 .282-.639c.062-.254.094-.537.094-.849 0-.66-.126-1.162-.376-1.506-.246-.348-.605-.522-1.078-.522-.16 0-.308.022-.445.065a1.772 1.772 0 0 0-.375.164c-.109.066-.205.14-.287.223a1.412 1.412 0 0 0-.188.24v2.677c.137.223.317.395.54.516.226.121.478.182.755.182zM284.75 146v-8.074l1.248-.592V146h-1.248zm5.602.146c-.426 0-.811-.072-1.155-.216a2.489 2.489 0 0 1-.879-.633 2.926 2.926 0 0 1-.562-1.014 4.38 4.38 0 0 1-.194-1.353c0-.504.067-.953.2-1.348a2.88 2.88 0 0 1 .562-1.008c.246-.277.539-.488.879-.633a2.948 2.948 0 0 1 1.149-.216c.363 0 .703.058 1.019.175.32.114.6.289.838.528a2.4 2.4 0 0 1 .568.89c.141.36.211.784.211 1.272 0 .133-.004.273-.011.422a2.553 2.553 0 0 1-.036.386h-4.13a1.8 1.8 0 0 0 .134.686c.09.199.207.371.352.516.144.14.308.25.492.328.184.074.375.111.574.111a1.576 1.576 0 0 0 1.272-.621l.814.838c-.222.265-.508.48-.855.644-.348.164-.762.246-1.242.246zm0-5.32c-.196 0-.383.029-.563.088a1.27 1.27 0 0 0-.48.27c-.137.121-.25.281-.34.48-.09.199-.143.441-.158.727h2.929a2.04 2.04 0 0 0-.135-.727 1.311 1.311 0 0 0-.322-.48 1.203 1.203 0 0 0-.445-.27 1.395 1.395 0 0 0-.486-.088z" fill="#21D48E"/><defs><filter id="filter0_f" x="298" y="40" width="191.214" height="253" filterUnits="userSpaceOnUse" color-interpolation-filters="sRGB"><feFlood flood-opacity="0" result="BackgroundImageFix"/><feBlend in="SourceGraphic" in2="BackgroundImageFix" result="shape"/><feGaussianBlur stdDeviation="5" result="effect1_foregroundBlur"/></filter><filter id="filter1_d" x="304" y="48" width="179.214" height="241" filterUnits="userSpaceOnUse" color-interpolation-filters="sRGB"><feFlood flood-opacity="0" result="BackgroundImageFix"/><feColorMatrix in="SourceAlpha" values="0 0 0 0 0 0 0 0 0 0 0 0 0 0 0 0 0 0 127 0"/><feOffset dy="2"/><feGaussianBlur stdDeviation="2"/><feColorMatrix values="0 0 0 0 0 0 0 0 0 0 0 0 0 0 0 0 0 0 0.1 0"/><feBlend in2="BackgroundImageFix" result="effect1_dropShadow"/><feBlend in="SourceGraphic" in2="effect1_dropShadow" result="shape"/></filter><filter id="filter2_d" x="379.185" y="72.799" width="29.588" height="32.566" filterUnits="userSpaceOnUse" color-interpolation-filters="sRGB"><feFlood flood-opacity="0" result="BackgroundImageFix"/><feColorMatrix in="SourceAlpha" values="0 0 0 0 0 0 0 0 0 0 0 0 0 0 0 0 0 0 127 0"/><feOffset/><feGaussianBlur stdDeviation="2"/><feColorMatrix values="0 0 0 0 1 0 0 0 0 1 0 0 0 0 1 0 0 0 0.5 0"/><feBlend in2="BackgroundImageFix" result="effect1_dropShadow"/><feBlend in="SourceGraphic" in2="effect1_dropShadow" result="shape"/></filter><filter id="filter3_f" x="2.879" y="35" width="185.502" height="251" filterUnits="userSpaceOnUse" color-interpolation-filters="sRGB"><feFlood flood-opacity="0" result="BackgroundImageFix"/><feBlend in="SourceGraphic" in2="BackgroundImageFix" result="shape"/><feGaussianBlur stdDeviation="1" result="effect1_foregroundBlur"/></filter><filter id="filter4_d" x=".879" y="35" width="189.502" height="255" filterUnits="userSpaceOnUse" color-interpolation-filters="sRGB"><feFlood flood-opacity="0" result="BackgroundImageFix"/><feColorMatrix in="SourceAlpha" values="0 0 0 0 0 0 0 0 0 0 0 0 0 0 0 0 0 0 127 0"/><feOffset dy="2"/><feGaussianBlur stdDeviation="2"/><feColorMatrix values="0 0 0 0 0 0 0 0 0 0 0 0 0 0 0 0 0 0 0.1 0"/><feBlend in2="BackgroundImageFix" result="effect1_dropShadow"/><feBlend in="SourceGraphic" in2="effect1_dropShadow" result="shape"/></filter><filter id="filter5_d" x="86.164" y="70.024" width="19.726" height="20.191" filterUnits="userSpaceOnUse" color-interpolation-filters="sRGB"><feFlood flood-opacity="0" result="BackgroundImageFix"/><feColorMatrix in="SourceAlpha" values="0 0 0 0 0 0 0 0 0 0 0 0 0 0 0 0 0 0 127 0"/><feOffset/><feGaussianBlur stdDeviation="1.5"/><feColorMatrix values="0 0 0 0 1 0 0 0 0 1 0 0 0 0 1 0 0 0 0.5 0"/><feBlend in2="BackgroundImageFix" result="effect1_dropShadow"/><feBlend in="SourceGraphic" in2="effect1_dropShadow" result="shape"/></filter><filter id="filter6_d" x="117" y="0" width="238" height="321" filterUnits="userSpaceOnUse" color-interpolation-filters="sRGB"><feFlood flood-opacity="0" result="BackgroundImageFix"/><feColorMatrix in="SourceAlpha" values="0 0 0 0 0 0 0 0 0 0 0 0 0 0 0 0 0 0 127 0"/><feOffset dy="2"/><feGaussianBlur stdDeviation="2"/><feColorMatrix values="0 0 0 0 0 0 0 0 0 0 0 0 0 0 0 0 0 0 0.1 0"/><feBlend in2="BackgroundImageFix" result="effect1_dropShadow"/><feBlend in="SourceGraphic" in2="effect1_dropShadow" result="shape"/></filter><filter id="filter7_d" x="232.387" y="51.501" width="24.517" height="24.641" filterUnits="userSpaceOnUse" color-interpolation-filters="sRGB"><feFlood flood-opacity="0" result="BackgroundImageFix"/><feColorMatrix in="SourceAlpha" values="0 0 0 0 0 0 0 0 0 0 0 0 0 0 0 0 0 0 127 0"/><feOffset/><feGaussianBlur stdDeviation="2"/><feColorMatrix values="0 0 0 0 1 0 0 0 0 1 0 0 0 0 1 0 0 0 0.5 0"/><feBlend in2="BackgroundImageFix" result="effect1_dropShadow"/><feBlend in="SourceGraphic" in2="effect1_dropShadow" result="shape"/></filter><filter id="filter8_d" x="215" y="37.592" width="24.517" height="24.641" filterUnits="userSpaceOnUse" color-interpolation-filters="sRGB"><feFlood flood-opacity="0" result="BackgroundImageFix"/><feColorMatrix in="SourceAlpha" values="0 0 0 0 0 0 0 0 0 0 0 0 0 0 0 0 0 0 127 0"/><feOffset/><feGaussianBlur stdDeviation="2"/><feColorMatrix values="0 0 0 0 1 0 0 0 0 1 0 0 0 0 1 0 0 0 0.5 0"/><feBlend in2="BackgroundImageFix" result="effect1_dropShadow"/><feBlend in="SourceGraphic" in2="effect1_dropShadow" result="shape"/></filter><linearGradient id="paint0_linear" x1="373.508" y1="68.61" x2="373.508" y2="110.297" gradientUnits="userSpaceOnUse"><stop stop-color="#FAD961"/><stop offset="1" stop-color="#FF8946"/></linearGradient><linearGradient id="paint1_linear" x1="122.114" y1="70.56" x2="88.745" y2="40.833" gradientUnits="userSpaceOnUse"><stop stop-color="#46C4E6"/><stop offset="1" stop-color="#4A80E4"/></linearGradient><linearGradient id="paint2_linear" x1="-28.958" y1="247.193" x2="-18.783" y2="304.907" gradientUnits="userSpaceOnUse"><stop stop-color="#00C7E4"/><stop offset="1" stop-color="#00EFE2"/><stop offset="1" stop-color="#00EFE2"/></linearGradient><linearGradient id="paint3_linear" x1="208" y1="18.662" x2="189.324" y2="74.662" gradientUnits="userSpaceOnUse"><stop stop-color="#A8ED2F"/><stop offset="1" stop-color="#68DFB1"/></linearGradient><linearGradient id="paint4_linear" x1="75.229" y1="268.358" x2="88.122" y2="341.494" gradientUnits="userSpaceOnUse"><stop stop-color="#00C7E4"/><stop offset="1" stop-color="#00EFE2"/><stop offset="1" stop-color="#00EFE2"/></linearGradient></defs></svg>