<svg width="549" height="384" fill="none" xmlns="http://www.w3.org/2000/svg"><g filter="url(#filter0_d)"><path fill-rule="evenodd" clip-rule="evenodd" d="M180 111.59a6 6 0 0 1 6-6h106.67a6 6 0 0 1 6 6v76.313a6 6 0 0 1-6 6H186a6 6 0 0 1-6-6V111.59z" fill="#fff"/></g><path d="M214.263 175v-12.6h7.578v1.368h-6.084v4.086h5.58v1.332h-5.58v4.446h6.084V175h-7.578zm9.287 0l3.222-4.896-3.024-4.644h1.62l2.322 3.672h.036l2.322-3.672h1.602l-3.006 4.644 3.222 4.896h-1.638l-2.52-3.924h-.036L225.188 175h-1.638zm11.767-6.156v3.024c0 .552.234 1.038.702 1.458.468.408 1.05.612 1.746.612.948 0 1.674-.324 2.178-.972.516-.648.774-1.56.774-2.736 0-1.164-.258-2.07-.774-2.718-.516-.66-1.242-.99-2.178-.99-.732 0-1.326.24-1.782.72-.444.48-.666 1.014-.666 1.602zm-1.476 10.206v-13.59h1.404v.918h.036c.24-.3.6-.57 1.08-.81.48-.252 1.032-.378 1.656-.378 1.188 0 2.178.462 2.97 1.386.792.912 1.188 2.13 1.188 3.654 0 1.536-.384 2.76-1.152 3.672-.768.912-1.77 1.368-3.006 1.368a3.501 3.501 0 0 1-1.62-.378c-.492-.252-.84-.522-1.044-.81h-.036v4.968h-1.476zm14.465-5.112c.804 0 1.47-.324 1.998-.972.54-.66.81-1.572.81-2.736 0-1.164-.264-2.07-.792-2.718-.528-.66-1.2-.99-2.016-.99-.84 0-1.53.324-2.07.972-.54.636-.81 1.548-.81 2.736 0 1.188.27 2.106.81 2.754.54.636 1.23.954 2.07.954zm0 1.332c-1.26 0-2.298-.444-3.114-1.332-.816-.888-1.224-2.124-1.224-3.708 0-1.56.42-2.79 1.26-3.69.84-.9 1.866-1.35 3.078-1.35 1.2 0 2.208.45 3.024 1.35.828.9 1.242 2.13 1.242 3.69 0 1.584-.402 2.82-1.206 3.708-.804.888-1.824 1.332-3.06 1.332zm6.699-.27v-9.54h1.404v1.026h.036c.192-.384.474-.678.846-.882.372-.204.75-.306 1.134-.306.144 0 .282.018.414.054.144.024.252.048.324.072l.09.054-.27 1.458c-.18-.096-.432-.144-.756-.144-.612 0-1.056.204-1.332.612-.276.396-.414 1.038-.414 1.926V175h-1.476zm6.828-2.772v-5.454h-1.332v-1.314h1.368v-2.34h1.404v2.34h2.358v1.314h-2.34v5.274c0 .564.078.96.234 1.188.156.228.468.342.936.342h.72V175h-.792c-.9 0-1.554-.228-1.962-.684-.396-.468-.594-1.164-.594-2.088z" fill="#8BAEBC"/><path d="M237.64 138.358l.841.783v-14.744a.374.374 0 0 1 .745 0v14.744l.841-.783 5.506-5.13h0a.376.376 0 0 1 .606.138.375.375 0 0 1 .024.14.372.372 0 0 1-.117.256l-6.962 6.482-.037.028h0l-.008.006-.032.026-.033.018-.016.008h-.029l-.049.01a.35.35 0 0 1-.137 0l-.049-.01h-.029l-.016-.008-.033-.018-.032-.026h0l-.008-.006-.037-.028-6.962-6.482a.37.37 0 0 1-.117-.256.375.375 0 0 1 .1-.261.364.364 0 0 1 .261-.117.374.374 0 0 1 .269.1h0l5.51 5.13zm13.928 5.051a.366.366 0 0 1 .108.258v3.466c0 .786-.315 1.54-.875 2.096-.56.557-1.321.87-2.115.87H229.49a2.999 2.999 0 0 1-2.115-.87 2.95 2.95 0 0 1-.875-2.096v-3.466c0-.096.038-.189.108-.258a.375.375 0 0 1 .637.258v3.466c0 .594.237 1.162.659 1.581.421.418.992.652 1.586.652h19.196c.594 0 1.165-.234 1.586-.652a2.23 2.23 0 0 0 .659-1.581v-3.466c0-.096.038-.189.108-.258a.377.377 0 0 1 .529 0z" fill="#F9FAFC" stroke="#5D6F85"/><g filter="url(#filter1_d)"><path fill-rule="evenodd" clip-rule="evenodd" d="M304.3 206.343a6 6 0 0 1 6-6h106.67a6 6 0 0 1 6 6v76.312a6 6 0 0 1-6 6H310.3a6 6 0 0 1-6-6v-76.312z" fill="#fff"/></g><g clip-path="url(#clip0)"><path d="M368.531 242.691v-7.425a2.73 2.73 0 0 0-2.729-2.728h-23.005a2.728 2.728 0 0 0-2.729 2.728v7.425a2.728 2.728 0 0 0 2.729 2.729H365.8a2.73 2.73 0 0 0 2.731-2.729zm-20.723-1.486c.588 0 1.047-.098 1.423-.246l.294 1.833c-.443.196-1.274.36-2.225.36-2.586 0-4.239-1.57-4.239-4.09 0-2.339 1.603-4.254 4.58-4.254.655 0 1.375.114 1.9.313l-.392 1.846c-.294-.132-.737-.246-1.391-.246-1.309 0-2.159.932-2.143 2.241 0 1.473.983 2.243 2.193 2.243zm5.221 1.947c-1.046 0-1.978-.227-2.585-.556l.442-1.783c.459.276 1.407.607 2.143.607.753 0 1.065-.262 1.065-.673 0-.408-.246-.604-1.179-.914-1.65-.556-2.288-1.457-2.272-2.408 0-1.488 1.274-2.617 3.255-2.617.935 0 1.767.215 2.26.458l-.443 1.72c-.363-.199-1.049-.459-1.735-.459-.606 0-.948.247-.948.655 0 .376.313.572 1.293.916 1.523.522 2.159 1.293 2.174 2.469 0 1.489-1.178 2.585-3.47 2.585zm9.529-.164h-2.488l-2.914-8.002h2.7l1.08 3.713c.196.671.345 1.312.459 1.947h.05c.132-.654.262-1.26.442-1.947l1.031-3.713h2.617l-2.977 8.002z" fill="#5D6F84"/><path d="M379.786 224.26h-29.7c-.625 0-1.136.509-1.136 1.137v5.43h3.412v-3.719h24.979v26.725l-6.776-.005c-.336 0-.654.135-.892.373a1.25 1.25 0 0 0-.369.89l.024 8.479h-16.966v-16.489h-3.412v18.362c0 .625.509 1.134 1.136 1.134h22.151c.326 0 .63-.141.847-.379l7.55-8.453a1.13 1.13 0 0 0 .286-.755v-31.593a1.134 1.134 0 0 0-1.134-1.137z" fill="#C6DBE3"/></g><path opacity=".5" fill-rule="evenodd" clip-rule="evenodd" d="M180 206a6 6 0 0 1 6-6h106.67a6 6 0 0 1 6 6v76.313a6 6 0 0 1-6 6H186a6 6 0 0 1-6-6V206z" fill="#fff"/><path opacity=".2" fill-rule="evenodd" clip-rule="evenodd" d="M180 301a6 6 0 0 1 6-6h106.67a6 6 0 0 1 6 6v76.313a6 6 0 0 1-6 6H186a6 6 0 0 1-6-6V301z" fill="#fff"/><path opacity=".25" fill-rule="evenodd" clip-rule="evenodd" d="M305 301a6 6 0 0 1 6-6h106.67a6 6 0 0 1 6 6v76.313a6 6 0 0 1-6 6H311a6 6 0 0 1-6-6V301z" fill="#fff"/><path opacity=".15" fill-rule="evenodd" clip-rule="evenodd" d="M180 17a6 6 0 0 1 6-6h106.67a6 6 0 0 1 6 6v76.313a6 6 0 0 1-6 6H186a6 6 0 0 1-6-6V17z" fill="#fff"/><path opacity=".4" fill-rule="evenodd" clip-rule="evenodd" d="M55 16.838a6 6 0 0 1 6-6h106.67a6 6 0 0 1 6 6V93.15a6 6 0 0 1-6 6H61a6 6 0 0 1-6-6V16.838z" fill="#fff"/><path opacity=".2" fill-rule="evenodd" clip-rule="evenodd" d="M55 112a6 6 0 0 1 6-6h106.67a6 6 0 0 1 6 6v76.313a6 6 0 0 1-6 6H61a6 6 0 0 1-6-6V112z" fill="#fff"/><path opacity=".1" fill-rule="evenodd" clip-rule="evenodd" d="M55 206a6 6 0 0 1 6-6h106.67a6 6 0 0 1 6 6v76.313a6 6 0 0 1-6 6H61a6 6 0 0 1-6-6V206z" fill="#fff"/><path opacity=".15" fill-rule="evenodd" clip-rule="evenodd" d="M55 301a6 6 0 0 1 6-6h106.67a6 6 0 0 1 6 6v76.313a6 6 0 0 1-6 6H61a6 6 0 0 1-6-6V301z" fill="#fff"/><path opacity=".2" fill-rule="evenodd" clip-rule="evenodd" d="M430 301a6 6 0 0 1 6-6h106.67a6 6 0 0 1 6 6v76.313a6 6 0 0 1-6 6H436a6 6 0 0 1-6-6V301z" fill="#fff"/><path opacity=".1" fill-rule="evenodd" clip-rule="evenodd" d="M430.33 206.343a6 6 0 0 1 6-6H543a6 6 0 0 1 6 6v76.313a6 6 0 0 1-6 6H436.33a6 6 0 0 1-6-6v-76.313z" fill="#fff"/><path opacity=".2" fill-rule="evenodd" clip-rule="evenodd" d="M430.33 16.838a6 6 0 0 1 6-6H543a6 6 0 0 1 6 6V93.15a6 6 0 0 1-6 6H436.33a6 6 0 0 1-6-6V16.838z" fill="#fff"/><path opacity=".3" fill-rule="evenodd" clip-rule="evenodd" d="M305.22 16.838a6 6 0 0 1 6-6h106.67a6 6 0 0 1 6 6V93.15a6 6 0 0 1-6 6H311.22a6 6 0 0 1-6-6V16.838z" fill="#fff"/><path opacity=".5" fill-rule="evenodd" clip-rule="evenodd" d="M305 112a6 6 0 0 1 6-6h106.67a6 6 0 0 1 6 6v76.313a6 6 0 0 1-6 6H311a6 6 0 0 1-6-6V112z" fill="#fff"/><path d="M363.994 116l-.459 1.572v45.614l.459.462 20.993-12.516L363.994 116z" fill="#fff"/><path d="M363.994 116L343 151.132l20.994 12.516V116z" fill="#FFEEDF"/><path d="M363.994 167.657l-.259.318v16.248l.259.762L385 155.147l-21.006 12.51z" fill="#fff"/><path d="M363.994 184.984v-17.327L343 155.147l20.994 29.837z" fill="#FFEEDF"/><path d="M363.994 163.648l20.993-12.516-20.993-9.624v22.14z" fill="#FFF3E8"/><path d="M343 151.132l20.994 12.516v-22.14L343 151.132z" fill="#FFE4CB"/><g opacity=".6"><path d="M489.994 305l-.459 1.572v45.614l.459.462 20.993-12.516L489.994 305z" fill="#fff"/><path d="M489.994 305L469 340.132l20.994 12.516V305z" fill="#FFEEDF"/><path d="M489.994 356.657l-.259.318v16.248l.259.762L511 344.147l-21.006 12.51z" fill="#fff"/><path d="M489.994 373.984v-17.327L469 344.147l20.994 29.837z" fill="#FFEEDF"/><path d="M489.994 352.648l20.993-12.516-20.993-9.624v22.14z" fill="#FFF3E8"/><path d="M469 340.132l20.994 12.516v-22.14L469 340.132z" fill="#FFE4CB"/></g><path d="M252.197 252.279c1.782 2.366 3.62 4.786 5.457 7.207-3.675 4.291-8.24 7.041-13.753 8.196-6.124 1.266-11.915.33-17.539-2.75 5.011-3.686 9.911-7.317 14.867-10.947 1.113 1.045 2.171 2.09 3.229 3.08 1.169 1.1.724 1.155 2.227.33a15.372 15.372 0 0 0 5.123-4.676c.055-.11.167-.22.222-.33-.055 0 0 0 .167-.11zm-21.882 4.841c-1.391 1.045-2.672 1.981-3.953 2.971-.946.715-1.893 1.375-2.839 2.09-.39.33-.669.33-1.114-.055-4.232-3.741-6.904-8.361-7.906-13.863-1.003-5.556-.112-10.837 2.561-15.843.055-.11.167-.275.223-.385 0-.055.055-.055.167-.11 3.674 4.786 7.405 9.572 11.08 14.358-.112.165-.167.275-.279.385-1.113 1.155-2.227 2.311-3.396 3.411-.334.33-.39.605-.167.99 1.169 2.2 2.784 4.016 4.788 5.501.279.165.501.33.835.55zm20.769-34.162a313.167 313.167 0 0 1-5.345 3.741c-3.063 2.146-6.125 4.346-9.132 6.491-.39.275-.668.33-1.002-.055-1.002-1.045-2.06-1.98-3.062-3.025-.279-.275-.557-.33-.947-.165-2.394 1.21-4.287 2.915-5.846 5.061-.112.11-.223.275-.334.44-.891-1.155-1.726-2.201-2.562-3.301-.89-1.155-1.726-2.31-2.561-3.411-.278-.385-.334-.66.056-1.045 4.287-4.676 9.577-7.426 15.924-8.086 5.011-.55 9.8.44 14.254 2.805.167.11.334.165.501.275 0 .165 0 .22.056.275zm9.076 33.007a437.447 437.447 0 0 1-3.285-4.236c-2.45-3.19-4.9-6.436-7.406-9.627-.334-.44-.334-.715.056-1.1 1.058-1.045 2.06-2.09 3.118-3.136.278-.275.39-.55.167-.935a16.363 16.363 0 0 0-5.067-5.776c-.167-.11-.334-.275-.557-.385.167-.165.334-.275.446-.385 2.116-1.595 4.231-3.136 6.347-4.731.334-.275.613-.385 1.002 0 5.29 4.731 8.13 10.617 8.408 17.713.111 4.126-.835 8.032-2.728 11.718-.167.22-.334.495-.501.88z" fill="#FFE4CB" opacity=".8"/><path d="M499.197 252.279c1.782 2.366 3.62 4.786 5.457 7.207-3.675 4.291-8.241 7.041-13.753 8.196-6.124 1.266-11.915.33-17.539-2.75 5.011-3.686 9.911-7.317 14.867-10.947 1.113 1.045 2.171 2.09 3.229 3.08 1.169 1.1.724 1.155 2.227.33a15.372 15.372 0 0 0 5.123-4.676c.055-.11.167-.22.222-.33-.055 0 0 0 .167-.11zm-21.882 4.841c-1.392 1.045-2.672 1.981-3.953 2.971-.946.715-1.893 1.375-2.839 2.09-.39.33-.669.33-1.114-.055-4.232-3.741-6.904-8.361-7.906-13.863-1.003-5.556-.112-10.837 2.561-15.843.055-.11.167-.275.222-.385 0-.055.056-.055.168-.11 3.674 4.786 7.405 9.572 11.08 14.358-.112.165-.167.275-.279.385-1.113 1.155-2.227 2.311-3.396 3.411-.334.33-.39.605-.167.99 1.169 2.2 2.784 4.016 4.788 5.501.279.165.501.33.835.55zm20.769-34.162a313.167 313.167 0 0 1-5.345 3.741c-3.063 2.146-6.125 4.346-9.132 6.491-.39.275-.668.33-1.002-.055-1.002-1.045-2.06-1.98-3.062-3.025-.279-.275-.557-.33-.947-.165-2.394 1.21-4.287 2.915-5.846 5.061-.112.11-.223.275-.334.44-.891-1.155-1.726-2.201-2.562-3.301-.89-1.155-1.726-2.31-2.561-3.411-.278-.385-.334-.66.056-1.045 4.287-4.676 9.577-7.426 15.924-8.086 5.011-.55 9.8.44 14.254 2.805.167.11.334.165.501.275 0 .165 0 .22.056.275zm9.076 33.007a437.447 437.447 0 0 1-3.285-4.236c-2.45-3.19-4.9-6.436-7.406-9.627-.334-.44-.334-.715.056-1.1 1.058-1.045 2.06-2.09 3.118-3.136.278-.275.39-.55.167-.935a16.363 16.363 0 0 0-5.067-5.776c-.167-.11-.334-.275-.557-.385.167-.165.334-.275.446-.385 2.116-1.595 4.231-3.136 6.347-4.731.334-.275.613-.385 1.002 0 5.29 4.731 8.13 10.617 8.408 17.713.111 4.126-.835 8.032-2.728 11.718-.167.22-.334.495-.501.88z" fill="#FFE4CB" opacity=".4"/><g opacity=".5"><path d="M239 81c14.359 0 26-11.64 26-26s-11.641-26-26-26-26 11.64-26 26 11.641 26 26 26z" fill="#FFE7D0"/><path d="M232.883 58.522c-3.32 0-6.012 2.7-6.012 6.03s2.692 6.029 6.012 6.029c3.321 0 6.013-2.7 6.013-6.03s-2.692-6.03-6.013-6.03zm0 10.235a4.198 4.198 0 0 1-4.191-4.204 4.197 4.197 0 0 1 4.191-4.203 4.198 4.198 0 0 1 4.192 4.203 4.204 4.204 0 0 1-4.192 4.204zm12.841-23.097c-3.321 0-6.013 2.7-6.013 6.03s2.692 6.029 6.013 6.029c3.32 0 6.012-2.7 6.012-6.03s-2.691-6.03-6.012-6.03zm0 10.235a4.199 4.199 0 0 1-4.192-4.204 4.197 4.197 0 0 1 4.192-4.203 4.197 4.197 0 0 1 4.192 4.203 4.205 4.205 0 0 1-4.192 4.204zM232.883 45.66a6.02 6.02 0 0 0-5.899 4.834 6.037 6.037 0 0 0 3.554 6.756 6.03 6.03 0 0 0 6.651-9.766h1.705V45.66h-6.011zm4.192 6.03a4.198 4.198 0 0 1-4.192 4.204 4.197 4.197 0 0 1-4.191-4.204 4.196 4.196 0 0 1 4.191-4.203c2.315 0 4.19 1.883 4.194 4.204h-.002z" fill="#FFF8F0"/></g><g opacity=".5" clip-path="url(#clip1)"><path d="M489.362 31.136c1.134-.566 2.517.747 1.915 1.83-.35.884-1.676 1.12-2.353.446-.718-.647-.484-1.924.438-2.276zm-12.19 1.258c.689-.271 1.56.333 1.49 1.05.073.78-.923 1.355-1.625.984-.93-.345-.823-1.79.135-2.034zm24.967 2.056c-1.076-.125-1.246-1.744-.21-2.07.803-.375 1.54.328 1.658 1.057-.169.623-.713 1.193-1.448 1.013zm-22.193 2.911c1.151-.697 2.793.341 2.616 1.621-.06 1.292-1.853 2.041-2.864 1.167-.978-.686-.83-2.26.248-2.788zm17.571.74c.513-1.267 2.594-1.306 3.179-.072.577.96-.133 2.148-1.163 2.474-1.363.244-2.658-1.167-2.016-2.402zm-9.623 2.33c-.011-1.089 1.025-1.9 2.106-1.974.717.137 1.499.43 1.806 1.123.574.955.065 2.271-.971 2.71-.474.254-1.034.158-1.55.129-.788-.37-1.452-1.098-1.391-1.987zm-18.128 1.587c1.051-.618 2.47.51 2.072 1.604-.219.946-1.548 1.331-2.307.727-.81-.566-.682-1.926.235-2.33zm38.928-.002c.892-.663 2.364.098 2.258 1.176.06.983-1.213 1.725-2.098 1.219-.976-.42-1.075-1.857-.16-2.395zm-15.702 1.958c1.472-.506 3.221.1 4.06 1.356 1.107 1.536.518 3.876-1.2 4.757-1.779 1.042-4.378.159-5.035-1.744-.747-1.703.341-3.835 2.175-4.369zm-8.637.168c1.632-.738 3.827-.12 4.615 1.479.928 1.555.211 3.72-1.447 4.523-1.66.903-4.002.219-4.806-1.451-.901-1.615-.101-3.808 1.638-4.551zm-8.648 2.83c.124-1.006 1.115-1.661 2.116-1.729 1.078.125 1.939.926 2.056 1.97-.07 1.035-.905 2.045-2.05 2.04-1.259.103-2.363-1.096-2.122-2.28zm25.544-1.51c1.293-.72 3.088.328 3.031 1.75.088 1.507-1.898 2.568-3.186 1.685-1.337-.736-1.233-2.808.155-3.435zm-20.411 5.31c1.512-.399 3.241.284 3.982 1.614.813 1.34.481 3.2-.781 4.182-1.618 1.44-4.602.862-5.463-1.104-.99-1.803.212-4.218 2.262-4.692zm16.383-.008c1.469-.403 3.196.14 3.986 1.422 1.045 1.466.546 3.653-1.009 4.598-1.629 1.097-4.153.521-5.049-1.195-1.087-1.775.006-4.284 2.072-4.825zm-26.107 1.673c1.306-.473 2.754.907 2.225 2.146-.324 1.13-1.986 1.547-2.845.714-1.005-.781-.633-2.521.62-2.86zm35.399 1.799a1.945 1.945 0 0 1 1.864-2.011c.894.136 1.764.826 1.693 1.758.082 1.232-1.468 2.069-2.563 1.49-.514-.25-.777-.754-.994-1.237zm-41.821-1.191c.786-.328 1.758.323 1.579 1.159-.042.946-1.501 1.31-2.037.52-.473-.55-.19-1.396.458-1.68zm49.542-.019c.553-.377 1.441-.106 1.66.513.372.675-.31 1.602-1.105 1.487-1.115.098-1.476-1.53-.555-2zm-29.128 4.54c2.067-.514 4.29 1.136 4.303 3.174.135 2.06-2.054 3.886-4.171 3.41-1.635-.252-2.919-1.76-2.866-3.343-.004-1.514 1.189-2.92 2.734-3.24zm8.188-.004c2.098-.561 4.387 1.119 4.354 3.204.11 2.022-2.01 3.786-4.082 3.385-1.95-.241-3.389-2.292-2.845-4.104.275-1.207 1.329-2.189 2.573-2.485zm-15.787 1.255c1.452-.237 2.813 1.314 2.224 2.634-.429 1.406-2.567 1.788-3.513.639-1.109-1.104-.281-3.12 1.289-3.273zm24.012.062c1.295-.52 2.884.553 2.785 1.898.052 1.481-1.91 2.503-3.177 1.638-1.434-.776-1.173-3.06.392-3.536zm6.712 6.445c-.507-.905.414-2.104 1.463-1.937.522-.008.888.386 1.222.716.069.537.184 1.176-.281 1.59-.631.764-2.061.546-2.404-.37zm-38.472-1.685c.981-.625 2.392.307 2.172 1.405-.117.97-1.395 1.526-2.236.975-.903-.5-.87-1.924.064-2.38zm19.376 2.032c1.283-.542 2.919.528 2.797 1.882.096 1.496-1.927 2.532-3.183 1.633-1.394-.771-1.162-3.04.386-3.515zm-8.974 2.004c1.093-.55 2.561.401 2.461 1.573.033.962-.947 1.782-1.939 1.64-.821-.017-1.357-.722-1.62-1.393.013-.73.327-1.544 1.098-1.82zm18.177.017c1.125-.665 2.723.29 2.617 1.544.029 1.31-1.778 2.148-2.825 1.288-1.013-.674-.89-2.295.208-2.832zm3.161 7.482c-.5-.724.089-1.597.901-1.763.653.127 1.344.598 1.207 1.323-.095.98-1.594 1.282-2.108.44zm-25.092-.63c.199-.573.681-1.144 1.387-.995 1.03.07 1.335 1.555.434 2.013-.81.523-1.75-.193-1.821-1.017zm12.105.66c.197-.85 1.346-1.263 2.103-.812.5.206.647.742.775 1.197-.069.238-.13.475-.19.712-.31.352-.709.704-1.224.691-.959.108-1.824-.93-1.464-1.788z" fill="#FFE4CB"/></g><g opacity=".5" clip-path="url(#clip2)"><path d="M113.362 221.136c1.134-.566 2.517.747 1.915 1.831-.35.883-1.676 1.118-2.353.445-.718-.647-.484-1.924.438-2.276zm-12.19 1.258c.689-.271 1.56.332 1.49 1.051.073.78-.923 1.354-1.625.983-.93-.345-.823-1.79.135-2.034zm24.967 2.056c-1.076-.124-1.246-1.744-.21-2.07.803-.375 1.54.328 1.658 1.057-.169.623-.713 1.193-1.448 1.013zm-22.193 2.911c1.151-.697 2.793.341 2.616 1.621-.06 1.292-1.853 2.041-2.864 1.167-.978-.686-.83-2.26.248-2.788zm17.571.74c.513-1.267 2.594-1.306 3.179-.072.577.959-.133 2.148-1.163 2.474-1.363.244-2.658-1.167-2.016-2.402zm-9.623 2.33c-.011-1.089 1.025-1.9 2.106-1.974.717.137 1.499.43 1.806 1.123.574.955.065 2.271-.971 2.71-.474.254-1.034.158-1.55.129-.788-.371-1.452-1.098-1.391-1.988zm-18.128 1.587c1.051-.618 2.47.511 2.072 1.604-.22.946-1.548 1.331-2.307.727-.81-.566-.682-1.926.235-2.331zm38.928-.002c.892-.663 2.364.098 2.258 1.176.06.983-1.213 1.725-2.098 1.219-.976-.42-1.075-1.857-.16-2.395zm-15.702 1.958c1.472-.506 3.221.1 4.06 1.356 1.107 1.536.518 3.876-1.2 4.757-1.779 1.042-4.378.159-5.035-1.744-.747-1.703.341-3.835 2.175-4.369zm-8.637.168c1.632-.738 3.827-.119 4.615 1.479.928 1.555.211 3.72-1.447 4.523-1.66.903-4.002.219-4.806-1.451-.901-1.615-.101-3.808 1.638-4.551zm-8.648 2.83c.124-1.006 1.115-1.661 2.116-1.729 1.078.125 1.939.926 2.056 1.971-.07 1.034-.905 2.044-2.05 2.038-1.259.104-2.363-1.095-2.122-2.28zm25.544-1.51c1.293-.72 3.088.328 3.031 1.75.088 1.507-1.898 2.568-3.186 1.685-1.337-.736-1.233-2.808.155-3.435zm-20.411 5.31c1.512-.399 3.241.284 3.982 1.614.813 1.339.481 3.2-.781 4.182-1.618 1.441-4.602.862-5.463-1.104-.99-1.803.212-4.218 2.262-4.692zm16.383-.008c1.469-.402 3.196.14 3.986 1.422 1.045 1.466.546 3.653-1.009 4.598-1.629 1.097-4.153.521-5.049-1.195-1.087-1.775.006-4.284 2.072-4.825zm-26.107 1.673c1.306-.473 2.754.907 2.225 2.146-.324 1.13-1.986 1.547-2.845.714-1.005-.782-.633-2.521.62-2.86zm35.399 1.799a1.945 1.945 0 0 1 1.864-2.011c.894.136 1.764.826 1.693 1.759.082 1.231-1.468 2.068-2.563 1.489-.514-.25-.777-.754-.994-1.237zm-41.82-1.191c.785-.328 1.757.323 1.578 1.159-.042.946-1.501 1.309-2.037.519-.473-.549-.19-1.395.459-1.678zm49.541-.019c.553-.377 1.441-.106 1.66.513.372.676-.31 1.602-1.105 1.487-1.115.098-1.476-1.53-.555-2zm-29.128 4.54c2.067-.514 4.29 1.136 4.303 3.174.135 2.06-2.054 3.886-4.171 3.411-1.635-.253-2.919-1.761-2.866-3.344-.004-1.514 1.189-2.92 2.734-3.241zm8.188-.004c2.098-.561 4.387 1.119 4.354 3.204.11 2.022-2.01 3.786-4.082 3.385-1.95-.241-3.389-2.292-2.845-4.104.275-1.207 1.329-2.189 2.573-2.485zm-15.787 1.255c1.452-.237 2.813 1.314 2.224 2.634-.429 1.406-2.567 1.788-3.513.639-1.109-1.104-.28-3.121 1.289-3.273zm24.012.062c1.295-.519 2.884.553 2.785 1.898.052 1.481-1.91 2.503-3.177 1.638-1.434-.776-1.173-3.06.392-3.536zm6.712 6.445c-.507-.905.414-2.104 1.463-1.937.522-.008.888.386 1.222.716.069.536.184 1.176-.281 1.589-.631.765-2.061.547-2.404-.368zm-38.472-1.685c.981-.625 2.392.307 2.172 1.405-.117.971-1.395 1.526-2.236.975-.903-.5-.87-1.924.064-2.38zm19.376 2.032c1.283-.542 2.919.528 2.797 1.882.096 1.496-1.927 2.532-3.183 1.633-1.394-.771-1.162-3.04.386-3.515zm-8.974 2.005c1.093-.551 2.561.4 2.461 1.572.033.962-.947 1.782-1.939 1.64-.821-.017-1.357-.722-1.62-1.393.013-.73.327-1.544 1.098-1.819zm18.177.016c1.125-.665 2.723.291 2.617 1.544.029 1.309-1.778 2.148-2.825 1.288-1.013-.674-.89-2.295.208-2.832zm3.161 7.482c-.5-.724.089-1.597.901-1.763.653.128 1.344.598 1.207 1.323-.095.981-1.594 1.282-2.108.44zm-25.092-.629c.199-.574.681-1.145 1.387-.996 1.03.07 1.335 1.555.434 2.013-.81.523-1.75-.193-1.821-1.017zm12.105.659c.197-.85 1.346-1.263 2.103-.812.5.206.647.742.775 1.197-.069.238-.13.475-.19.712-.31.352-.709.704-1.224.691-.959.108-1.824-.93-1.464-1.788z" fill="#FFE4CB"/></g><path d="M364 26.516l27.879 27.879L364 82.273l-27.878-27.878L364 26.516z" fill="#FFFBF8"/><path d="M364 63.492l-27.902-9.098L364 26.515l27.902 27.879L364 63.492z" fill="#FFEEDF"/><path d="M345.803 52.574h12.738L364 46.508l6.066 6.066h12.737L364 32.254l-18.197 20.32z" fill="#fff"/><path opacity=".42" d="M364 82.272V26.515l27.878 27.879L364 82.272z" fill="#FFEFE1"/><g opacity=".8"><path d="M239 364c13.807 0 25-11.193 25-25s-11.193-25-25-25-25 11.193-25 25 11.193 25 25 25z" fill="#FFE4CB"/><path d="M234.782 337.47c-.872-.005-1.742.07-2.6.224.706-6.532 6.15-11.478 12.631-11.478 3.968 0 6.687 1.943 6.687 5.966s-3.263 5.966-8.025 5.966c-3.514 0-5.178-.678-8.693-.678zm-.257 2.382c-4.761 0-8.025 1.943-8.025 5.966s2.719 5.966 6.687 5.966c6.482 0 11.925-4.945 12.631-11.477-.858.154-1.728.228-2.6.224-3.515-.001-5.178-.679-8.693-.679z" fill="#FFF8F0"/></g><g opacity=".6"><path d="M114 364c13.807 0 25-11.193 25-25s-11.193-25-25-25-25 11.193-25 25 11.193 25 25 25z" fill="#FFE4CB"/><path d="M106.01 332.14l7.989 25.09-11.855-7.428 3.866-17.662 7.989-10.915v7.656l-11.855 20.921h23.722l-11.855-20.921v-7.656l7.99 10.915 3.865 17.662-11.855 7.428 7.99-25.09" stroke="#fff" stroke-linecap="round" stroke-linejoin="round"/></g><path opacity=".1" fill-rule="evenodd" clip-rule="evenodd" d="M430 112a6 6 0 0 1 6-6h106.67a6 6 0 0 1 6 6v76.313a6 6 0 0 1-6 6H436a6 6 0 0 1-6-6V112z" fill="#fff"/><g opacity=".4"><path d="M489 175c13.807 0 25-11.193 25-25s-11.193-25-25-25-25 11.193-25 25 11.193 25 25 25z" fill="#FFE4CB"/><path d="M481.01 143.14l7.989 25.09-11.855-7.428 3.866-17.662 7.989-10.915v7.656l-11.855 20.921h23.722l-11.855-20.921v-7.656l7.99 10.915 3.865 17.662-11.855 7.428 7.99-25.09" stroke="#fff" stroke-linecap="round" stroke-linejoin="round"/></g><g opacity=".7"><path d="M115.978 66.45c-9.14 0-16.55-7.444-16.55-16.626 0-9.182 7.41-16.626 16.55-16.626 9.141 0 16.551 7.444 16.551 16.626 0 9.182-7.41 16.626-16.551 16.626zm7.117-20.292c.146-.074.62-.312 1.168-.88a14.22 14.22 0 0 1 2.171.495c-1.989-1.21-4.708-1.925-7.718-1.907 0 0 1.149 1.65 4.342 2.328l.037-.036z" fill="#FDE4CC"/><path d="M127.602 44.838a9.231 9.231 0 0 1 1.807 5.499c0 2.401-.986 4.62-2.665 6.416l1.022 3.83h3.102l3.267-3.72.876-5.444.182-3.245-3.23-3.666-4.361.33z" fill="#FDE3CB"/><path d="M126.519 56.8c1.548-1.83 2.504-4.344 2.504-7.118 0-1.643-.335-3.194-.93-4.566" stroke="#FEF4E9"/><path d="M91.655 61.024l.565 2.255s6.679 13.766 21.715 18.88c0 0 13.679-5.866 19.755-15.82l-8.387-7.35s-4.015 3.208-9.981 3.208c-5.967 0-14.069-3.575-14.069-10.944 0-7.368 8.394-10.063 8.394-10.063l-3.577-.88h-9.142l-5.802 14.041.529 6.673z" fill="#FDE3CB"/><path d="M142.182 45.549c-.256-.257-6.766-8.194-27.076-15.215-.642-.44-.99-.577-1.044-.408-18.864 4.832-28.119 14.988-28.119 15.623 0 .635 2.7 10.177 4.453 14.063.146.33 2.481 4.473 4.215 6.728-1.022-2.255-2.135-4.216-2.135-7.59 0-9.513 7.335-17.248 16.514-17.578.219 0 .456 0 .675.018l-2.19-2.2s8.814-1.485 20.127 5.39c0 0 .164.348 0 1.374 0 0 5.328 2.31 5.785 6.801.456 4.491-2.373 7.057-4.654 7.424 0 0 1.186-1.851-.638-2.841a2.413 2.413 0 0 0-1.296-.294c-3.485 0-3.887 3.997-3.887 3.997-.036.201-.036.403-.036.605 0 0-.584 5.847 9.781 5.737 0 0 5.255-5.976 6.642-11.347.511-1.98.876-3.464 1.113-4.564.584-1.558 1.149-3.853 1.697-5.521l.073-.202z" fill="#FEF4E8"/><path d="M142.382 44.646c-10.984-9.534-24.871-14.487-27.754-15.44l-.274-.094-.364-.112-.639.206c-2.883.953-16.77 5.906-27.754 15.44l-.238.205.055.318c.018.075 1.204 7.309 5.255 15.478 2.39 4.804 5.292 8.972 8.613 12.43 4.069 4.225 8.814 7.347 14.087 9.29l.31.113.311.112.328-.13.31-.113c5.274-1.944 10-5.066 14.087-9.29 3.321-3.44 6.223-7.627 8.613-12.431 4.051-8.15 5.255-15.403 5.255-15.477l.055-.318-.256-.187zm-6.058 15.477c-2.335 4.692-5.164 8.786-8.412 12.15-4.032 4.169-8.704 7.235-13.922 9.123-5.219-1.888-9.891-4.935-13.923-9.104-3.248-3.364-6.077-7.44-8.412-12.131-3.522-7.066-4.836-13.403-5.11-14.861 11.259-9.664 25.492-14.487 27.445-15.122 1.934.635 16.185 5.458 27.444 15.122-.274 1.44-1.606 7.776-5.11 14.823z" fill="#FFE9D5"/><path d="M109.257 40.933c-4.718 2.277-8.329 6.52-8.007 11.163.421 6.082 7.242 10.554 15.236 9.99a18.808 18.808 0 0 0 6.693-1.758" stroke="#FEF4E9"/></g><g clip-path="url(#clip3)"><path d="M362.367 317.072c4.5-.298 9.085.635 13.137 2.699 5.964 3.01 10.718 8.457 12.968 14.887a26.914 26.914 0 0 1 1.524 8.855v11.194c0 .46.012.92-.096 1.368-.242 1.132-1.029 2.127-2.057 2.599-.714.349-1.536.386-2.31.261-1.658-.31-2.952-1.915-2.964-3.644-.012-3.47 0-6.939 0-10.422.024-.982.036-2.04-.484-2.91-.847-1.605-2.879-2.363-4.524-1.679-1.391.51-2.395 1.952-2.408 3.47-.012 3.532 0 7.052 0 10.571 0 .659.037 1.331-.157 1.965-.351 1.244-1.355 2.251-2.564 2.587-1.585.448-3.412-.273-4.21-1.778-.544-.908-.508-2.003-.496-3.022-.012-3.495.012-7.003-.012-10.497-.036-1.779-1.452-3.383-3.17-3.607a3.637 3.637 0 0 0-3.096 1.02 3.903 3.903 0 0 0-1.15 2.761v10.198c-.012.858.085 1.741-.229 2.55-.496 1.455-1.924 2.525-3.436 2.487-1.548.087-3.048-1.007-3.544-2.5-.279-.733-.218-1.529-.218-2.3 0-3.52.012-7.04 0-10.56-.012-1.741-1.331-3.333-2.988-3.644-1.512-.335-3.182.448-3.932 1.841a3.966 3.966 0 0 0-.496 1.915v11.43c.013 1.107-.483 2.214-1.318 2.923-1.258 1.132-3.29 1.194-4.609.149-.956-.672-1.524-1.828-1.524-3.022v-11.579a27.31 27.31 0 0 1 3.121-12.599 26.662 26.662 0 0 1 6.677-8.183c4.113-3.408 9.279-5.46 14.565-5.784z" fill="#FFE7D0" fill-opacity=".7"/></g><path d="M112.363 129.054c4.5-.298 9.085.635 13.137 2.699 5.964 3.01 10.718 8.458 12.968 14.887a26.916 26.916 0 0 1 1.525 8.856v11.193c0 .46.012.92-.097 1.368-.242 1.132-1.028 2.127-2.057 2.599-.713.349-1.536.386-2.31.262-1.657-.311-2.952-1.916-2.964-3.644-.012-3.47 0-6.94 0-10.423.024-.982.036-2.039-.484-2.91-.847-1.604-2.879-2.363-4.524-1.679-1.391.51-2.395 1.953-2.407 3.47-.012 3.532 0 7.052 0 10.571 0 .66.036 1.331-.158 1.966-.35 1.243-1.354 2.251-2.564 2.586-1.585.448-3.412-.273-4.21-1.778-.544-.908-.508-2.002-.496-3.022-.012-3.495.012-7.002-.012-10.497-.036-1.779-1.452-3.383-3.169-3.607a3.642 3.642 0 0 0-3.097 1.02 3.902 3.902 0 0 0-1.149 2.761v10.198c-.012.859.084 1.742-.23 2.55-.496 1.455-1.924 2.525-3.436 2.487-1.548.087-3.048-1.007-3.544-2.499-.278-.734-.218-1.53-.218-2.301 0-3.52.012-7.04 0-10.559-.012-1.742-1.331-3.334-2.988-3.644-1.512-.336-3.181.447-3.931 1.84a3.96 3.96 0 0 0-.496 1.916v11.429c.012 1.107-.484 2.214-1.319 2.923-1.258 1.132-3.29 1.194-4.609.149-.955-.671-1.524-1.828-1.524-3.022V155.62a27.307 27.307 0 0 1 3.121-12.599 26.67 26.67 0 0 1 6.678-8.183c4.112-3.408 9.278-5.46 14.564-5.784z" fill="#FFE7D0" fill-opacity=".7"/><defs><filter id="filter0_d" x="176" y="103.59" width="126.67" height="96.313" filterUnits="userSpaceOnUse" color-interpolation-filters="sRGB"><feFlood flood-opacity="0" result="BackgroundImageFix"/><feColorMatrix in="SourceAlpha" values="0 0 0 0 0 0 0 0 0 0 0 0 0 0 0 0 0 0 127 0"/><feOffset dy="2"/><feGaussianBlur stdDeviation="2"/><feColorMatrix values="0 0 0 0 0 0 0 0 0 0 0 0 0 0 0 0 0 0 0.1 0"/><feBlend in2="BackgroundImageFix" result="effect1_dropShadow"/><feBlend in="SourceGraphic" in2="effect1_dropShadow" result="shape"/></filter><filter id="filter1_d" x="300.3" y="198.343" width="126.67" height="96.313" filterUnits="userSpaceOnUse" color-interpolation-filters="sRGB"><feFlood flood-opacity="0" result="BackgroundImageFix"/><feColorMatrix in="SourceAlpha" values="0 0 0 0 0 0 0 0 0 0 0 0 0 0 0 0 0 0 127 0"/><feOffset dy="2"/><feGaussianBlur stdDeviation="2"/><feColorMatrix values="0 0 0 0 0 0 0 0 0 0 0 0 0 0 0 0 0 0 0.1 0"/><feBlend in2="BackgroundImageFix" result="effect1_dropShadow"/><feBlend in="SourceGraphic" in2="effect1_dropShadow" result="shape"/></filter><clipPath id="clip0"><path fill="#fff" transform="translate(339.337 224.26)" d="M0 0h42.317v42.317H0z"/></clipPath><clipPath id="clip1"><path fill="#fff" transform="matrix(-1 0 0 1 516 31)" d="M0 0h52v46H0z"/></clipPath><clipPath id="clip2"><path fill="#fff" transform="matrix(-1 0 0 1 140 221)" d="M0 0h52v46H0z"/></clipPath><clipPath id="clip3"><path fill="#fff" transform="matrix(1 0 0 -1 338 359)" d="M0 0h52v42H0z"/></clipPath></defs></svg>