<svg width="362" height="499" viewBox="0 0 362 499" fill="none" xmlns="http://www.w3.org/2000/svg">
<g filter="url(#filter0_d)">
<rect x="8" y="4" width="346" height="483" rx="12" fill="url(#paint0_linear)"/>
</g>
<g opacity="0.2" filter="url(#filter1_d)">
<rect x="17" y="13" width="92" height="24" rx="6" fill="white"/>
</g>
<path d="M39.1403 22.0639V20.4919H32.0963V22.0639H34.7843V28.9999H36.4523V22.0639H39.1403Z" fill="white"/>
<path d="M45.634 28.9999V27.4399H41.962V25.4719H45.286V23.9959H41.962V22.0519H45.634V20.4919H40.306V28.9999H45.634Z" fill="white"/>
<path d="M56.7823 28.9999V20.4919H54.5263L52.0303 26.6359L49.4743 20.4919H47.2903V28.9999H48.8743V23.0839L51.3223 28.9999H52.7023L55.1503 23.0359V28.9999H56.7823Z" fill="white"/>
<path d="M60.3958 24.3679V21.9319H61.7038C62.5318 21.9319 63.0358 22.3999 63.0358 23.1559C63.0358 23.8879 62.5318 24.3679 61.7038 24.3679H60.3958ZM61.9078 25.7959C63.5878 25.7959 64.7038 24.6919 64.7038 23.1439C64.7038 21.6079 63.5878 20.4919 61.9078 20.4919H58.7278V28.9999H60.3838V25.7959H61.9078Z" fill="white"/>
<path d="M71.418 28.9999V27.4159H67.626V20.4919H65.97V28.9999H71.418Z" fill="white"/>
<path d="M78.5506 28.9999H80.3506L77.1106 20.4919H75.1906L71.9266 28.9999H73.6786L74.3866 27.0559H77.8426L78.5506 28.9999ZM76.1146 22.3279L77.2906 25.5439H74.9386L76.1146 22.3279Z" fill="white"/>
<path d="M86.9176 22.0639V20.4919H79.8736V22.0639H82.5616V28.9999H84.2296V22.0639H86.9176Z" fill="white"/>
<path d="M93.4113 28.9999V27.4399H89.7393V25.4719H93.0633V23.9959H89.7393V22.0519H93.4113V20.4919H88.0833V28.9999H93.4113Z" fill="white"/>
<path d="M49.136 317H51.92V306.728H58.992V304.104H51.92V297.224H62.608V294.6H49.136V317Z" fill="white"/>
<path d="M75.4197 317H78.2037V300.648H75.4197V310.568C75.4197 313.768 73.7877 314.792 71.6437 314.792C69.6277 314.792 68.1237 313.608 68.1237 310.504V300.648H65.3397V310.088C65.3397 315.336 67.4517 317.384 71.2917 317.384C73.0197 317.384 74.3317 316.84 75.4197 315.432V317Z" fill="white"/>
<path d="M93.611 317H96.395V307.592C96.395 302.312 94.251 300.264 90.539 300.264C88.779 300.264 87.339 300.904 86.315 302.312V300.648H83.531V317H86.315V307.048C86.315 303.88 87.947 302.824 90.091 302.824C92.107 302.824 93.611 304.008 93.611 307.112V317Z" fill="white"/>
<path d="M107.354 317.384C109.306 317.384 110.554 316.68 111.482 315.72V317H114.266V293.896L111.482 295.208V301.8C110.554 300.968 109.274 300.264 107.354 300.264C103.29 300.264 100.602 303.432 100.602 308.808C100.602 314.088 103.194 317.384 107.354 317.384ZM107.738 314.792C105.05 314.792 103.418 312.2 103.418 308.808C103.418 304.968 104.986 302.824 107.738 302.824C109.626 302.824 110.874 303.944 111.482 304.904V312.584C110.65 313.992 109.274 314.792 107.738 314.792Z" fill="white"/>
<path d="M119.531 317H122.315V307.784C122.315 304.072 124.395 303.016 125.963 303.016C127.083 303.016 127.787 303.368 128.299 303.72L128.715 301.096C128.139 300.616 127.243 300.264 126.187 300.264C124.363 300.264 123.051 301.16 122.315 302.792V300.648H119.531V317Z" fill="white"/>
<path d="M140.719 317H143.343V306.152C143.343 301.128 140.079 300.264 137.519 300.264C135.055 300.264 132.911 301.128 131.599 301.992L132.399 304.328C133.615 303.464 135.343 302.696 137.167 302.696C139.279 302.696 140.719 303.496 140.719 306.376V307.528C139.375 306.76 137.935 306.472 136.495 306.472C133.327 306.472 130.383 308.104 130.383 311.88C130.383 315.528 132.751 317.384 136.079 317.384C138.031 317.384 139.631 316.52 140.719 315.496V317ZM136.495 314.92C134.255 314.92 133.007 313.704 133.007 311.88C133.007 309.8 134.767 308.872 136.879 308.872C138.223 308.872 139.727 309.352 140.719 309.96V312.776C139.791 313.864 138.319 314.92 136.495 314.92Z" fill="white"/>
<path d="M149.595 297.672C150.587 297.672 151.355 296.904 151.355 295.944C151.355 294.952 150.587 294.152 149.595 294.152C148.635 294.152 147.867 294.952 147.867 295.944C147.867 296.904 148.635 297.672 149.595 297.672ZM148.219 317H151.003V300.648H148.219V317Z" fill="white"/>
<path d="M161.144 317.384C164.696 317.384 166.968 315.688 166.968 312.744C166.968 309.64 164.632 308.36 161.656 307.304C159.832 306.568 158.2 305.96 158.2 304.584C158.2 303.432 159.256 302.76 160.92 302.76C162.68 302.76 163.832 303.592 164.536 304.328L166.456 302.728C165.272 301.32 163.448 300.264 160.952 300.264C157.816 300.264 155.448 301.896 155.448 304.584C155.448 307.272 157.496 308.584 160.504 309.704C162.424 310.44 164.248 311.176 164.248 312.808C164.248 314.248 162.936 314.888 161.208 314.888C159.448 314.888 158.04 313.832 157.208 312.936L155.224 314.632C156.504 316.264 158.744 317.384 161.144 317.384Z" fill="white"/>
<path d="M172.72 297.672C173.712 297.672 174.48 296.904 174.48 295.944C174.48 294.952 173.712 294.152 172.72 294.152C171.76 294.152 170.992 294.952 170.992 295.944C170.992 296.904 171.76 297.672 172.72 297.672ZM171.344 317H174.128V300.648H171.344V317Z" fill="white"/>
<path d="M189.517 317H192.301V307.592C192.301 302.312 190.157 300.264 186.445 300.264C184.685 300.264 183.245 300.904 182.221 302.312V300.648H179.437V317H182.221V307.048C182.221 303.88 183.853 302.824 185.997 302.824C188.013 302.824 189.517 304.008 189.517 307.112V317Z" fill="white"/>
<path d="M202.492 323.624C207.036 323.368 210.204 321.64 210.204 316.328V300.648H207.42V301.992C206.78 301.288 205.5 300.264 203.292 300.264C199.292 300.264 196.508 303.432 196.508 308.808C196.508 314.504 199.58 317.384 203.196 317.384C205.18 317.384 206.492 316.68 207.42 315.4V317.384C207.42 319.528 206.204 321.16 201.148 321.448L202.492 323.624ZM203.772 314.792C201.148 314.792 199.324 312.552 199.324 308.808C199.324 304.968 200.86 302.824 203.772 302.824C205.02 302.824 206.62 303.656 207.42 305V312.488C206.588 313.928 205.116 314.792 203.772 314.792Z" fill="white"/>
<path d="M47.7 356H49.179V344.1H47.7V356Z" fill="white"/>
<path d="M57.6469 356H59.1259V351.002C59.1259 348.197 57.9869 347.109 56.0149 347.109C55.0799 347.109 54.3149 347.449 53.7709 348.197V347.313H52.2919V356H53.7709V350.713C53.7709 349.03 54.6379 348.469 55.7769 348.469C56.8479 348.469 57.6469 349.098 57.6469 350.747V356Z" fill="white"/>
<path d="M62.619 345.732C63.146 345.732 63.554 345.324 63.554 344.814C63.554 344.287 63.146 343.862 62.619 343.862C62.109 343.862 61.701 344.287 61.701 344.814C61.701 345.324 62.109 345.732 62.619 345.732ZM61.888 356H63.367V347.313H61.888V356Z" fill="white"/>
<path d="M68.5334 356.204C69.2134 356.204 69.7404 356.051 70.1994 355.813L70.3694 354.368C69.9954 354.606 69.5704 354.827 69.0774 354.827C68.3124 354.827 68.1764 354.3 68.1764 353.637V348.605H70.3184V347.313H68.1764V343.726L66.6974 344.44V347.313H65.2864V348.605H66.6974V354.13C66.6974 355.354 67.2244 356.204 68.5334 356.204Z" fill="white"/>
<path d="M73.2938 345.732C73.8208 345.732 74.2288 345.324 74.2288 344.814C74.2288 344.287 73.8208 343.862 73.2938 343.862C72.7838 343.862 72.3758 344.287 72.3758 344.814C72.3758 345.324 72.7838 345.732 73.2938 345.732ZM72.5628 356H74.0418V347.313H72.5628V356Z" fill="white"/>
<path d="M81.8432 356H83.2372V350.237C83.2372 347.568 81.5032 347.109 80.1432 347.109C78.8342 347.109 77.6952 347.568 76.9982 348.027L77.4232 349.268C78.0692 348.809 78.9872 348.401 79.9562 348.401C81.0782 348.401 81.8432 348.826 81.8432 350.356V350.968C81.1292 350.56 80.3642 350.407 79.5992 350.407C77.9162 350.407 76.3522 351.274 76.3522 353.28C76.3522 355.218 77.6102 356.204 79.3782 356.204C80.4152 356.204 81.2652 355.745 81.8432 355.201V356ZM79.5992 354.895C78.4092 354.895 77.7462 354.249 77.7462 353.28C77.7462 352.175 78.6812 351.682 79.8032 351.682C80.5172 351.682 81.3162 351.937 81.8432 352.26V353.756C81.3502 354.334 80.5682 354.895 79.5992 354.895Z" fill="white"/>
<path d="M85.8954 356H87.3744V343.726L85.8954 344.423V356Z" fill="white"/>
<path d="M91.0076 345.732C91.5346 345.732 91.9426 345.324 91.9426 344.814C91.9426 344.287 91.5346 343.862 91.0076 343.862C90.4976 343.862 90.0896 344.287 90.0896 344.814C90.0896 345.324 90.4976 345.732 91.0076 345.732ZM90.2766 356H91.7556V347.313H90.2766V356Z" fill="white"/>
<path d="M94.236 356H100.594V354.674H96.072L100.611 348.367V347.313H94.576V348.622H98.758L94.236 354.912V356Z" fill="white"/>
<path d="M106.508 356.204C107.681 356.204 108.667 355.728 109.313 355.082L108.412 354.079C107.868 354.623 107.205 354.861 106.542 354.861C105.233 354.861 104.281 353.824 104.162 352.226H110.044C110.078 351.886 110.095 351.512 110.095 351.24C110.095 348.384 108.463 347.109 106.508 347.109C104.196 347.109 102.649 348.775 102.649 351.648C102.649 354.3 104.128 356.204 106.508 356.204ZM104.145 350.968C104.23 349.183 105.25 348.418 106.508 348.418C107.426 348.418 108.582 348.996 108.599 350.968H104.145Z" fill="white"/>
<path d="M121.288 356H122.682V350.237C122.682 347.568 120.948 347.109 119.588 347.109C118.279 347.109 117.14 347.568 116.443 348.027L116.868 349.268C117.514 348.809 118.432 348.401 119.401 348.401C120.523 348.401 121.288 348.826 121.288 350.356V350.968C120.574 350.56 119.809 350.407 119.044 350.407C117.361 350.407 115.797 351.274 115.797 353.28C115.797 355.218 117.055 356.204 118.823 356.204C119.86 356.204 120.71 355.745 121.288 355.201V356ZM119.044 354.895C117.854 354.895 117.191 354.249 117.191 353.28C117.191 352.175 118.126 351.682 119.248 351.682C119.962 351.682 120.761 351.937 121.288 352.26V353.756C120.795 354.334 120.013 354.895 119.044 354.895Z" fill="white"/>
<path d="M131.603 356.204C132.283 356.204 132.81 356.051 133.269 355.813L133.439 354.368C133.065 354.606 132.64 354.827 132.147 354.827C131.382 354.827 131.246 354.3 131.246 353.637V348.605H133.388V347.313H131.246V343.726L129.767 344.44V347.313H128.356V348.605H129.767V354.13C129.767 355.354 130.294 356.204 131.603 356.204Z" fill="white"/>
<path d="M135.615 356H137.094V351.104C137.094 349.132 138.199 348.571 139.032 348.571C139.627 348.571 140.001 348.758 140.273 348.945L140.494 347.551C140.188 347.296 139.712 347.109 139.151 347.109C138.182 347.109 137.485 347.585 137.094 348.452V347.313H135.615V356Z" fill="white"/>
<path d="M146.871 356H148.265V350.237C148.265 347.568 146.531 347.109 145.171 347.109C143.862 347.109 142.723 347.568 142.026 348.027L142.451 349.268C143.097 348.809 144.015 348.401 144.984 348.401C146.106 348.401 146.871 348.826 146.871 350.356V350.968C146.157 350.56 145.392 350.407 144.627 350.407C142.944 350.407 141.38 351.274 141.38 353.28C141.38 355.218 142.638 356.204 144.406 356.204C145.443 356.204 146.293 355.745 146.871 355.201V356ZM144.627 354.895C143.437 354.895 142.774 354.249 142.774 353.28C142.774 352.175 143.709 351.682 144.831 351.682C145.545 351.682 146.344 351.937 146.871 352.26V353.756C146.378 354.334 145.596 354.895 144.627 354.895Z" fill="white"/>
<path d="M156.194 356H157.673V351.002C157.673 348.197 156.534 347.109 154.562 347.109C153.627 347.109 152.862 347.449 152.318 348.197V347.313H150.839V356H152.318V350.713C152.318 349.03 153.185 348.469 154.324 348.469C155.395 348.469 156.194 349.098 156.194 350.747V356Z" fill="white"/>
<path d="M162.985 356.204C164.872 356.204 166.079 355.303 166.079 353.739C166.079 352.09 164.838 351.41 163.257 350.849C162.288 350.458 161.421 350.135 161.421 349.404C161.421 348.792 161.982 348.435 162.866 348.435C163.801 348.435 164.413 348.877 164.787 349.268L165.807 348.418C165.178 347.67 164.209 347.109 162.883 347.109C161.217 347.109 159.959 347.976 159.959 349.404C159.959 350.832 161.047 351.529 162.645 352.124C163.665 352.515 164.634 352.906 164.634 353.773C164.634 354.538 163.937 354.878 163.019 354.878C162.084 354.878 161.336 354.317 160.894 353.841L159.84 354.742C160.52 355.609 161.71 356.204 162.985 356.204Z" fill="white"/>
<path d="M172.093 356.204C174.201 356.204 175.68 354.538 175.68 351.648C175.68 348.86 174.303 347.109 172.093 347.109C171.005 347.109 170.376 347.534 169.866 348.044V347.313H168.387V359.434L169.866 358.737V355.184C170.325 355.728 170.971 356.204 172.093 356.204ZM171.906 354.827C171.022 354.827 170.359 354.3 169.866 353.654V349.642C170.291 348.894 171.022 348.469 171.906 348.469C173.334 348.469 174.167 349.761 174.167 351.648C174.167 353.705 173.351 354.827 171.906 354.827Z" fill="white"/>
<path d="M182.963 356H184.357V350.237C184.357 347.568 182.623 347.109 181.263 347.109C179.954 347.109 178.815 347.568 178.118 348.027L178.543 349.268C179.189 348.809 180.107 348.401 181.076 348.401C182.198 348.401 182.963 348.826 182.963 350.356V350.968C182.249 350.56 181.484 350.407 180.719 350.407C179.036 350.407 177.472 351.274 177.472 353.28C177.472 355.218 178.73 356.204 180.498 356.204C181.535 356.204 182.385 355.745 182.963 355.201V356ZM180.719 354.895C179.529 354.895 178.866 354.249 178.866 353.28C178.866 352.175 179.801 351.682 180.923 351.682C181.637 351.682 182.436 351.937 182.963 352.26V353.756C182.47 354.334 181.688 354.895 180.719 354.895Z" fill="white"/>
<path d="M186.931 356H188.41V351.104C188.41 349.132 189.515 348.571 190.348 348.571C190.943 348.571 191.317 348.758 191.589 348.945L191.81 347.551C191.504 347.296 191.028 347.109 190.467 347.109C189.498 347.109 188.801 347.585 188.41 348.452V347.313H186.931V356Z" fill="white"/>
<path d="M196.887 356.204C198.06 356.204 199.046 355.728 199.692 355.082L198.791 354.079C198.247 354.623 197.584 354.861 196.921 354.861C195.612 354.861 194.66 353.824 194.541 352.226H200.423C200.457 351.886 200.474 351.512 200.474 351.24C200.474 348.384 198.842 347.109 196.887 347.109C194.575 347.109 193.028 348.775 193.028 351.648C193.028 354.3 194.507 356.204 196.887 356.204ZM194.524 350.968C194.609 349.183 195.629 348.418 196.887 348.418C197.805 348.418 198.961 348.996 198.978 350.968H194.524Z" fill="white"/>
<path d="M208.04 356H209.519V351.002C209.519 348.197 208.38 347.109 206.408 347.109C205.473 347.109 204.708 347.449 204.164 348.197V347.313H202.685V356H204.164V350.713C204.164 349.03 205.031 348.469 206.17 348.469C207.241 348.469 208.04 349.098 208.04 350.747V356Z" fill="white"/>
<path d="M214.611 356.204C215.291 356.204 215.818 356.051 216.277 355.813L216.447 354.368C216.073 354.606 215.648 354.827 215.155 354.827C214.39 354.827 214.254 354.3 214.254 353.637V348.605H216.396V347.313H214.254V343.726L212.775 344.44V347.313H211.364V348.605H212.775V354.13C212.775 355.354 213.302 356.204 214.611 356.204Z" fill="white"/>
<path d="M227.605 356H228.999V350.237C228.999 347.568 227.265 347.109 225.905 347.109C224.596 347.109 223.457 347.568 222.76 348.027L223.185 349.268C223.831 348.809 224.749 348.401 225.718 348.401C226.84 348.401 227.605 348.826 227.605 350.356V350.968C226.891 350.56 226.126 350.407 225.361 350.407C223.678 350.407 222.114 351.274 222.114 353.28C222.114 355.218 223.372 356.204 225.14 356.204C226.177 356.204 227.027 355.745 227.605 355.201V356ZM225.361 354.895C224.171 354.895 223.508 354.249 223.508 353.28C223.508 352.175 224.443 351.682 225.565 351.682C226.279 351.682 227.078 351.937 227.605 352.26V353.756C227.112 354.334 226.33 354.895 225.361 354.895Z" fill="white"/>
<path d="M236.927 356H238.406V351.002C238.406 348.197 237.267 347.109 235.295 347.109C234.36 347.109 233.595 347.449 233.051 348.197V347.313H231.572V356H233.051V350.713C233.051 349.03 233.918 348.469 235.057 348.469C236.128 348.469 236.927 349.098 236.927 350.747V356Z" fill="white"/>
<path d="M244.228 356.204C245.265 356.204 245.928 355.83 246.421 355.32V356H247.9V343.726L246.421 344.423V347.925C245.928 347.483 245.248 347.109 244.228 347.109C242.069 347.109 240.641 348.792 240.641 351.648C240.641 354.453 242.018 356.204 244.228 356.204ZM244.432 354.827C243.004 354.827 242.137 353.45 242.137 351.648C242.137 349.608 242.97 348.469 244.432 348.469C245.435 348.469 246.098 349.064 246.421 349.574V353.654C245.979 354.402 245.248 354.827 244.432 354.827Z" fill="white"/>
<path d="M52.392 382H53.786V376.237C53.786 373.568 52.052 373.109 50.692 373.109C49.383 373.109 48.244 373.568 47.547 374.027L47.972 375.268C48.618 374.809 49.536 374.401 50.505 374.401C51.627 374.401 52.392 374.826 52.392 376.356V376.968C51.678 376.56 50.913 376.407 50.148 376.407C48.465 376.407 46.901 377.274 46.901 379.28C46.901 381.218 48.159 382.204 49.927 382.204C50.964 382.204 51.814 381.745 52.392 381.201V382ZM50.148 380.895C48.958 380.895 48.295 380.249 48.295 379.28C48.295 378.175 49.23 377.682 50.352 377.682C51.066 377.682 51.865 377.937 52.392 378.26V379.756C51.899 380.334 51.117 380.895 50.148 380.895Z" fill="white"/>
<path d="M59.4532 382.204C61.0512 382.204 62.2072 381.405 62.6322 379.977L61.2552 379.518C61.0002 380.334 60.3542 380.81 59.4872 380.81C58.0932 380.81 57.3622 379.637 57.3622 377.665C57.3622 375.71 58.0592 374.486 59.5382 374.486C60.3882 374.486 60.9152 374.979 61.1702 375.642L62.5642 375.132C62.0712 373.772 60.9662 373.109 59.5212 373.109C57.2432 373.109 55.8492 374.809 55.8492 377.665C55.8492 380.538 57.2432 382.204 59.4532 382.204Z" fill="white"/>
<path d="M67.9532 382.204C69.5512 382.204 70.7072 381.405 71.1322 379.977L69.7552 379.518C69.5002 380.334 68.8542 380.81 67.9872 380.81C66.5932 380.81 65.8622 379.637 65.8622 377.665C65.8622 375.71 66.5592 374.486 68.0382 374.486C68.8882 374.486 69.4152 374.979 69.6702 375.642L71.0642 375.132C70.5712 373.772 69.4662 373.109 68.0212 373.109C65.7432 373.109 64.3492 374.809 64.3492 377.665C64.3492 380.538 65.7432 382.204 67.9532 382.204Z" fill="white"/>
<path d="M76.6912 382.204C79.0202 382.204 80.5332 380.504 80.5332 377.648C80.5332 374.775 79.0202 373.109 76.6912 373.109C74.3622 373.109 72.8492 374.809 72.8492 377.665C72.8492 380.538 74.3622 382.204 76.6912 382.204ZM76.6912 380.827C75.2122 380.827 74.3452 379.637 74.3452 377.665C74.3452 375.642 75.2122 374.469 76.6912 374.469C78.1702 374.469 79.0372 375.676 79.0372 377.648C79.0372 379.637 78.1532 380.827 76.6912 380.827Z" fill="white"/>
<path d="M88.1087 382H89.5877V373.313H88.1087V378.583C88.1087 380.283 87.2417 380.827 86.1027 380.827C85.0317 380.827 84.2327 380.198 84.2327 378.549V373.313H82.7537V378.328C82.7537 381.116 83.8757 382.204 85.9157 382.204C86.8337 382.204 87.5307 381.915 88.1087 381.167V382Z" fill="white"/>
<path d="M97.7728 382H99.2518V377.002C99.2518 374.197 98.1128 373.109 96.1408 373.109C95.2058 373.109 94.4408 373.449 93.8968 374.197V373.313H92.4178V382H93.8968V376.713C93.8968 375.03 94.7638 374.469 95.9028 374.469C96.9738 374.469 97.7728 375.098 97.7728 376.747V382Z" fill="white"/>
<path d="M104.343 382.204C105.023 382.204 105.55 382.051 106.009 381.813L106.179 380.368C105.805 380.606 105.38 380.827 104.887 380.827C104.122 380.827 103.986 380.3 103.986 379.637V374.605H106.128V373.313H103.986V369.726L102.507 370.44V373.313H101.096V374.605H102.507V380.13C102.507 381.354 103.034 382.204 104.343 382.204Z" fill="white"/>
<path d="M113.17 382H114.564V376.237C114.564 373.568 112.83 373.109 111.47 373.109C110.161 373.109 109.022 373.568 108.325 374.027L108.75 375.268C109.396 374.809 110.314 374.401 111.283 374.401C112.405 374.401 113.17 374.826 113.17 376.356V376.968C112.456 376.56 111.691 376.407 110.926 376.407C109.243 376.407 107.679 377.274 107.679 379.28C107.679 381.218 108.937 382.204 110.705 382.204C111.742 382.204 112.592 381.745 113.17 381.201V382ZM110.926 380.895C109.736 380.895 109.073 380.249 109.073 379.28C109.073 378.175 110.008 377.682 111.13 377.682C111.844 377.682 112.643 377.937 113.17 378.26V379.756C112.677 380.334 111.895 380.895 110.926 380.895Z" fill="white"/>
<path d="M120.844 382.204C123.054 382.204 124.397 380.589 124.397 377.648C124.397 374.792 122.952 373.109 120.793 373.109C119.892 373.109 119.11 373.517 118.617 374.061V369.726L117.138 370.423V382H118.617V381.252C119.127 381.745 119.739 382.204 120.844 382.204ZM120.64 380.827C119.824 380.827 119.042 380.385 118.617 379.654V375.625C118.906 375.132 119.654 374.469 120.64 374.469C122.119 374.469 122.884 375.608 122.884 377.648C122.884 379.603 122.136 380.827 120.64 380.827Z" fill="white"/>
<path d="M126.768 382H128.247V369.726L126.768 370.423V382Z" fill="white"/>
<path d="M134.482 382.204C135.655 382.204 136.641 381.728 137.287 381.082L136.386 380.079C135.842 380.623 135.179 380.861 134.516 380.861C133.207 380.861 132.255 379.824 132.136 378.226H138.018C138.052 377.886 138.069 377.512 138.069 377.24C138.069 374.384 136.437 373.109 134.482 373.109C132.17 373.109 130.623 374.775 130.623 377.648C130.623 380.3 132.102 382.204 134.482 382.204ZM132.119 376.968C132.204 375.183 133.224 374.418 134.482 374.418C135.4 374.418 136.556 374.996 136.573 376.968H132.119Z" fill="white"/>
<path d="M147.375 382.204C148.973 382.204 150.129 381.405 150.554 379.977L149.177 379.518C148.922 380.334 148.276 380.81 147.409 380.81C146.015 380.81 145.284 379.637 145.284 377.665C145.284 375.71 145.981 374.486 147.46 374.486C148.31 374.486 148.837 374.979 149.092 375.642L150.486 375.132C149.993 373.772 148.888 373.109 147.443 373.109C145.165 373.109 143.771 374.809 143.771 377.665C143.771 380.538 145.165 382.204 147.375 382.204Z" fill="white"/>
<path d="M152.781 382H154.26V377.104C154.26 375.132 155.365 374.571 156.198 374.571C156.793 374.571 157.167 374.758 157.439 374.945L157.66 373.551C157.354 373.296 156.878 373.109 156.317 373.109C155.348 373.109 154.651 373.585 154.26 374.452V373.313H152.781V382Z" fill="white"/>
<path d="M162.721 382.204C165.05 382.204 166.563 380.504 166.563 377.648C166.563 374.775 165.05 373.109 162.721 373.109C160.392 373.109 158.879 374.809 158.879 377.665C158.879 380.538 160.392 382.204 162.721 382.204ZM162.721 380.827C161.242 380.827 160.375 379.637 160.375 377.665C160.375 375.642 161.242 374.469 162.721 374.469C164.2 374.469 165.067 375.676 165.067 377.648C165.067 379.637 164.183 380.827 162.721 380.827Z" fill="white"/>
<path d="M170.33 382H171.656L173.22 376.849C173.322 376.509 173.441 376.05 173.526 375.71C173.611 376.05 173.747 376.509 173.849 376.849L175.43 382H176.756L178.983 373.313H177.521L176.212 379.144C176.144 379.501 176.076 379.807 176.025 380.096L175.787 379.144L174.155 373.313H172.931L171.299 379.144C171.214 379.467 171.129 379.773 171.078 380.062C171.027 379.773 170.959 379.484 170.891 379.144L169.565 373.313H168.103L170.33 382Z" fill="white"/>
<path d="M183.931 382.204C184.968 382.204 185.631 381.83 186.124 381.32V382H187.603V369.726L186.124 370.423V373.925C185.631 373.483 184.951 373.109 183.931 373.109C181.772 373.109 180.344 374.792 180.344 377.648C180.344 380.453 181.721 382.204 183.931 382.204ZM184.135 380.827C182.707 380.827 181.84 379.45 181.84 377.648C181.84 375.608 182.673 374.469 184.135 374.469C185.138 374.469 185.801 375.064 186.124 375.574V379.654C185.682 380.402 184.951 380.827 184.135 380.827Z" fill="white"/>
<path d="M192.372 374.605H194.395V373.313H192.372V372.123C192.372 371.664 192.44 371.222 193.154 371.222C193.579 371.222 193.953 371.341 194.395 371.545V370.304C193.953 370.066 193.443 369.896 192.78 369.896C191.845 369.896 190.893 370.355 190.893 371.868V373.313H189.55V374.605H190.893V382H192.372V374.605Z" fill="white"/>
<path d="M200.933 382H202.412V373.313H200.933V378.583C200.933 380.283 200.066 380.827 198.927 380.827C197.856 380.827 197.057 380.198 197.057 378.549V373.313H195.578V378.328C195.578 381.116 196.7 382.204 198.74 382.204C199.658 382.204 200.355 381.915 200.933 381.167V382Z" fill="white"/>
<path d="M210.597 382H212.076V377.002C212.076 374.197 210.937 373.109 208.965 373.109C208.03 373.109 207.265 373.449 206.721 374.197V373.313H205.242V382H206.721V376.713C206.721 375.03 207.588 374.469 208.727 374.469C209.798 374.469 210.597 375.098 210.597 376.747V382Z" fill="white"/>
<path d="M217.898 382.204C218.935 382.204 219.598 381.83 220.091 381.32V382H221.57V369.726L220.091 370.423V373.925C219.598 373.483 218.918 373.109 217.898 373.109C215.739 373.109 214.311 374.792 214.311 377.648C214.311 380.453 215.688 382.204 217.898 382.204ZM218.102 380.827C216.674 380.827 215.807 379.45 215.807 377.648C215.807 375.608 216.64 374.469 218.102 374.469C219.105 374.469 219.768 375.064 220.091 375.574V379.654C219.649 380.402 218.918 380.827 218.102 380.827Z" fill="white"/>
<path d="M225.115 371.732C225.642 371.732 226.05 371.324 226.05 370.814C226.05 370.287 225.642 369.862 225.115 369.862C224.605 369.862 224.197 370.287 224.197 370.814C224.197 371.324 224.605 371.732 225.115 371.732ZM224.384 382H225.863V373.313H224.384V382Z" fill="white"/>
<path d="M234.038 382H235.517V377.002C235.517 374.197 234.378 373.109 232.406 373.109C231.471 373.109 230.706 373.449 230.162 374.197V373.313H228.683V382H230.162V376.713C230.162 375.03 231.029 374.469 232.168 374.469C233.239 374.469 234.038 375.098 234.038 376.747V382Z" fill="white"/>
<path d="M240.932 385.519C243.346 385.383 245.029 384.465 245.029 381.643V373.313H243.55V374.027C243.21 373.653 242.53 373.109 241.357 373.109C239.232 373.109 237.753 374.792 237.753 377.648C237.753 380.674 239.385 382.204 241.306 382.204C242.36 382.204 243.057 381.83 243.55 381.15V382.204C243.55 383.343 242.904 384.21 240.218 384.363L240.932 385.519ZM241.612 380.827C240.218 380.827 239.249 379.637 239.249 377.648C239.249 375.608 240.065 374.469 241.612 374.469C242.275 374.469 243.125 374.911 243.55 375.625V379.603C243.108 380.368 242.326 380.827 241.612 380.827Z" fill="white"/>
<path d="M50.505 408.204C52.103 408.204 53.259 407.405 53.684 405.977L52.307 405.518C52.052 406.334 51.406 406.81 50.539 406.81C49.145 406.81 48.414 405.637 48.414 403.665C48.414 401.71 49.111 400.486 50.59 400.486C51.44 400.486 51.967 400.979 52.222 401.642L53.616 401.132C53.123 399.772 52.018 399.109 50.573 399.109C48.295 399.109 46.901 400.809 46.901 403.665C46.901 406.538 48.295 408.204 50.505 408.204Z" fill="white"/>
<path d="M60.726 408H62.12V402.237C62.12 399.568 60.386 399.109 59.026 399.109C57.717 399.109 56.578 399.568 55.881 400.027L56.306 401.268C56.952 400.809 57.87 400.401 58.839 400.401C59.961 400.401 60.726 400.826 60.726 402.356V402.968C60.012 402.56 59.247 402.407 58.482 402.407C56.799 402.407 55.235 403.274 55.235 405.28C55.235 407.218 56.493 408.204 58.261 408.204C59.298 408.204 60.148 407.745 60.726 407.201V408ZM58.482 406.895C57.292 406.895 56.629 406.249 56.629 405.28C56.629 404.175 57.564 403.682 58.686 403.682C59.4 403.682 60.199 403.937 60.726 404.26V405.756C60.233 406.334 59.451 406.895 58.482 406.895Z" fill="white"/>
<path d="M74.8762 408H76.3552V402.305C76.3552 400.197 75.0292 399.109 73.2952 399.109C72.1732 399.109 71.2892 399.602 70.7792 400.384C70.2862 399.534 69.3852 399.109 68.4502 399.109C67.5322 399.109 66.6992 399.432 66.1722 400.129V399.313H64.6932V408H66.1722V402.713C66.1722 401.336 66.8862 400.469 68.0422 400.469C69.3852 400.469 69.7762 401.54 69.7762 402.73V408H71.2552V402.781C71.2552 401.404 72.0032 400.469 73.1252 400.469C74.4682 400.469 74.8762 401.54 74.8762 402.73V408Z" fill="white"/>
<path d="M82.7762 408.204C84.8842 408.204 86.3632 406.538 86.3632 403.648C86.3632 400.86 84.9862 399.109 82.7762 399.109C81.6882 399.109 81.0592 399.534 80.5492 400.044V399.313H79.0702V411.434L80.5492 410.737V407.184C81.0082 407.728 81.6542 408.204 82.7762 408.204ZM82.5892 406.827C81.7052 406.827 81.0422 406.3 80.5492 405.654V401.642C80.9742 400.894 81.7052 400.469 82.5892 400.469C84.0172 400.469 84.8502 401.761 84.8502 403.648C84.8502 405.705 84.0342 406.827 82.5892 406.827Z" fill="white"/>
<path d="M93.6469 408H95.0409V402.237C95.0409 399.568 93.3069 399.109 91.9469 399.109C90.6379 399.109 89.4989 399.568 88.8019 400.027L89.2269 401.268C89.8729 400.809 90.7909 400.401 91.7599 400.401C92.8819 400.401 93.6469 400.826 93.6469 402.356V402.968C92.9329 402.56 92.1679 402.407 91.4029 402.407C89.7199 402.407 88.1559 403.274 88.1559 405.28C88.1559 407.218 89.4139 408.204 91.1819 408.204C92.2189 408.204 93.0689 407.745 93.6469 407.201V408ZM91.4029 406.895C90.2129 406.895 89.5499 406.249 89.5499 405.28C89.5499 404.175 90.4849 403.682 91.6069 403.682C92.3209 403.682 93.1199 403.937 93.6469 404.26V405.756C93.1539 406.334 92.3719 406.895 91.4029 406.895Z" fill="white"/>
<path d="M98.3621 397.732C98.8891 397.732 99.2971 397.324 99.2971 396.814C99.2971 396.287 98.8891 395.862 98.3621 395.862C97.8521 395.862 97.4441 396.287 97.4441 396.814C97.4441 397.324 97.8521 397.732 98.3621 397.732ZM97.6311 408H99.1101V399.313H97.6311V408Z" fill="white"/>
<path d="M104.6 411.519C107.014 411.383 108.697 410.465 108.697 407.643V399.313H107.218V400.027C106.878 399.653 106.198 399.109 105.025 399.109C102.9 399.109 101.421 400.792 101.421 403.648C101.421 406.674 103.053 408.204 104.974 408.204C106.028 408.204 106.725 407.83 107.218 407.15V408.204C107.218 409.343 106.572 410.21 103.886 410.363L104.6 411.519ZM105.28 406.827C103.886 406.827 102.917 405.637 102.917 403.648C102.917 401.608 103.733 400.469 105.28 400.469C105.943 400.469 106.793 400.911 107.218 401.625V405.603C106.776 406.368 105.994 406.827 105.28 406.827Z" fill="white"/>
<path d="M116.865 408H118.344V403.002C118.344 400.197 117.205 399.109 115.233 399.109C114.298 399.109 113.533 399.449 112.989 400.197V399.313H111.51V408H112.989V402.713C112.989 401.03 113.856 400.469 114.995 400.469C116.066 400.469 116.865 401.098 116.865 402.747V408Z" fill="white"/>
<path d="M127.062 400.605H129.085V399.313H127.062V398.123C127.062 397.664 127.13 397.222 127.844 397.222C128.269 397.222 128.643 397.341 129.085 397.545V396.304C128.643 396.066 128.133 395.896 127.47 395.896C126.535 395.896 125.583 396.355 125.583 397.868V399.313H124.24V400.605H125.583V408H127.062V400.605Z" fill="white"/>
<path d="M133.867 408.204C136.196 408.204 137.709 406.504 137.709 403.648C137.709 400.775 136.196 399.109 133.867 399.109C131.538 399.109 130.025 400.809 130.025 403.665C130.025 406.538 131.538 408.204 133.867 408.204ZM133.867 406.827C132.388 406.827 131.521 405.637 131.521 403.665C131.521 401.642 132.388 400.469 133.867 400.469C135.346 400.469 136.213 401.676 136.213 403.648C136.213 405.637 135.329 406.827 133.867 406.827Z" fill="white"/>
<path d="M140.015 408H141.494V403.104C141.494 401.132 142.599 400.571 143.432 400.571C144.027 400.571 144.401 400.758 144.673 400.945L144.894 399.551C144.588 399.296 144.112 399.109 143.551 399.109C142.582 399.109 141.885 399.585 141.494 400.452V399.313H140.015V408Z" fill="white"/>
<path d="M151.66 411.298H153.156L157.661 399.313H156.148L153.955 405.229C153.836 405.535 153.768 405.773 153.683 406.062C153.598 405.773 153.53 405.535 153.411 405.229L151.252 399.313H149.773L152.986 407.779L151.66 411.298Z" fill="white"/>
<path d="M162.97 408.204C165.299 408.204 166.812 406.504 166.812 403.648C166.812 400.775 165.299 399.109 162.97 399.109C160.641 399.109 159.128 400.809 159.128 403.665C159.128 406.538 160.641 408.204 162.97 408.204ZM162.97 406.827C161.491 406.827 160.624 405.637 160.624 403.665C160.624 401.642 161.491 400.469 162.97 400.469C164.449 400.469 165.316 401.676 165.316 403.648C165.316 405.637 164.432 406.827 162.97 406.827Z" fill="white"/>
<path d="M174.387 408H175.866V399.313H174.387V404.583C174.387 406.283 173.52 406.827 172.381 406.827C171.31 406.827 170.511 406.198 170.511 404.549V399.313H169.032V404.328C169.032 407.116 170.154 408.204 172.194 408.204C173.112 408.204 173.809 407.915 174.387 407.167V408Z" fill="white"/>
<path d="M178.696 408H180.175V403.104C180.175 401.132 181.28 400.571 182.113 400.571C182.708 400.571 183.082 400.758 183.354 400.945L183.575 399.551C183.269 399.296 182.793 399.109 182.232 399.109C181.263 399.109 180.566 399.585 180.175 400.452V399.313H178.696V408Z" fill="white"/>
<path d="M193.011 408.204C195.119 408.204 196.598 406.538 196.598 403.648C196.598 400.86 195.221 399.109 193.011 399.109C191.923 399.109 191.294 399.534 190.784 400.044V399.313H189.305V411.434L190.784 410.737V407.184C191.243 407.728 191.889 408.204 193.011 408.204ZM192.824 406.827C191.94 406.827 191.277 406.3 190.784 405.654V401.642C191.209 400.894 191.94 400.469 192.824 400.469C194.252 400.469 195.085 401.761 195.085 403.648C195.085 405.705 194.269 406.827 192.824 406.827Z" fill="white"/>
<path d="M198.9 408H200.379V403.104C200.379 401.132 201.484 400.571 202.317 400.571C202.912 400.571 203.286 400.758 203.558 400.945L203.779 399.551C203.473 399.296 202.997 399.109 202.436 399.109C201.467 399.109 200.77 399.585 200.379 400.452V399.313H198.9V408Z" fill="white"/>
<path d="M208.84 408.204C211.169 408.204 212.682 406.504 212.682 403.648C212.682 400.775 211.169 399.109 208.84 399.109C206.511 399.109 204.998 400.809 204.998 403.665C204.998 406.538 206.511 408.204 208.84 408.204ZM208.84 406.827C207.361 406.827 206.494 405.637 206.494 403.665C206.494 401.642 207.361 400.469 208.84 400.469C210.319 400.469 211.186 401.676 211.186 403.648C211.186 405.637 210.302 406.827 208.84 406.827Z" fill="white"/>
<path d="M215.752 397.732C216.279 397.732 216.67 397.324 216.67 396.814C216.67 396.287 216.279 395.862 215.752 395.862C215.225 395.862 214.817 396.287 214.817 396.814C214.817 397.324 215.225 397.732 215.752 397.732ZM213.474 411.638C214.307 411.519 215.174 411.23 215.837 410.414C216.33 409.836 216.483 409.003 216.483 408.068V399.313H215.004V408.612C215.004 409.649 214.511 410.244 212.777 410.516L213.474 411.638Z" fill="white"/>
<path d="M222.653 408.204C223.826 408.204 224.812 407.728 225.458 407.082L224.557 406.079C224.013 406.623 223.35 406.861 222.687 406.861C221.378 406.861 220.426 405.824 220.307 404.226H226.189C226.223 403.886 226.24 403.512 226.24 403.24C226.24 400.384 224.608 399.109 222.653 399.109C220.341 399.109 218.794 400.775 218.794 403.648C218.794 406.3 220.273 408.204 222.653 408.204ZM220.29 402.968C220.375 401.183 221.395 400.418 222.653 400.418C223.571 400.418 224.727 400.996 224.744 402.968H220.29Z" fill="white"/>
<path d="M231.545 408.204C233.143 408.204 234.299 407.405 234.724 405.977L233.347 405.518C233.092 406.334 232.446 406.81 231.579 406.81C230.185 406.81 229.454 405.637 229.454 403.665C229.454 401.71 230.151 400.486 231.63 400.486C232.48 400.486 233.007 400.979 233.262 401.642L234.656 401.132C234.163 399.772 233.058 399.109 231.613 399.109C229.335 399.109 227.941 400.809 227.941 403.665C227.941 406.538 229.335 408.204 231.545 408.204Z" fill="white"/>
<path d="M239.131 408.204C239.811 408.204 240.338 408.051 240.797 407.813L240.967 406.368C240.593 406.606 240.168 406.827 239.675 406.827C238.91 406.827 238.774 406.3 238.774 405.637V400.605H240.916V399.313H238.774V395.726L237.295 396.44V399.313H235.884V400.605H237.295V406.13C237.295 407.354 237.822 408.204 239.131 408.204Z" fill="white"/>
<path d="M250.476 408.204C252.805 408.204 254.318 406.504 254.318 403.648C254.318 400.775 252.805 399.109 250.476 399.109C248.147 399.109 246.634 400.809 246.634 403.665C246.634 406.538 248.147 408.204 250.476 408.204ZM250.476 406.827C248.997 406.827 248.13 405.637 248.13 403.665C248.13 401.642 248.997 400.469 250.476 400.469C251.955 400.469 252.822 401.676 252.822 403.648C252.822 405.637 251.938 406.827 250.476 406.827Z" fill="white"/>
<path d="M256.624 408H258.103V403.104C258.103 401.132 259.208 400.571 260.041 400.571C260.636 400.571 261.01 400.758 261.282 400.945L261.503 399.551C261.197 399.296 260.721 399.109 260.16 399.109C259.191 399.109 258.494 399.585 258.103 400.452V399.313H256.624V408Z" fill="white"/>
<path d="M50.505 434.204C52.103 434.204 53.259 433.405 53.684 431.977L52.307 431.518C52.052 432.334 51.406 432.81 50.539 432.81C49.145 432.81 48.414 431.637 48.414 429.665C48.414 427.71 49.111 426.486 50.59 426.486C51.44 426.486 51.967 426.979 52.222 427.642L53.616 427.132C53.123 425.772 52.018 425.109 50.573 425.109C48.295 425.109 46.901 426.809 46.901 429.665C46.901 432.538 48.295 434.204 50.505 434.204Z" fill="white"/>
<path d="M59.243 434.204C61.572 434.204 63.085 432.504 63.085 429.648C63.085 426.775 61.572 425.109 59.243 425.109C56.914 425.109 55.401 426.809 55.401 429.665C55.401 432.538 56.914 434.204 59.243 434.204ZM59.243 432.827C57.764 432.827 56.897 431.637 56.897 429.665C56.897 427.642 57.764 426.469 59.243 426.469C60.722 426.469 61.589 427.676 61.589 429.648C61.589 431.637 60.705 432.827 59.243 432.827Z" fill="white"/>
<path d="M75.5735 434H77.0525V428.305C77.0525 426.197 75.7265 425.109 73.9925 425.109C72.8705 425.109 71.9865 425.602 71.4765 426.384C70.9835 425.534 70.0825 425.109 69.1475 425.109C68.2295 425.109 67.3965 425.432 66.8695 426.129V425.313H65.3905V434H66.8695V428.713C66.8695 427.336 67.5835 426.469 68.7395 426.469C70.0825 426.469 70.4735 427.54 70.4735 428.73V434H71.9525V428.781C71.9525 427.404 72.7005 426.469 73.8225 426.469C75.1655 426.469 75.5735 427.54 75.5735 428.73V434Z" fill="white"/>
<path d="M89.9504 434H91.4294V428.305C91.4294 426.197 90.1034 425.109 88.3694 425.109C87.2474 425.109 86.3634 425.602 85.8534 426.384C85.3604 425.534 84.4594 425.109 83.5244 425.109C82.6064 425.109 81.7734 425.432 81.2464 426.129V425.313H79.7674V434H81.2464V428.713C81.2464 427.336 81.9604 426.469 83.1164 426.469C84.4594 426.469 84.8504 427.54 84.8504 428.73V434H86.3294V428.781C86.3294 427.404 87.0774 426.469 88.1994 426.469C89.5424 426.469 89.9504 427.54 89.9504 428.73V434Z" fill="white"/>
<path d="M99.4144 434H100.893V425.313H99.4144V430.583C99.4144 432.283 98.5474 432.827 97.4084 432.827C96.3374 432.827 95.5384 432.198 95.5384 430.549V425.313H94.0594V430.328C94.0594 433.116 95.1814 434.204 97.2214 434.204C98.1394 434.204 98.8364 433.915 99.4144 433.167V434Z" fill="white"/>
<path d="M109.078 434H110.558V429.002C110.558 426.197 109.418 425.109 107.446 425.109C106.511 425.109 105.746 425.449 105.202 426.197V425.313H103.723V434H105.202V428.713C105.202 427.03 106.069 426.469 107.208 426.469C108.279 426.469 109.078 427.098 109.078 428.747V434Z" fill="white"/>
<path d="M114.051 423.732C114.578 423.732 114.986 423.324 114.986 422.814C114.986 422.287 114.578 421.862 114.051 421.862C113.541 421.862 113.133 422.287 113.133 422.814C113.133 423.324 113.541 423.732 114.051 423.732ZM113.32 434H114.799V425.313H113.32V434Z" fill="white"/>
<path d="M119.965 434.204C120.645 434.204 121.172 434.051 121.631 433.813L121.801 432.368C121.427 432.606 121.002 432.827 120.509 432.827C119.744 432.827 119.608 432.3 119.608 431.637V426.605H121.75V425.313H119.608V421.726L118.129 422.44V425.313H116.718V426.605H118.129V432.13C118.129 433.354 118.656 434.204 119.965 434.204Z" fill="white"/>
<path d="M125.014 437.298H126.51L131.015 425.313H129.502L127.309 431.229C127.19 431.535 127.122 431.773 127.037 432.062C126.952 431.773 126.884 431.535 126.765 431.229L124.606 425.313H123.127L126.34 433.779L125.014 437.298Z" fill="white"/>
<path d="M140.325 434.204C142.654 434.204 144.167 432.504 144.167 429.648C144.167 426.775 142.654 425.109 140.325 425.109C137.996 425.109 136.483 426.809 136.483 429.665C136.483 432.538 137.996 434.204 140.325 434.204ZM140.325 432.827C138.846 432.827 137.979 431.637 137.979 429.665C137.979 427.642 138.846 426.469 140.325 426.469C141.804 426.469 142.671 427.676 142.671 429.648C142.671 431.637 141.787 432.827 140.325 432.827Z" fill="white"/>
<path d="M146.473 434H147.952V429.104C147.952 427.132 149.057 426.571 149.89 426.571C150.485 426.571 150.859 426.758 151.131 426.945L151.352 425.551C151.046 425.296 150.57 425.109 150.009 425.109C149.04 425.109 148.343 425.585 147.952 426.452V425.313H146.473V434Z" fill="white"/>
<path d="M155.749 437.519C158.163 437.383 159.846 436.465 159.846 433.643V425.313H158.367V426.027C158.027 425.653 157.347 425.109 156.174 425.109C154.049 425.109 152.57 426.792 152.57 429.648C152.57 432.674 154.202 434.204 156.123 434.204C157.177 434.204 157.874 433.83 158.367 433.15V434.204C158.367 435.343 157.721 436.21 155.035 436.363L155.749 437.519ZM156.429 432.827C155.035 432.827 154.066 431.637 154.066 429.648C154.066 427.608 154.882 426.469 156.429 426.469C157.092 426.469 157.942 426.911 158.367 427.625V431.603C157.925 432.368 157.143 432.827 156.429 432.827Z" fill="white"/>
<path d="M167.64 434H169.034V428.237C169.034 425.568 167.3 425.109 165.94 425.109C164.631 425.109 163.492 425.568 162.795 426.027L163.22 427.268C163.866 426.809 164.784 426.401 165.753 426.401C166.875 426.401 167.64 426.826 167.64 428.356V428.968C166.926 428.56 166.161 428.407 165.396 428.407C163.713 428.407 162.149 429.274 162.149 431.28C162.149 433.218 163.407 434.204 165.175 434.204C166.212 434.204 167.062 433.745 167.64 433.201V434ZM165.396 432.895C164.206 432.895 163.543 432.249 163.543 431.28C163.543 430.175 164.478 429.682 165.6 429.682C166.314 429.682 167.113 429.937 167.64 430.26V431.756C167.147 432.334 166.365 432.895 165.396 432.895Z" fill="white"/>
<path d="M176.962 434H178.441V429.002C178.441 426.197 177.302 425.109 175.33 425.109C174.395 425.109 173.63 425.449 173.086 426.197V425.313H171.607V434H173.086V428.713C173.086 427.03 173.953 426.469 175.092 426.469C176.163 426.469 176.962 427.098 176.962 428.747V434Z" fill="white"/>
<path d="M181.934 423.732C182.461 423.732 182.869 423.324 182.869 422.814C182.869 422.287 182.461 421.862 181.934 421.862C181.424 421.862 181.016 422.287 181.016 422.814C181.016 423.324 181.424 423.732 181.934 423.732ZM181.203 434H182.682V425.313H181.203V434Z" fill="white"/>
<path d="M185.163 434H191.521V432.674H186.999L191.538 426.367V425.313H185.503V426.622H189.685L185.163 432.912V434Z" fill="white"/>
<path d="M199.067 434H200.461V428.237C200.461 425.568 198.727 425.109 197.367 425.109C196.058 425.109 194.919 425.568 194.222 426.027L194.647 427.268C195.293 426.809 196.211 426.401 197.18 426.401C198.302 426.401 199.067 426.826 199.067 428.356V428.968C198.353 428.56 197.588 428.407 196.823 428.407C195.14 428.407 193.576 429.274 193.576 431.28C193.576 433.218 194.834 434.204 196.602 434.204C197.639 434.204 198.489 433.745 199.067 433.201V434ZM196.823 432.895C195.633 432.895 194.97 432.249 194.97 431.28C194.97 430.175 195.905 429.682 197.027 429.682C197.741 429.682 198.54 429.937 199.067 430.26V431.756C198.574 432.334 197.792 432.895 196.823 432.895Z" fill="white"/>
<path d="M205.38 434.204C206.06 434.204 206.587 434.051 207.046 433.813L207.216 432.368C206.842 432.606 206.417 432.827 205.924 432.827C205.159 432.827 205.023 432.3 205.023 431.637V426.605H207.165V425.313H205.023V421.726L203.544 422.44V425.313H202.133V426.605H203.544V432.13C203.544 433.354 204.071 434.204 205.38 434.204Z" fill="white"/>
<path d="M210.14 423.732C210.667 423.732 211.075 423.324 211.075 422.814C211.075 422.287 210.667 421.862 210.14 421.862C209.63 421.862 209.222 422.287 209.222 422.814C209.222 423.324 209.63 423.732 210.14 423.732ZM209.409 434H210.888V425.313H209.409V434Z" fill="white"/>
<path d="M217.041 434.204C219.37 434.204 220.883 432.504 220.883 429.648C220.883 426.775 219.37 425.109 217.041 425.109C214.712 425.109 213.199 426.809 213.199 429.665C213.199 432.538 214.712 434.204 217.041 434.204ZM217.041 432.827C215.562 432.827 214.695 431.637 214.695 429.665C214.695 427.642 215.562 426.469 217.041 426.469C218.52 426.469 219.387 427.676 219.387 429.648C219.387 431.637 218.503 432.827 217.041 432.827Z" fill="white"/>
<path d="M228.543 434H230.022V429.002C230.022 426.197 228.883 425.109 226.911 425.109C225.976 425.109 225.211 425.449 224.667 426.197V425.313H223.188V434H224.667V428.713C224.667 427.03 225.534 426.469 226.673 426.469C227.744 426.469 228.543 427.098 228.543 428.747V434Z" fill="white"/>
<path d="M233.26 434.221C233.923 434.221 234.45 433.677 234.45 433.065C234.45 432.453 233.923 431.892 233.26 431.892C232.597 431.892 232.087 432.453 232.087 433.065C232.087 433.677 232.597 434.221 233.26 434.221Z" fill="white"/>
<path d="M193.232 167.232H253.398V227.398H193.232V167.232Z" fill="white"/>
<g opacity="0.4" filter="url(#filter2_f)">
<path d="M193.232 167.232H253.398V227.398H193.232V167.232Z" fill="white"/>
</g>
<path d="M181.199 215.364C147.969 215.364 121.034 188.426 121.034 155.199C121.034 121.966 147.972 95.0344 181.199 95.0344C214.426 95.0344 241.364 121.967 241.364 155.199H253.398C253.398 115.327 221.071 83 181.199 83C141.326 83 109 115.327 109 155.199C109 195.071 141.326 227.398 181.199 227.398V215.364Z" fill="url(#paint1_linear)" fill-opacity="0.6"/>
<path d="M181.199 191.298C161.262 191.298 145.099 175.135 145.099 155.199C145.099 135.258 161.262 119.099 181.199 119.099C201.135 119.099 217.298 135.258 217.298 155.199H229.332C229.332 128.617 207.781 107.066 181.199 107.066C154.616 107.066 133.066 128.617 133.066 155.199C133.066 181.781 154.616 203.332 181.199 203.332V191.298Z" fill="url(#paint2_linear)" fill-opacity="0.8"/>
<path d="M181.199 167.232C174.553 167.232 169.165 161.845 169.165 155.199C169.165 148.553 174.553 143.165 181.199 143.165C187.845 143.165 193.232 148.553 193.232 155.199H205.265C205.265 141.909 194.49 131.133 181.199 131.133C167.905 131.133 157.133 141.909 157.133 155.199C157.133 168.49 167.905 179.265 181.199 179.265V167.232Z" fill="url(#paint3_linear)"/>
<defs>
<filter id="filter0_d" x="0" y="0" width="362" height="499" filterUnits="userSpaceOnUse" color-interpolation-filters="sRGB">
<feFlood flood-opacity="0" result="BackgroundImageFix"/>
<feColorMatrix in="SourceAlpha" type="matrix" values="0 0 0 0 0 0 0 0 0 0 0 0 0 0 0 0 0 0 127 0"/>
<feOffset dy="4"/>
<feGaussianBlur stdDeviation="4"/>
<feColorMatrix type="matrix" values="0 0 0 0 0 0 0 0 0 0 0 0 0 0 0 0 0 0 0.15 0"/>
<feBlend mode="normal" in2="BackgroundImageFix" result="effect1_dropShadow"/>
<feBlend mode="normal" in="SourceGraphic" in2="effect1_dropShadow" result="shape"/>
</filter>
<filter id="filter1_d" x="13" y="13" width="100" height="32" filterUnits="userSpaceOnUse" color-interpolation-filters="sRGB">
<feFlood flood-opacity="0" result="BackgroundImageFix"/>
<feColorMatrix in="SourceAlpha" type="matrix" values="0 0 0 0 0 0 0 0 0 0 0 0 0 0 0 0 0 0 127 0"/>
<feOffset dy="4"/>
<feGaussianBlur stdDeviation="2"/>
<feColorMatrix type="matrix" values="0 0 0 0 0 0 0 0 0 0 0 0 0 0 0 0 0 0 0.25 0"/>
<feBlend mode="normal" in2="BackgroundImageFix" result="effect1_dropShadow"/>
<feBlend mode="normal" in="SourceGraphic" in2="effect1_dropShadow" result="shape"/>
</filter>
<filter id="filter2_f" x="179.232" y="153.232" width="88.1662" height="88.1662" filterUnits="userSpaceOnUse" color-interpolation-filters="sRGB">
<feFlood flood-opacity="0" result="BackgroundImageFix"/>
<feBlend mode="normal" in="SourceGraphic" in2="BackgroundImageFix" result="shape"/>
<feGaussianBlur stdDeviation="7" result="effect1_foregroundBlur"/>
</filter>
<linearGradient id="paint0_linear" x1="29" y1="493" x2="-68.1404" y2="-279.278" gradientUnits="userSpaceOnUse">
<stop stop-color="#FF9372"/>
<stop offset="1" stop-color="#FFD770"/>
</linearGradient>
<linearGradient id="paint1_linear" x1="-381.605" y1="-398.728" x2="244.374" y2="245.448" gradientUnits="userSpaceOnUse">
<stop stop-color="#FF9372"/>
<stop offset="1" stop-color="#FFD770"/>
</linearGradient>
<linearGradient id="paint2_linear" x1="-194.007" y1="-214.089" x2="223.316" y2="215.366" gradientUnits="userSpaceOnUse">
<stop stop-color="#FF9372"/>
<stop offset="1" stop-color="#FFD770"/>
</linearGradient>
<linearGradient id="paint3_linear" x1="-6.39854" y1="-29.4396" x2="202.257" y2="185.282" gradientUnits="userSpaceOnUse">
<stop stop-color="#FF9372"/>
<stop offset="1" stop-color="#FFDF8E"/>
</linearGradient>
</defs>
</svg>
